SplineFontDB: 3.0
FontName: LondrinaShadow-Regular
FullName: Londrina Shadow
FamilyName: Londrina Shadow
Weight: Book
Copyright: Copyright (c) 2011 by Marcelo Magalhaes (marcelomagalhaes.net), with Reserved Font Name "Londrina"
Version: 1.001 2011
ItalicAngle: 0
UnderlinePosition: -50
UnderlineWidth: 50
Ascent: 800
Descent: 200
sfntRevision: 0x00010042
LayerCount: 2
Layer: 0 1 "Back"  1
Layer: 1 1 "Fore"  0
XUID: [1021 634 417673433 9077761]
FSType: 0
OS2Version: 2
OS2_WeightWidthSlopeOnly: 0
OS2_UseTypoMetrics: 1
CreationTime: 1331472267
ModificationTime: 1331494197
PfmFamily: 17
TTFWeight: 400
TTFWidth: 5
LineGap: 0
VLineGap: 0
Panose: 2 0 5 6 0 0 0 2 0 3
OS2TypoAscent: 145
OS2TypoAOffset: 1
OS2TypoDescent: -38
OS2TypoDOffset: 1
OS2TypoLinegap: 0
OS2WinAscent: 0
OS2WinAOffset: 1
OS2WinDescent: 0
OS2WinDOffset: 1
HheadAscent: 0
HheadAOffset: 1
HheadDescent: 0
HheadDOffset: 1
OS2SubXSize: 700
OS2SubYSize: 650
OS2SubXOff: 0
OS2SubYOff: 140
OS2SupXSize: 700
OS2SupYSize: 650
OS2SupXOff: 0
OS2SupYOff: 477
OS2StrikeYSize: 50
OS2StrikeYPos: 250
OS2Vendor: 'PYRS'
OS2CodePages: 00000001.00000000
OS2UnicodeRanges: 8000002f.4000201a.00000000.00000000
Lookup: 258 0 0 "'kern' Horizontal Kerning in Latin lookup 0"  {"'kern' Horizontal Kerning in Latin lookup 0 per glyph data 0"  "'kern' Horizontal Kerning in Latin lookup 0 kerning class 1"  } ['kern' ('latn' <'dflt' > ) ]
DEI: 91125
KernClass2: 65+ 57 "'kern' Horizontal Kerning in Latin lookup 0 kerning class 1" 
 5 space
 28 hyphen uni00AD endash emdash
 5 slash
 40 comma period quotesinglbase quotedblbase
 15 colon semicolon
 22 quoteleft quotedblleft
 24 quoteright quotedblright
 9 backslash
 20 quotedbl quotesingle
 9 ampersand
 8 asterisk
 10 registered
 9 trademark
 27 guillemotleft guilsinglleft
 29 guillemotright guilsinglright
 50 A Agrave Aacute Acircumflex Atilde Adieresis Aring
 1 B
 10 C Ccedilla
 5 D Eth
 43 E AE Egrave Eacute Ecircumflex Edieresis OE
 1 F
 1 G
 48 I M N Igrave Iacute Icircumflex Idieresis Ntilde

StartChar: exclam
Encoding: 33 33 4
Width: 217
GlyphClass: 2
Flags: W
LayerCount: 2
Fore
SplineSet
186 -29 m 1,0,-1
 166 -28 l 1,1,-1
 146 -28 l 1,2,-1
 71 -29 l 2,3,4
 60 -29 60 -29 58 -9 c 1,5,-1
 51 -9 l 2,6,7
 38 -9 38 -9 38 22 c 1,8,-1
 44 125 l 1,9,10
 66 135 66 135 95 135 c 1,11,12
 95 135 95 135 186 131 c 1,13,-1
 185 111 l 1,14,-1
 206 111 l 1,15,-1
 203 -29 l 1,16,-1
 186 -29 l 1,0,-1
35 230 m 1,17,-1
 33 515 l 2,18,19
 33 616 33 616 39 712 c 1,20,-1
 50 712 l 1,21,22
 106 719 106 719 135.5 719 c 128,-1,23
 165 719 165 719 184 712 c 1,24,-1
 183 697 l 1,25,26
 197 695 197 695 204 692 c 1,27,-1
 200 393 l 1,28,29
 200 262 200 262 206 146 c 1,30,31
 155 140 155 140 55 140 c 1,32,-1
 55 160 l 1,33,-1
 35 160 l 1,34,-1
 35 230 l 1,17,-1
43 513 m 2,35,-1
 45 238 l 1,36,-1
 45 170 l 1,37,-1
 46 170 l 1,38,39
 156 173 156 173 175 175 c 1,40,41
 170 270 170 270 170 423 c 128,-1,42
 170 576 170 576 174 704 c 1,43,44
 158 709 158 709 131.5 709 c 128,-1,45
 105 709 105 709 51 702 c 1,46,-1
 48 702 l 1,47,48
 43 622 43 622 43 513 c 2,35,-1
54 118 m 1,49,-1
 48 16 l 2,50,51
 48 1 48 1 51 1 c 2,52,-1
 126 2 l 1,53,-1
 128 2 l 1,54,-1
 166 1 l 1,55,-1
 173 1 l 1,56,57
 173 10 173 10 176 121 c 1,58,-1
 96 125 l 1,59,60
 68 125 68 125 54 119 c 1,61,-1
 54 118 l 1,49,-1
EndSplineSet
EndChar

StartChar: quotedbl
Encoding: 34 34 5
Width: 378
GlyphClass: 2
Flags: W
LayerCount: 2
Fore
SplineSet
27 451 m 1,0,-1
 26 551 l 1,1,-1
 26 588 l 2,2,3
 26 639 26 639 29 714 c 1,4,-1
 40 714 l 1,5,-1
 58 716 l 1,6,7
 79 720 79 720 115 720 c 128,-1,8
 151 720 151 720 158 709 c 1,9,-1
 158 698 l 1,10,11
 173 697 173 697 178 689 c 1,12,-1
 180 430 l 1,13,-1
 132 430 l 1,14,-1
 87 429 l 2,15,16
 54 429 54 429 47 431 c 1,17,-1
 47 449 l 1,18,19
 41 449 41 449 27 451 c 1,0,-1
220 451 m 1,20,-1
 219 551 l 1,21,-1
 219 588 l 2,22,23
 219 639 219 639 222 714 c 1,24,-1
 233 714 l 1,25,-1
 251 716 l 1,26,27
 272 720 272 720 308 720 c 128,-1,28
 344 720 344 720 351 709 c 1,29,-1
 351 698 l 1,30,31
 366 697 366 697 371 689 c 1,32,-1
 373 430 l 1,33,-1
 325 430 l 1,34,-1
 280 429 l 2,35,36
 247 429 247 429 240 431 c 1,37,-1
 240 449 l 1,38,39
 234 449 234 449 220 451 c 1,20,-1
317 711 m 1,40,-1
 233 704 l 1,41,-1
 232 704 l 1,42,-1
 232 702 l 1,43,44
 229 659 229 659 229 601 c 2,45,-1
 230 460 l 1,46,-1
 259 459 l 1,47,-1
 329 460 l 1,48,-1
 343 460 l 1,49,-1
 343 500 l 1,50,-1
 341 706 l 1,51,52
 338 711 338 711 317 711 c 1,40,-1
124 711 m 1,53,-1
 40 704 l 1,54,-1
 39 704 l 1,55,-1
 39 702 l 1,56,57
 36 659 36 659 36 601 c 2,58,-1
 37 460 l 1,59,-1
 66 459 l 1,60,-1
 136 460 l 1,61,-1
 150 460 l 1,62,-1
 150 500 l 1,63,-1
 148 706 l 1,64,65
 145 711 145 711 124 711 c 1,53,-1
EndSplineSet
EndChar

StartChar: numbersign
Encoding: 35 35 6
Width: 669
GlyphClass: 2
Flags: W
LayerCount: 2
Fore
SplineSet
655 243 m 1,0,1
 664 222 664 222 664 187.5 c 128,-1,2
 664 153 664 153 666 129 c 1,3,4
 636 124 636 124 601 124 c 2,5,-1
 553 125 l 2,6,7
 528 125 528 125 487 124 c 1,8,9
 486 122 486 122 475 89 c 0,10,11
 449 12 449 12 427 -29 c 1,12,-1
 418 -29 l 1,13,14
 404 -31 404 -31 375 -31 c 128,-1,15
 346 -31 346 -31 292 -29 c 1,16,-1
 296 -10 l 1,17,18
 288 -9 288 -9 272 -9 c 1,19,20
 280 22 280 22 296 67.5 c 128,-1,21
 312 113 312 113 316 128 c 1,22,-1
 310 128 l 2,23,24
 277 128 277 128 246 127 c 1,25,26
 236 100 236 100 225.5 76.5 c 128,-1,27
 215 53 215 53 201 13 c 1,28,-1
 202 14 l 1,29,30
 190 -30 190 -30 169 -30 c 1,31,32
 153 -28 153 -28 134 -28 c 128,-1,33
 115 -28 115 -28 103 -28.5 c 128,-1,34
 91 -29 91 -29 74.5 -30 c 128,-1,35
 58 -31 58 -31 50 -31 c 1,36,37
 53 -13 53 -13 54 -10 c 1,38,39
 37 -10 37 -10 30 -11 c 1,40,41
 39 42 39 42 71 123 c 1,42,43
 68 122 68 122 56 122 c 128,-1,44
 44 122 44 122 41.5 126 c 128,-1,45
 39 130 39 130 37 143 c 1,46,47
 26 143 26 143 19 144 c 1,48,49
 15 190 15 190 15 286 c 1,50,51
 35 266 35 266 90 266 c 0,52,53
 112 266 112 266 129 267 c 1,54,55
 130 269 130 269 132 279 c 0,56,57
 142 317 142 317 155 353 c 1,58,-1
 48 352 l 1,59,-1
 48 372 l 1,60,-1
 28 372 l 1,61,-1
 27 503 l 1,62,63
 42 494 42 494 100.5 494 c 128,-1,64
 159 494 159 494 179 495 c 1,65,-1
 189 495 l 1,66,-1
 199 494 l 2,67,68
 206 494 206 494 224.5 553 c 128,-1,69
 243 612 243 612 250 650 c 1,70,71
 266 647 266 647 387 643 c 1,72,73
 387 638 387 638 385 624 c 1,74,-1
 407 623 l 1,75,76
 407 603 407 603 373 496 c 1,77,-1
 447 496 l 1,78,79
 458 517 458 517 497 651 c 1,80,81
 517 646 517 646 538 646 c 2,82,-1
 580 647 l 2,83,84
 582 647 582 647 591 647.5 c 128,-1,85
 600 648 600 648 604.5 647.5 c 128,-1,86
 609 647 609 647 615 646 c 0,87,88
 627 642 627 642 627 626 c 1,89,90
 632 626 632 626 637 626 c 0,91,92
 647 626 647 626 647 609.5 c 128,-1,93
 647 593 647 593 615 492 c 1,94,-1
 649 492 l 1,95,-1
 649 472 l 1,96,-1
 669 472 l 1,97,-1
 669 459 l 1,98,-1
 677 356 l 1,99,-1
 566 353 l 1,100,101
 563 344 563 344 557.5 325.5 c 128,-1,102
 552 307 552 307 548 297 c 2,103,-1
 538 267 l 1,104,105
 567 267 567 267 635 263 c 1,106,107
 637 259 637 259 638.5 253.5 c 128,-1,108
 640 248 640 248 641 246 c 0,109,110
 643 243 643 243 655 243 c 1,0,1
102 1 m 2,111,-1
 150 0 l 2,112,113
 155 0 155 0 159.5 5 c 128,-1,114
 164 10 164 10 165.5 15 c 128,-1,115
 167 20 167 20 169.5 28 c 128,-1,116
 172 36 172 36 177 50 c 128,-1,117
 182 64 182 64 189.5 81.5 c 128,-1,118
 197 99 197 99 200 105 c 0,119,120
 207 118 207 118 219 157 c 1,121,122
 242 158 242 158 275 158 c 2,123,-1
 311 158 l 2,124,125
 327 158 327 158 329 157 c 1,126,-1
 336 157 l 1,127,128
 330 135 330 135 311.5 84 c 128,-1,129
 293 33 293 33 285 1 c 1,130,131
 312 0 312 0 338 0 c 2,132,-1
 376 0 l 2,133,134
 396 0 396 0 402 2 c 1,135,136
 419 33 419 33 439 92 c 128,-1,137
 459 151 459 151 461 154 c 1,138,-1
 464 154 l 1,139,140
 491 155 491 155 529 155 c 2,141,-1
 573 155 l 2,142,143
 614 155 614 155 635 158 c 1,144,-1
 635 160 l 1,145,146
 633 184 633 184 633 204 c 0,147,148
 633 242 633 242 628 253 c 1,149,150
 568 257 568 257 536 257 c 2,151,-1
 498 257 l 1,152,153
 506 279 506 279 519 320 c 128,-1,154
 532 361 532 361 540 383 c 1,155,-1
 646 386 l 1,156,-1
 639 478 l 1,157,-1
 639 482 l 1,158,159
 628 482 628 482 607 482.5 c 128,-1,160
 586 483 586 483 576 483 c 1,161,162
 617 626 617 626 617 629 c 0,163,164
 617 638 617 638 584 638 c 1,165,-1
 536 636 l 2,166,167
 520 636 520 636 504 639 c 1,168,-1
 502 639 l 1,169,170
 469 512 469 512 452 486 c 1,171,-1
 333 486 l 1,172,173
 377 632 377 632 377 633 c 0,174,175
 262 637 262 637 258 638 c 1,176,-1
 258 637 l 1,177,178
 252 610 252 610 234.5 554.5 c 128,-1,179
 217 499 217 499 210 485 c 1,180,-1
 200 484 l 1,181,-1
 179 485 l 1,182,183
 159 484 159 484 106.5 484 c 128,-1,184
 54 484 54 484 36 490 c 1,185,-1
 38 382 l 1,186,-1
 156 383 l 1,187,-1
 176 383 l 1,188,189
 154 318 154 318 146 288 c 2,190,-1
 140 267 l 1,191,192
 138 255 138 255 112 255 c 1,193,-1
 90 256 l 1,194,195
 27 256 27 256 25 262 c 1,196,197
 25 201 25 201 28 153 c 1,198,-1
 37 153 l 2,199,200
 45 153 45 153 64.5 154 c 128,-1,201
 84 155 84 155 94 155 c 1,202,203
 91 147 91 147 80 118.5 c 128,-1,204
 69 90 69 90 64 78 c 0,205,206
 51 40 51 40 43 0 c 1,207,208
 66 1 66 1 102 1 c 2,111,-1
379 258 m 1,209,-1
 254 257 l 1,210,211
 262 279 262 279 276 321.5 c 128,-1,212
 290 364 290 364 297 385 c 1,213,-1
 299 386 l 1,214,215
 332 386 332 386 418 384 c 1,216,-1
 420 383 l 1,217,218
 415 363 415 363 400 323 c 128,-1,219
 385 283 385 283 380 261 c 1,220,-1
 379 258 l 1,209,-1
392 329 m 1,221,-1
 402 355 l 1,222,-1
 323 355 l 1,223,224
 310 318 310 318 295 267 c 1,225,-1
 371 268 l 1,226,227
 372 270 372 270 392 329 c 1,221,-1
EndSplineSet
EndChar

StartChar: dollar
Encoding: 36 36 7
Width: 445
GlyphClass: 2
Flags: W
LayerCount: 2
Fore
SplineSet
396 412 m 1,0,-1
 340 410 l 1,1,2
 296 410 296 410 284 436 c 1,3,4
 257 447 257 447 257 491 c 1,5,-1
 254 491 l 2,6,7
 241 491 241 491 229 480.5 c 128,-1,8
 217 470 217 470 217 454 c 128,-1,9
 217 438 217 438 233 418 c 128,-1,10
 249 398 249 398 265.5 386 c 128,-1,11
 282 374 282 374 311 355.5 c 128,-1,12
 340 337 340 337 346 333 c 0,13,14
 394 298 394 298 423 245.5 c 128,-1,15
 452 193 452 193 452 143 c 128,-1,16
 452 93 452 93 421.5 50.5 c 128,-1,17
 391 8 391 8 330 -21 c 1,18,-1
 329 -50 l 1,19,-1
 329 -89 l 2,20,21
 329 -126 329 -126 281 -126 c 2,22,-1
 261 -126 l 1,23,-1
 239 -127 l 1,24,-1
 211 -127 l 2,25,26
 177 -127 177 -127 168 -104 c 1,27,28
 145 -96 145 -96 145 -63 c 1,29,-1
 146 -37 l 2,30,31
 146 -24 146 -24 144 -19 c 1,32,-1
 143 -19 l 1,33,34
 84 0 84 0 60 33 c 1,35,36
 29 58 29 58 19.5 94 c 128,-1,37
 10 130 10 130 10 180 c 128,-1,38
 10 230 10 230 18 241 c 128,-1,39
 26 252 26 252 66 252 c 1,40,-1
 126 248 l 1,41,42
 175 248 175 248 181 225 c 1,43,44
 204 217 204 217 204 186 c 2,45,-1
 204 170 l 2,46,47
 204 168 204 168 203.5 161.5 c 128,-1,48
 203 155 203 155 203.5 153 c 128,-1,49
 204 151 204 151 205 148 c 0,50,51
 207 141 207 141 218.5 141 c 128,-1,52
 230 141 230 141 241.5 148.5 c 128,-1,53
 253 156 253 156 253 167 c 0,54,55
 253 200 253 200 219.5 237 c 128,-1,56
 186 274 186 274 137.5 312 c 128,-1,57
 89 350 89 350 75 366 c 0,58,59
 18 433 18 433 18 507 c 0,60,61
 18 559 18 559 54.5 600.5 c 128,-1,62
 91 642 91 642 147 658 c 1,63,-1
 147 663 l 1,64,65
 147 663 147 663 142 737 c 1,66,67
 142 756 142 756 159 760 c 0,68,69
 173 763 173 763 199 763 c 2,70,-1
 223 763 l 2,71,72
 285 763 285 763 306 746 c 1,73,-1
 306 723 l 1,74,-1
 323 722 l 1,75,-1
 326 722 l 1,76,-1
 326 651 l 1,77,78
 361 640 361 640 394.5 607 c 128,-1,79
 428 574 428 574 442 544 c 128,-1,80
 456 514 456 514 456 454 c 2,81,-1
 456 448 l 2,82,83
 456 412 456 412 412 412 c 2,84,-1
 396 412 l 1,0,-1
299 -29 m 1,85,-1
 300 6 l 1,86,87
 304 6 304 6 331 22.5 c 128,-1,88
 358 39 358 39 363 44 c 0,89,90
 422 92 422 92 422 160 c 0,91,92
 422 204 422 204 399.5 250.5 c 128,-1,93
 377 297 377 297 340 325 c 1,94,95
 262 377 262 377 234 401.5 c 128,-1,96
 206 426 206 426 196.5 442.5 c 128,-1,97
 187 459 187 459 187 476 c 128,-1,98
 187 493 187 493 202.5 507 c 128,-1,99
 218 521 218 521 234 521 c 0,100,101
 272 521 272 521 269 480 c 0,102,103
 268 465 268 465 279.5 452.5 c 128,-1,104
 291 440 291 440 320 440 c 1,105,-1
 376 442 l 1,106,-1
 392 442 l 2,107,108
 413 442 413 442 419.5 449.5 c 128,-1,109
 426 457 426 457 426 494.5 c 128,-1,110
 426 532 426 532 412 561 c 128,-1,111
 398 590 398 590 370.5 615.5 c 128,-1,112
 343 641 343 641 309 644 c 0,113,114
 296 645 296 645 296 658 c 2,115,-1
 296 740 l 1,116,117
 291 753 291 753 220 753 c 2,118,-1
 188 753 l 2,119,120
 152 753 152 753 152 737 c 1,121,-1
 157 663 l 1,122,-1
 158 654 l 1,123,124
 147 649 147 649 110.5 628 c 128,-1,125
 74 607 74 607 64 597 c 0,126,127
 28 561 28 561 28 507 c 0,128,129
 28 434 28 434 82 373 c 0,130,131
 100 353 100 353 151 314 c 128,-1,132
 202 275 202 275 232.5 240 c 128,-1,133
 263 205 263 205 263 167 c 0,134,135
 263 152 263 152 248.5 141.5 c 128,-1,136
 234 131 234 131 219.5 131 c 128,-1,137
 205 131 205 131 196.5 135.5 c 128,-1,138
 188 140 188 140 183.5 144.5 c 128,-1,139
 179 149 179 149 176 160 c 0,140,141
 173 176 173 176 174 193 c 1,142,-1
 174 206 l 2,143,144
 174 220 174 220 167 227.5 c 128,-1,145
 160 235 160 235 152.5 236.5 c 128,-1,146
 145 238 145 238 128 238 c 1,147,-1
 66 242 l 1,148,149
 34 242 34 242 27 233 c 128,-1,150
 20 224 20 224 20 191 c 0,151,152
 20 114 20 114 39.5 73.5 c 128,-1,153
 59 33 59 33 126 11 c 0,154,155
 157 1 157 1 157 -35 c 1,156,-1
 156 -63 l 2,157,158
 156 -80 156 -80 163 -88.5 c 128,-1,159
 170 -97 170 -97 191 -97 c 2,160,-1
 219 -97 l 2,161,162
 268 -97 268 -97 283.5 -92.5 c 128,-1,163
 299 -88 299 -88 299 -69 c 2,164,-1
 299 -29 l 1,85,-1
148 655 m 1,165,-1
 148 657 l 1,166,167
 147 656 147 656 147 655 c 1,168,-1
 148 655 l 1,165,-1
EndSplineSet
EndChar

StartChar: percent
Encoding: 37 37 8
Width: 604
GlyphClass: 2
Flags: W
LayerCount: 2
Fore
SplineSet
119 -10 m 1,0,-1
 110 -11 l 1,1,2
 84 -11 84 -11 119 71 c 1,3,-1
 127 93 l 1,4,-1
 126 93 l 1,5,6
 147 154 147 154 159 182 c 1,7,-1
 158 181 l 1,8,9
 174 229 174 229 213 333 c 1,10,11
 188 312 188 312 156.5 312 c 128,-1,12
 125 312 125 312 105 320.5 c 128,-1,13
 85 329 85 329 77.5 336 c 128,-1,14
 70 343 70 343 58 357 c 1,15,16
 32 379 32 379 26.5 396 c 128,-1,17
 21 413 21 413 19 420 c 128,-1,18
 17 427 17 427 14 450.5 c 128,-1,19
 11 474 11 474 9 485 c 1,20,-1
 8 513 l 1,21,-1
 10 540 l 2,22,23
 11 547 11 547 14 568.5 c 128,-1,24
 17 590 17 590 19 600 c 0,25,26
 25 630 25 630 44 651 c 0,27,28
 83 693 83 693 130 693 c 128,-1,29
 177 693 177 693 212 660 c 0,30,31
 273 603 273 603 273 510 c 2,32,-1
 273 500 l 1,33,-1
 278 515 l 1,34,-1
 277 515 l 1,35,36
 279 522 279 522 293.5 559.5 c 128,-1,37
 308 597 308 597 341 721 c 1,38,39
 358 717 358 717 382 717 c 2,40,-1
 428 718 l 2,41,42
 467 718 467 718 494 705 c 1,43,-1
 492 701 l 2,44,45
 492 700 492 700 489 694 c 1,46,47
 502 690 502 690 514 685 c 1,48,49
 506 669 506 669 506 662.5 c 128,-1,50
 506 656 506 656 460 515 c 1,51,-1
 445 473 l 2,52,53
 424 416 424 416 402 349 c 1,54,55
 434 376 434 376 477 376 c 128,-1,56
 520 376 520 376 554 344 c 0,57,58
 616 286 616 286 616 193 c 0,59,60
 616 126 616 126 592 66 c 0,61,62
 580 34 580 34 554 14.5 c 128,-1,63
 528 -5 528 -5 497.5 -5 c 128,-1,64
 467 -5 467 -5 446.5 4 c 128,-1,65
 426 13 426 13 420 19 c 128,-1,66
 414 25 414 25 401 40 c 1,67,68
 375 62 375 62 369.5 79 c 128,-1,69
 364 96 364 96 362 103 c 128,-1,70
 360 110 360 110 357 133.5 c 128,-1,71
 354 157 354 157 352 168 c 1,72,-1
 351 197 l 1,73,74
 350 196 350 196 340 168 c 128,-1,75
 330 140 330 140 325 127 c 2,76,-1
 268 -16 l 1,77,78
 264 -32 264 -32 227 -32 c 1,79,-1
 165 -30 l 2,80,81
 149 -30 149 -30 130 -31 c 0,82,83
 119 -31 119 -31 119 -15 c 2,84,-1
 119 -10 l 1,0,-1
436 708 m 1,85,-1
 378 706 l 2,86,87
 361 706 361 706 349 709 c 1,88,89
 330 637 330 637 316 597 c 128,-1,90
 302 557 302 557 300 554 c 0,91,92
 220 315 220 315 198 259 c 0,93,94
 169 186 169 186 168 178 c 1,95,96
 153 144 153 144 136 90 c 1,97,98
 107 13 107 13 107 6 c 128,-1,99
 107 -1 107 -1 110 -1 c 2,100,-1
 111 -1 l 1,101,102
 134 0 134 0 166 0 c 2,103,-1
 201 0 l 2,104,105
 236 0 236 0 239 7 c 2,106,-1
 296 151 l 2,107,108
 342 268 342 268 404 457.5 c 128,-1,109
 466 647 466 647 471 667 c 0,110,111
 478 695 478 695 481 701 c 1,112,113
 469 708 469 708 436 708 c 1,85,-1
362 170 m 2,114,115
 362 154 362 154 365.5 138.5 c 128,-1,116
 369 123 369 123 372 106.5 c 128,-1,117
 375 90 375 90 378.5 84.5 c 128,-1,118
 382 79 382 79 388 66.5 c 128,-1,119
 394 54 394 54 401.5 49 c 128,-1,120
 409 44 409 44 419 37 c 0,121,122
 436 25 436 25 474 25 c 128,-1,123
 512 25 512 25 538 53 c 0,124,125
 586 103 586 103 586 194 c 2,126,-1
 586 214 l 2,127,128
 586 298 586 298 539 340 c 0,129,130
 511 366 511 366 475.5 365.5 c 128,-1,131
 440 365 440 365 419 352 c 128,-1,132
 398 339 398 339 388 315 c 0,133,134
 370 276 370 276 363 221 c 1,135,-1
 361 196 l 1,136,-1
 362 171 l 1,137,-1
 362 170 l 2,114,115
19 487 m 2,138,139
 19 472 19 472 22.5 456 c 128,-1,140
 26 440 26 440 29 423.5 c 128,-1,141
 32 407 32 407 35.5 401.5 c 128,-1,142
 39 396 39 396 45 383.5 c 128,-1,143
 51 371 51 371 58.5 366 c 128,-1,144
 66 361 66 361 76 354 c 0,145,146
 93 342 93 342 131 342 c 128,-1,147
 169 342 169 342 196 370 c 0,148,149
 243 420 243 420 243 511 c 2,150,-1
 243 531 l 2,151,152
 243 615 243 615 196 658 c 0,153,154
 168 683 168 683 132.5 682.5 c 128,-1,155
 97 682 97 682 76 669 c 128,-1,156
 55 656 55 656 44 632 c 0,157,158
 27 593 27 593 20 538 c 1,159,-1
 18 513 l 1,160,-1
 19 488 l 1,161,-1
 19 487 l 2,138,139
505 170 m 2,162,163
 505 103 505 103 470 103 c 0,164,165
 459 103 459 103 453.5 109.5 c 128,-1,166
 448 116 448 116 447 123 c 128,-1,167
 446 130 446 130 446 143.5 c 128,-1,168
 446 157 446 157 445 162 c 2,169,-1
 440 235 l 1,170,-1
 440 236 l 1,171,-1
 439 248 l 1,172,173
 439 266 439 266 449 278.5 c 128,-1,174
 459 291 459 291 473 291 c 0,175,176
 505 291 505 291 505 192 c 2,177,-1
 505 170 l 2,162,163
162 486 m 2,178,179
 162 420 162 420 127 420 c 0,180,181
 116 420 116 420 110.5 426.5 c 128,-1,182
 105 433 105 433 104 440 c 128,-1,183
 103 447 103 447 103 460.5 c 128,-1,184
 103 474 103 474 102 479 c 2,185,-1
 97 552 l 1,186,-1
 97 553 l 1,187,-1
 96 565 l 1,188,189
 96 583 96 583 106 595.5 c 128,-1,190
 116 608 116 608 130 608 c 0,191,192
 162 608 162 608 162 509 c 2,193,-1
 162 486 l 2,178,179
132 459 m 1,194,-1
 133 440 l 1,195,-1
 133 431 l 1,196,197
 143 434 143 434 149 458 c 0,198,199
 150 460 150 460 150 462 c 2,200,-1
 150 467 l 1,201,-1
 152 509 l 1,202,203
 152 545 152 545 145 577 c 1,204,205
 136 574 136 574 131 566 c 1,206,-1
 131 567 l 1,207,208
 127 560 127 560 127 533 c 1,209,-1
 132 459 l 1,194,-1
475 142 m 1,210,-1
 476 123 l 1,211,-1
 476 114 l 1,212,213
 493 119 493 119 493 145 c 2,214,-1
 493 150 l 1,215,-1
 495 192 l 1,216,217
 495 228 495 228 488 260 c 1,218,219
 479 257 479 257 474 249 c 1,220,-1
 474 250 l 1,221,222
 470 243 470 243 470 216 c 1,223,-1
 475 142 l 1,210,-1
EndSplineSet
EndChar

StartChar: ampersand
Encoding: 38 38 9
Width: 565
GlyphClass: 2
Flags: W
LayerCount: 2
Fore
SplineSet
244 587 m 1,0,1
 221 582 221 582 221 559 c 128,-1,2
 221 536 221 536 227 514 c 1,3,4
 242 528 242 528 244 587 c 1,0,1
255 151 m 2,5,-1
 276 154 l 1,6,-1
 277 154 l 1,7,-1
 282 209 l 1,8,9
 282 225 282 225 280.5 233 c 128,-1,10
 279 241 279 241 270 249.5 c 128,-1,11
 261 258 261 258 242 258 c 0,12,13
 199 258 199 258 199 192 c 0,14,15
 199 178 199 178 200 171 c 128,-1,16
 201 164 201 164 209.5 156.5 c 128,-1,17
 218 149 218 149 229.5 149 c 128,-1,18
 241 149 241 149 255 151 c 2,5,-1
496 -31 m 2,19,-1
 491 -31 l 2,20,21
 459 -31 459 -31 447 -30 c 0,22,23
 415 -27 415 -27 381 5 c 1,24,25
 328 -26 328 -26 239 -31 c 1,26,27
 138 -31 138 -31 73 46 c 128,-1,28
 8 123 8 123 8 220 c 0,29,30
 8 269 8 269 36 321 c 128,-1,31
 64 373 64 373 104 411 c 1,32,33
 31 509 31 509 31 577.5 c 128,-1,34
 31 646 31 646 93.5 693.5 c 128,-1,35
 156 741 156 741 236.5 741 c 128,-1,36
 317 741 317 741 376.5 683 c 128,-1,37
 436 625 436 625 436 559 c 0,38,39
 436 537 436 537 427 512 c 128,-1,40
 418 487 418 487 411.5 476 c 128,-1,41
 405 465 405 465 387 435 c 1,42,-1
 381 426 l 2,43,44
 352 383 352 383 352 373 c 0,45,46
 352 353 352 353 364 331 c 1,47,48
 365 334 365 334 367 344 c 2,49,-1
 370 356 l 1,50,51
 372 371 372 371 376.5 376 c 128,-1,52
 381 381 381 381 386.5 386 c 128,-1,53
 392 391 392 391 398 393 c 0,54,55
 413 398 413 398 433 398 c 2,56,-1
 504 398 l 2,57,58
 539 398 539 398 548 374 c 1,59,60
 571 366 571 366 571 328.5 c 128,-1,61
 571 291 571 291 544 229 c 0,62,63
 541 222 541 222 538 214 c 0,64,65
 533 196 533 196 528 190 c 1,66,67
 523 179 523 179 517 169 c 0,68,69
 507 150 507 150 507 144 c 128,-1,70
 507 138 507 138 537 108 c 1,71,72
 576 61 576 61 583 25 c 1,73,-1
 583 12 l 1,74,75
 579 -10 579 -10 562.5 -19 c 128,-1,76
 546 -28 546 -28 532.5 -29.5 c 128,-1,77
 519 -31 519 -31 496 -31 c 2,19,-1
235 139 m 0,78,79
 199 139 199 139 184 161 c 128,-1,80
 169 183 169 183 169 215 c 128,-1,81
 169 247 169 247 185 267.5 c 128,-1,82
 201 288 201 288 226 288 c 0,83,84
 292 288 292 288 292 208 c 0,85,86
 292 179 292 179 291 170 c 0,87,88
 289 150 289 150 262 142 c 1,89,90
 241 139 241 139 235 139 c 0,78,79
234 618 m 0,91,92
 254 618 254 618 254 597 c 0,93,94
 254 506 254 506 222 501 c 1,95,-1
 222 502 l 1,96,97
 212 502 212 502 201.5 528.5 c 128,-1,98
 191 555 191 555 191 577 c 0,99,100
 191 618 191 618 234 618 c 0,91,92
480.5 156 m 128,-1,102
 477 161 477 161 477 165.5 c 128,-1,103
 477 170 477 170 488 193 c 128,-1,104
 499 216 499 216 504 224 c 1,105,106
 508 234 508 234 512 244 c 0,107,108
 541 312 541 312 541 342.5 c 128,-1,109
 541 373 541 373 532 380.5 c 128,-1,110
 523 388 523 388 504 388 c 2,111,-1
 433 388 l 2,112,113
 401 388 401 388 389 374.5 c 128,-1,114
 377 361 377 361 373.5 336 c 128,-1,115
 370 311 370 311 365 302 c 1,116,117
 322 356 322 356 322 394 c 0,118,119
 322 407 322 407 343 437.5 c 128,-1,120
 364 468 364 468 385 506.5 c 128,-1,121
 406 545 406 545 406 579 c 0,122,123
 406 641 406 641 357.5 686 c 128,-1,124
 309 731 309 731 234.5 731 c 128,-1,125
 160 731 160 731 100.5 686.5 c 128,-1,126
 41 642 41 642 41 577.5 c 128,-1,127
 41 513 41 513 118 410 c 1,128,129
 18 316 18 316 18 224.5 c 128,-1,130
 18 133 18 133 72 66 c 128,-1,131
 126 -1 126 -1 219 -1 c 1,132,133
 312 4 312 4 362 38 c 1,134,135
 390 12 390 12 410.5 5.5 c 128,-1,136
 431 -1 431 -1 471 -1 c 2,137,-1
 476 -1 l 2,138,139
 544 -1 544 -1 552 29 c 1,140,-1
 553 34 l 1,141,-1
 553 43 l 1,142,143
 547 74 547 74 503 129 c 1,144,-1
 503 128 l 1,145,146
 499 133 499 133 491.5 142 c 128,-1,101
 484 151 484 151 480.5 156 c 128,-1,102
EndSplineSet
EndChar

StartChar: quotesingle
Encoding: 39 39 10
Width: 185
GlyphClass: 2
Flags: W
LayerCount: 2
Fore
SplineSet
27 451 m 1,0,-1
 26 551 l 1,1,-1
 26 588 l 2,2,3
 26 639 26 639 29 714 c 1,4,-1
 40 714 l 1,5,-1
 58 716 l 1,6,7
 79 720 79 720 115 720 c 128,-1,8
 151 720 151 720 158 709 c 1,9,-1
 158 698 l 1,10,11
 173 697 173 697 178 689 c 1,12,-1
 180 430 l 1,13,-1
 132 430 l 1,14,-1
 87 429 l 2,15,16
 54 429 54 429 47 431 c 1,17,-1
 47 449 l 1,18,19
 41 449 41 449 27 451 c 1,0,-1
124 711 m 1,20,-1
 40 704 l 1,21,-1
 39 704 l 1,22,-1
 39 702 l 1,23,24
 36 659 36 659 36 601 c 2,25,-1
 37 460 l 1,26,-1
 66 459 l 1,27,-1
 136 460 l 1,28,-1
 150 460 l 1,29,-1
 150 500 l 1,30,-1
 148 706 l 1,31,32
 145 711 145 711 124 711 c 1,20,-1
EndSplineSet
EndChar

StartChar: parenleft
Encoding: 40 40 11
Width: 314
GlyphClass: 2
Flags: W
LayerCount: 2
Fore
SplineSet
22 202 m 1,0,-1
 28 396 l 1,1,-1
 28 444 l 1,2,3
 29 457 29 457 29 487.5 c 128,-1,4
 29 518 29 518 30 537 c 0,5,6
 36 647 36 647 121 696 c 0,7,8
 163 721 163 721 201 721 c 128,-1,9
 239 721 239 721 295 713 c 1,10,11
 295 702 295 702 297 696 c 1,12,-1
 315 693 l 1,13,14
 318 672 318 672 318 641 c 2,15,-1
 316 553 l 1,16,17
 256 535 256 535 234.5 498.5 c 128,-1,18
 213 462 213 462 207 375 c 0,19,20
 207 362 207 362 206 358 c 1,21,-1
 206 315 l 1,22,-1
 205 278 l 1,23,24
 205 224 205 224 216 186 c 1,25,-1
 215 187 l 1,26,27
 223 164 223 164 248 151.5 c 128,-1,28
 273 139 273 139 300 139 c 1,29,-1
 300 123 l 1,30,-1
 299 121 l 1,31,32
 304 119 304 119 320 119 c 1,33,-1
 320 103 l 1,34,35
 318 83 318 83 318 43.5 c 128,-1,36
 318 4 318 4 317 -14 c 1,37,38
 309 -30 309 -30 285 -30 c 0,39,40
 266 -30 266 -30 248 -30 c 0,41,42
 180 -30 180 -30 122 13 c 1,43,44
 84 39 84 39 57 83 c 1,45,-1
 57 82 l 1,46,47
 28 133 28 133 22 202 c 1,0,-1
228 0 m 2,48,-1
 257 0 l 2,49,50
 282 0 282 0 286 15 c 1,51,52
 291 28 291 28 289.5 44.5 c 128,-1,53
 288 61 288 61 288 86 c 128,-1,54
 288 111 288 111 290 124 c 1,55,-1
 289 129 l 1,56,57
 259 130 259 130 229.5 150.5 c 128,-1,58
 200 171 200 171 186 203 c 1,59,60
 175 241 175 241 175 274 c 2,61,-1
 175 370 l 2,62,63
 175 450 175 450 194 501 c 1,64,65
 204 557 204 557 286 581 c 1,66,67
 288 631 288 631 288 662.5 c 128,-1,68
 288 694 288 694 286 704 c 1,69,-1
 285 705 l 1,70,71
 252 709 252 709 212 711 c 1,72,73
 137 709 137 709 87.5 657.5 c 128,-1,74
 38 606 38 606 38 504 c 1,75,76
 39 504 39 504 38 474 c 1,77,-1
 38 444 l 1,78,-1
 38 398 l 2,79,80
 38 331 38 331 32 203 c 1,81,82
 37 139 37 139 66 87 c 1,83,84
 79 60 79 60 108 41 c 0,85,86
 167 0 167 0 228 0 c 2,48,-1
EndSplineSet
EndChar

StartChar: parenright
Encoding: 41 41 12
Width: 313
GlyphClass: 2
Flags: W
LayerCount: 2
Fore
SplineSet
306 376 m 1,0,-1
 312 182 l 1,1,2
 307 118 307 118 277 62 c 1,3,4
 260 33 260 33 232 13 c 0,5,6
 174 -30 174 -30 106 -30 c 0,7,8
 88 -30 88 -30 70 -30 c 0,9,10
 36 -30 36 -30 36 -8 c 1,11,12
 13 0 13 0 13 59 c 1,13,-1
 14 111 l 2,14,15
 14 119 14 119 14 123 c 2,16,-1
 15 139 l 1,17,18
 47 140 47 140 76.5 159 c 128,-1,19
 106 178 106 178 119 207 c 1,20,-1
 118 206 l 1,21,22
 129 244 129 244 129 298 c 1,23,24
 129 298 129 298 128 335 c 1,25,-1
 128 378 l 2,26,27
 128 380 128 380 121.5 440 c 128,-1,28
 115 500 115 500 101 523 c 1,29,30
 81 539 81 539 38 553 c 1,31,32
 38 565 38 565 33 567.5 c 128,-1,33
 28 570 28 570 24 571 c 128,-1,34
 20 572 20 572 18 573 c 1,35,-1
 16 661 l 2,36,37
 16 694 16 694 20 714 c 1,38,39
 55 719 55 719 102 721 c 1,40,41
 156 719 156 719 204 688.5 c 128,-1,42
 252 658 252 658 281 606 c 0,43,44
 305 563 305 563 305 480 c 0,45,46
 305 439 305 439 306 424 c 1,47,-1
 306 376 l 1,0,-1
138 380 m 1,48,-1
 139 301 l 2,49,50
 139 241 139 241 128 203 c 1,51,52
 114 171 114 171 84.5 150.5 c 128,-1,53
 55 130 55 130 25 129 c 1,54,-1
 24 124 l 1,55,56
 26 106 26 106 26 65.5 c 128,-1,57
 26 25 26 25 27 9 c 1,58,59
 35 0 35 0 56 0 c 2,60,-1
 86 0 l 2,61,62
 147 0 147 0 207.5 42 c 128,-1,63
 268 84 268 84 282 203 c 1,64,65
 276 331 276 331 276 398 c 2,66,-1
 276 444 l 2,67,68
 276 548 276 548 269.5 575 c 128,-1,69
 263 602 263 602 252 621 c 1,70,71
 206 711 206 711 102 711 c 0,72,73
 75 711 75 711 29 705 c 1,74,-1
 28 704 l 1,75,76
 25 682 25 682 25 669 c 128,-1,77
 25 656 25 656 28 581 c 1,78,79
 88 564 88 564 108 524.5 c 128,-1,80
 128 485 128 485 138 380 c 1,48,-1
EndSplineSet
EndChar

StartChar: asterisk
Encoding: 42 42 13
Width: 367
GlyphClass: 2
Flags: W
LayerCount: 2
Fore
SplineSet
377 437 m 1,0,-1
 378 431 l 1,1,2
 378 417 378 417 360 401 c 0,3,4
 356 397 356 397 355 396 c 2,5,-1
 345 386 l 1,6,-1
 269 328 l 1,7,8
 263 336 263 336 250 349 c 1,9,-1
 249 348 l 1,10,11
 202 395 202 395 199 399 c 1,12,13
 194 395 194 395 177 378 c 0,14,15
 138 337 138 337 122 337 c 1,16,17
 89 369 89 369 27 423 c 1,18,19
 28 424 28 424 28 425 c 2,20,-1
 7 443 l 1,21,22
 37 484 37 484 78 525 c 1,23,24
 75 530 75 530 43.5 565.5 c 128,-1,25
 12 601 12 601 7 618 c 1,26,27
 17 623 17 623 55 661 c 128,-1,28
 93 699 93 699 105 708 c 1,29,30
 113 706 113 706 144.5 678.5 c 128,-1,31
 176 651 176 651 186 639 c 1,32,33
 205 652 205 652 261 708 c 1,34,-1
 375 594 l 1,35,36
 372 575 372 575 342.5 546 c 128,-1,37
 313 517 313 517 310 512 c 1,38,39
 319 505 319 505 345 472.5 c 128,-1,40
 371 440 371 440 377 437 c 1,0,-1
348 448 m 2,41,-1
 348 450 l 1,42,43
 346 451 346 451 313.5 490 c 128,-1,44
 281 529 281 529 278 529 c 1,45,46
 282 539 282 539 312 568.5 c 128,-1,47
 342 598 342 598 344 611 c 1,48,-1
 301 653 l 2,49,50
 268 684 268 684 260 695 c 1,51,-1
 186 627 l 1,52,53
 182 630 182 630 163 648 c 0,54,55
 111 696 111 696 107 697 c 1,56,-1
 61 652 l 2,57,58
 24 615 24 615 19 613 c 1,59,60
 22 605 22 605 55.5 567 c 128,-1,61
 89 529 89 529 89 524 c 2,62,-1
 89 523 l 1,63,64
 81 514 81 514 64 496 c 0,65,66
 28 458 28 458 20 446 c 1,67,68
 38 431 38 431 106 367 c 1,69,70
 113 367 113 367 143.5 397.5 c 128,-1,71
 174 428 174 428 179 430 c 1,72,73
 186 427 186 427 210 404 c 1,74,-1
 252 361 l 2,75,76
 253 361 253 361 254 362 c 2,77,-1
 319 414 l 1,78,-1
 334 428 l 2,79,80
 348 441 348 441 348 448 c 2,41,-1
80 522 m 1,81,82
 79 522 79 522 79 523 c 1,83,84
 79 522 79 522 80 522 c 1,81,82
EndSplineSet
EndChar

StartChar: plus
Encoding: 43 43 14
Width: 445
GlyphClass: 2
Flags: W
LayerCount: 2
Fore
SplineSet
282 82 m 1,0,-1
 211 84 l 1,1,2
 166 84 166 84 152 78 c 1,3,-1
 151 96 l 2,4,5
 150 97 150 97 150 101 c 1,6,7
 135 100 135 100 132 98 c 1,8,-1
 131 116 l 1,9,10
 128 136 128 136 128 152 c 2,11,-1
 129 170 l 1,12,-1
 129 209 l 1,13,14
 44 217 44 217 32 226 c 1,15,-1
 33 239 l 1,16,17
 16 242 16 242 12 246 c 1,18,-1
 13 276 l 2,19,20
 13 305 13 305 11 347.5 c 128,-1,21
 9 390 9 390 9 398 c 1,22,23
 11 397 11 397 55.5 397 c 128,-1,24
 100 397 100 397 136 403 c 1,25,26
 136 471 136 471 145 543 c 1,27,28
 167 529 167 529 200 529 c 2,29,-1
 278 531 l 2,30,31
 296 531 296 531 310 529 c 1,32,-1
 310 510 l 1,33,34
 325 510 325 510 330 509 c 1,35,-1
 330 427 l 1,36,-1
 329 404 l 1,37,-1
 354 405 l 1,38,39
 410 405 410 405 433 401 c 1,40,-1
 432 383 l 1,41,42
 439 383 439 383 453 381 c 1,43,44
 452 368 452 368 452 339 c 2,45,-1
 453 294 l 1,46,47
 453 245 453 245 448 221 c 1,48,49
 437 215 437 215 385.5 214.5 c 128,-1,50
 334 214 334 214 331 213 c 1,51,-1
 323 96 l 2,52,53
 323 82 323 82 282 82 c 1,0,-1
140 192 m 1,54,-1
 139 150 l 2,55,56
 139 126 139 126 141 117 c 1,57,-1
 141 115 l 1,58,-1
 142 114 l 1,59,-1
 151 114 l 1,60,-1
 256 112 l 2,61,62
 293 112 293 112 293 116 c 2,63,-1
 293 118 l 1,64,-1
 300 228 l 1,65,-1
 300 240 l 1,66,67
 307 244 307 244 361.5 244.5 c 128,-1,68
 416 245 416 245 419 247 c 1,69,70
 422 274 422 274 422 321.5 c 128,-1,71
 422 369 422 369 423 392 c 1,72,73
 408 395 408 395 363 395 c 2,74,-1
 330 395 l 1,75,-1
 311 394 l 2,76,77
 300 394 300 394 300 416 c 2,78,-1
 300 520 l 1,79,-1
 286 520 l 1,80,-1
 202 519 l 2,81,82
 164 519 164 519 155 524 c 1,83,84
 146 475 146 475 146 394 c 1,85,86
 142 392 142 392 90.5 388 c 128,-1,87
 39 384 39 384 23 384 c 2,88,-1
 19 384 l 1,89,-1
 24 272 l 1,90,-1
 23 251 l 2,91,92
 23 245 23 245 66 242 c 128,-1,93
 109 239 109 239 135 239 c 2,94,-1
 137 239 l 1,95,96
 140 236 140 236 140 192 c 1,54,-1
EndSplineSet
EndChar

StartChar: comma
Encoding: 44 44 15
Width: 188
GlyphClass: 2
Flags: W
LayerCount: 2
Fore
SplineSet
180 -19 m 1,0,-1
 168 -85 l 1,1,-1
 158 -135 l 1,2,3
 143 -128 143 -128 119 -128 c 2,4,-1
 77 -128 l 1,5,6
 71 -122 71 -122 71 -108 c 1,7,-1
 57 -108 l 1,8,9
 52 -103 52 -103 52 -93.5 c 128,-1,10
 52 -84 52 -84 66 -28 c 1,11,12
 62 -26 62 -26 58 -27 c 0,13,14
 47 -30 47 -30 41 -17 c 1,15,-1
 41 -7 l 1,16,-1
 34 -7 l 2,17,18
 21 -7 21 -7 21 10 c 0,19,20
 21 52 21 52 26 127 c 1,21,22
 48 135 48 135 69.5 135 c 128,-1,23
 91 135 91 135 168 128 c 1,24,-1
 167 109 l 1,25,-1
 188 108 l 1,26,-1
 180 -19 l 1,0,-1
146 -21 m 1,27,-1
 150 1 l 1,28,-1
 151 4 l 1,29,-1
 153 4 l 1,30,-1
 153 119 l 1,31,32
 94 125 94 125 72.5 125 c 128,-1,33
 51 125 51 125 36 120 c 1,34,-1
 35 119 l 1,35,36
 31 53 31 53 31 8 c 2,37,-1
 31 4 l 1,38,39
 32 3 32 3 34 3 c 2,40,-1
 81 -1 l 1,41,-1
 60 -96 l 2,42,43
 60 -99 60 -99 79 -99 c 128,-1,44
 98 -99 98 -99 110 -98.5 c 128,-1,45
 122 -98 122 -98 130 -100 c 1,46,47
 132 -93 132 -93 134 -80 c 128,-1,48
 136 -67 136 -67 138 -61 c 2,49,-1
 146 -21 l 1,27,-1
EndSplineSet
EndChar

StartChar: hyphen
Encoding: 45 45 16
Width: 521
GlyphClass: 2
Flags: W
LayerCount: 2
Fore
SplineSet
26 202 m 1,0,-1
 29 372 l 1,1,-1
 492 372 l 1,2,-1
 492 352 l 1,3,-1
 512 352 l 1,4,-1
 510 244 l 2,5,6
 510 200 510 200 515 165 c 1,7,-1
 56 172 l 1,8,-1
 46 182 l 1,9,-1
 46 192 l 1,10,-1
 36 192 l 1,11,-1
 26 202 l 1,0,-1
39 362 m 1,12,-1
 36 202 l 1,13,14
 41 202 41 202 122 200 c 0,15,16
 323 195 323 195 445 195 c 2,17,-1
 485 195 l 1,18,19
 480 224 480 224 480 262 c 2,20,-1
 482 362 l 1,21,-1
 39 362 l 1,12,-1
EndSplineSet
EndChar

StartChar: period
Encoding: 46 46 17
Width: 189
GlyphClass: 2
Flags: W
LayerCount: 2
Fore
SplineSet
176 107 m 1,0,1
 187 107 187 107 187 86 c 0,2,3
 187 30 187 30 179 -30 c 1,4,-1
 45 -29 l 1,5,6
 42 -20 42 -20 42 -9 c 1,7,-1
 25 -9 l 1,8,9
 21 16 21 16 21 52 c 1,10,-1
 23 123 l 1,11,12
 51 135 51 135 95.5 135 c 128,-1,13
 140 135 140 135 165 123 c 1,14,-1
 167 109 l 1,15,16
 167 109 167 109 176 107 c 1,0,1
33 117 m 1,17,-1
 31 47 l 2,18,19
 31 12 31 12 34 1 c 1,20,-1
 37 0 l 1,21,-1
 152 0 l 1,22,-1
 152 2 l 2,23,24
 152 17 152 17 156 94 c 1,25,-1
 158 119 l 1,26,27
 145 125 145 125 97.5 125 c 128,-1,28
 50 125 50 125 33 117 c 1,17,-1
EndSplineSet
EndChar

StartChar: slash
Encoding: 47 47 18
Width: 412
GlyphClass: 2
Flags: W
LayerCount: 2
Fore
SplineSet
426 685 m 1,0,1
 418 669 418 669 418 662.5 c 128,-1,2
 418 656 418 656 372 515 c 1,3,-1
 357 473 l 2,4,5
 341 428 341 428 309.5 334 c 128,-1,6
 278 240 278 240 260 190 c 128,-1,7
 242 140 242 140 237 127 c 2,8,-1
 180 -16 l 1,9,10
 176 -32 176 -32 139 -32 c 1,11,-1
 77 -30 l 2,12,13
 61 -30 61 -30 42 -31 c 0,14,15
 31 -31 31 -31 31 -15 c 2,16,-1
 31 -10 l 1,17,-1
 22 -11 l 1,18,19
 -4 -11 -4 -11 31 71 c 1,20,-1
 39 93 l 1,21,-1
 38 93 l 1,22,23
 58 154 58 154 71 182 c 1,24,-1
 70 181 l 1,25,26
 73 197 73 197 121.5 325 c 128,-1,27
 170 453 170 453 190 515 c 1,28,-1
 189 515 l 1,29,30
 191 522 191 522 205.5 559.5 c 128,-1,31
 220 597 220 597 253 721 c 1,32,33
 270 717 270 717 294 717 c 2,34,35
 294 717 294 717 340 718 c 0,36,37
 379 718 379 718 406 705 c 1,38,-1
 404 701 l 2,39,40
 404 700 404 700 401 694 c 1,41,42
 414 690 414 690 426 685 c 1,0,1
348 708 m 1,43,-1
 290 706 l 2,44,45
 273 706 273 706 261 709 c 1,46,47
 242 637 242 637 228 597 c 128,-1,48
 214 557 214 557 212 554 c 0,49,50
 132 315 132 315 110 259 c 0,51,52
 81 186 81 186 80 178 c 1,53,54
 65 144 65 144 48 90 c 1,55,56
 19 13 19 13 19 6 c 128,-1,57
 19 -1 19 -1 22 -1 c 2,58,-1
 23 -1 l 1,59,60
 46 0 46 0 78 0 c 2,61,-1
 113 0 l 2,62,63
 148 0 148 0 151 7 c 2,64,-1
 208 151 l 2,65,66
 254 268 254 268 316 457.5 c 128,-1,67
 378 647 378 647 383 667 c 0,68,69
 390 695 390 695 393 701 c 1,70,71
 381 708 381 708 348 708 c 1,43,-1
EndSplineSet
EndChar

StartChar: zero
Encoding: 48 48 19
Width: 513
GlyphClass: 2
Flags: W
LayerCount: 2
Fore
SplineSet
19 398 m 0,0,1
 19 533 19 533 73 622 c 1,2,-1
 74 623 l 1,3,4
 102 666 102 666 150 693 c 128,-1,5
 198 720 198 720 260 720 c 128,-1,6
 322 720 322 720 375.5 687 c 128,-1,7
 429 654 429 654 458 601 c 0,8,9
 518 494 518 494 518 377 c 2,10,-1
 518 341 l 2,11,12
 518 212 518 212 460 99 c 0,13,14
 432 43 432 43 382.5 7.5 c 128,-1,15
 333 -28 333 -28 271 -28 c 0,16,17
 163 -28 163 -28 102 46 c 1,18,19
 67 77 67 77 48.5 127.5 c 128,-1,20
 30 178 30 178 27 212.5 c 128,-1,21
 24 247 24 247 21.5 321.5 c 128,-1,22
 19 396 19 396 19 398 c 0,0,1
489 347 m 1,23,-1
 488 373 l 1,24,25
 489 382 489 382 489 417.5 c 128,-1,26
 489 453 489 453 476.5 504.5 c 128,-1,27
 464 556 464 556 438 603.5 c 128,-1,28
 412 651 412 651 365 680.5 c 128,-1,29
 318 710 318 710 260 710 c 128,-1,30
 202 710 202 710 154.5 684.5 c 128,-1,31
 107 659 107 659 82 618 c 0,32,33
 29 534 29 534 29 398 c 0,34,35
 29 173 29 173 66 106 c 0,36,37
 80 80 80 80 108 54 c 0,38,39
 165 1 165 1 258 1 c 0,40,41
 318 1 318 1 364 33.5 c 128,-1,42
 410 66 410 66 436 118 c 0,43,44
 489 223 489 223 489 347 c 1,23,-1
189 230 m 128,-1,46
 177 286 177 286 177 342 c 128,-1,47
 177 398 177 398 179.5 432 c 128,-1,48
 182 466 182 466 190 495 c 0,49,50
 206 552 206 552 254 552 c 0,51,52
 322 552 322 552 322 371 c 0,53,54
 322 262 322 262 314 227 c 1,55,56
 297 166 297 166 254 165 c 0,57,58
 239 165 239 165 231 169 c 1,59,45
 201 174 201 174 189 230 c 128,-1,46
233 179 m 1,60,61
 238 174 238 174 255 174 c 0,62,63
 311 174 311 174 311 313 c 1,64,65
 312 329 312 329 312 371 c 0,66,67
 312 471 312 471 289 518 c 1,68,69
 280 521 280 521 269 521 c 128,-1,70
 258 521 258 521 252.5 520 c 128,-1,71
 247 519 247 519 237 509.5 c 128,-1,72
 227 500 227 500 222 481 c 0,73,74
 208 428 208 428 208 346 c 128,-1,75
 208 264 208 264 222 213 c 1,76,-1
 221 214 l 1,77,-1
 231 179 l 1,78,-1
 233 179 l 1,60,61
93 603 m 1,79,-1
 94 603 l 1,80,-1
 93 602 l 1,81,-1
 93 603 l 1,79,-1
EndSplineSet
EndChar

StartChar: one
Encoding: 49 49 20
Width: 366
GlyphClass: 2
Flags: W
LayerCount: 2
Fore
SplineSet
354 522 m 1,0,-1
 343 68 l 1,1,2
 343 21 343 21 344 -2 c 1,3,4
 344 -30 344 -30 282.5 -30 c 128,-1,5
 221 -30 221 -30 165 -21 c 1,6,-1
 165 -4 l 1,7,8
 157 -4 157 -4 145 -1 c 1,9,-1
 145 105 l 2,10,11
 145 167 145 167 150 282 c 128,-1,12
 155 397 155 397 156 428 c 1,13,14
 150 422 150 422 139 422 c 128,-1,15
 128 422 128 422 70 440.5 c 128,-1,16
 12 459 12 459 12 470 c 0,17,18
 12 473 12 473 13 474 c 1,19,20
 -8 484 -8 484 -8 490 c 0,21,22
 -5 519 -5 519 51 613.5 c 128,-1,23
 107 708 107 708 119 720 c 1,24,25
 137 724 137 724 204.5 724 c 128,-1,26
 272 724 272 724 328 719 c 1,27,-1
 328 708 l 2,28,29
 328 702 328 702 330 702 c 2,30,-1
 340 699 l 1,31,-1
 348 699 l 1,32,33
 354 613 354 613 354 522 c 1,0,-1
313 88 m 1,34,-1
 324 542 l 1,35,36
 324 639 324 639 319 710 c 1,37,38
 271 714 271 714 228 714 c 128,-1,39
 185 714 185 714 123 712 c 1,40,41
 111 700 111 700 58 609 c 128,-1,42
 5 518 5 518 2 489 c 0,43,44
 2 481 2 481 56 466.5 c 128,-1,45
 110 452 110 452 122.5 452 c 128,-1,46
 135 452 135 452 148 479.5 c 128,-1,47
 161 507 161 507 166 507 c 1,48,49
 167 505 167 505 167 498 c 2,50,-1
 167 489 l 2,51,52
 167 424 167 424 161 297 c 128,-1,53
 155 170 155 170 155 105 c 2,54,-1
 155 7 l 1,55,56
 218 0 218 0 253 0 c 0,57,58
 314 0 314 0 314 18 c 1,59,60
 313 29 313 29 313 53 c 2,61,-1
 313 88 l 1,34,-1
EndSplineSet
EndChar

StartChar: two
Encoding: 50 50 21
Width: 498
GlyphClass: 2
Flags: W
LayerCount: 2
Fore
SplineSet
489 73 m 2,0,-1
 488 41 l 1,1,-1
 488 6 l 2,2,3
 488 -7 488 -7 490 -12 c 1,4,5
 490 -25 490 -25 486.5 -25.5 c 128,-1,6
 483 -26 483 -26 482 -26 c 2,7,-1
 476 -26 l 1,8,-1
 96 -31 l 1,9,-1
 47 -31 l 1,10,11
 40 -24 40 -24 40 -18 c 2,12,-1
 40 -11 l 1,13,-1
 27 -11 l 1,14,15
 20 -4 20 -4 20 2 c 0,16,17
 22 24 22 24 22.5 83.5 c 128,-1,18
 23 143 23 143 30 182.5 c 128,-1,19
 37 222 37 222 59 258 c 1,20,21
 97 301 97 301 180.5 353 c 128,-1,22
 264 405 264 405 272 411 c 0,23,24
 304 435 304 435 304 473 c 128,-1,25
 304 511 304 511 280 516 c 1,26,27
 223 516 223 516 215 394 c 1,28,29
 165 386 165 386 117 386 c 128,-1,30
 69 386 69 386 48 392 c 1,31,32
 47 397 47 397 46 399.5 c 128,-1,33
 45 402 45 402 44.5 404 c 128,-1,34
 44 406 44 406 42.5 406.5 c 128,-1,35
 41 407 41 407 39.5 407.5 c 128,-1,36
 38 408 38 408 34.5 409.5 c 128,-1,37
 31 411 31 411 28 412 c 1,38,39
 21 447 21 447 21 485 c 0,40,41
 21 594 21 594 79 658 c 1,42,-1
 79 657 l 1,43,44
 128 721 128 721 262 721 c 0,45,46
 372 721 372 721 437 657 c 128,-1,47
 502 593 502 593 502 488 c 1,48,-1
 503 435 l 2,49,50
 503 387 503 387 483 351 c 128,-1,51
 463 315 463 315 431 293.5 c 128,-1,52
 399 272 399 272 365 256 c 0,53,54
 272 212 272 212 244 178 c 1,55,-1
 234 152 l 1,56,-1
 270 152 l 1,57,-1
 458 155 l 1,58,59
 463 144 463 144 464 135 c 1,60,-1
 478 135 l 1,61,62
 489 105 489 105 489 73 c 2,0,-1
451 145 m 1,63,-1
 263 142 l 2,64,65
 261 142 261 142 251 141.5 c 128,-1,66
 241 141 241 141 234 141.5 c 128,-1,67
 227 142 227 142 218 142 c 0,68,69
 200 144 200 144 200 151 c 0,70,71
 200 195 200 195 238 224 c 0,72,73
 267 245 267 245 311 268 c 2,74,-1
 366 296 l 1,75,76
 473 349 473 349 473 452 c 0,77,78
 473 511 473 511 465.5 552.5 c 128,-1,79
 458 594 458 594 437 633 c 0,80,81
 395 711 395 711 270 711 c 128,-1,82
 145 711 145 711 88 651.5 c 128,-1,83
 31 592 31 592 31 485 c 0,84,85
 31 453 31 453 37 420 c 1,86,-1
 38 418 l 1,87,88
 60 415 60 415 91 415 c 128,-1,89
 122 415 122 415 186 423 c 1,90,-1
 187 425 l 1,91,92
 191 493 191 493 208 518 c 0,93,94
 227 546 227 546 261 546 c 1,95,96
 286 542 286 542 299.5 522 c 128,-1,97
 313 502 313 502 313 474 c 0,98,99
 313 425 313 425 278 403 c 1,100,101
 255 384 255 384 178.5 337.5 c 128,-1,102
 102 291 102 291 65 250 c 1,103,104
 46 218 46 218 39.5 180.5 c 128,-1,105
 33 143 33 143 32.5 84.5 c 128,-1,106
 32 26 32 26 31 13 c 128,-1,107
 30 0 30 0 31 -1 c 1,108,-1
 456 -1 l 1,109,110
 458 2 458 2 460 5 c 1,111,112
 457 16 457 16 457 27 c 2,113,-1
 459 90 l 1,114,115
 459 127 459 127 451 145 c 1,63,-1
EndSplineSet
EndChar

StartChar: three
Encoding: 51 51 22
Width: 492
GlyphClass: 2
Flags: W
LayerCount: 2
Fore
SplineSet
486 399 m 1,0,-1
 481 173 l 1,1,2
 472 -31 472 -31 262 -31 c 0,3,4
 196 -31 196 -31 134 -11 c 1,5,-1
 134 -12 l 1,6,7
 103 -3 103 -3 83 17 c 0,8,9
 41 59 41 59 30.5 94 c 128,-1,10
 20 129 20 129 20 230 c 1,11,12
 28 229 28 229 42 229 c 1,13,-1
 139 238 l 2,14,15
 145 238 145 238 150 238 c 0,16,17
 165 238 165 238 178 217 c 1,18,19
 190 217 190 217 195 205.5 c 128,-1,20
 200 194 200 194 203 191 c 0,21,22
 223 174 223 174 247.5 174 c 128,-1,23
 272 174 272 174 287 194 c 1,24,25
 295 208 295 208 295 224 c 0,26,27
 295 264 295 264 233 264 c 0,28,29
 218 264 218 264 185 257 c 1,30,31
 180 267 180 267 176 279 c 1,32,33
 174 278 174 278 170.5 278 c 128,-1,34
 167 278 167 278 165 277 c 1,35,36
 152 299 152 299 152 336 c 1,37,-1
 155 407 l 2,38,39
 155 423 155 423 154 434 c 1,40,41
 171 440 171 440 209.5 441.5 c 128,-1,42
 248 443 248 443 271 452 c 128,-1,43
 294 461 294 461 294 486 c 128,-1,44
 294 511 294 511 288 514.5 c 128,-1,45
 282 518 282 518 265 518 c 128,-1,46
 248 518 248 518 221.5 500.5 c 128,-1,47
 195 483 195 483 187 460 c 1,48,49
 170 457 170 457 99 457 c 2,50,-1
 51 457 l 1,51,-1
 38 459 l 1,52,-1
 38 477 l 1,53,-1
 18 479 l 1,54,-1
 16 541 l 2,55,56
 16 571 16 571 23 586 c 1,57,-1
 22 585 l 1,58,59
 41 650 41 650 105 684.5 c 128,-1,60
 169 719 169 719 244.5 719 c 128,-1,61
 320 719 320 719 379.5 687.5 c 128,-1,62
 439 656 439 656 469 608 c 1,63,64
 484 582 484 582 484 531 c 2,65,-1
 486 399 l 1,0,-1
41 218 m 1,66,-1
 30 219 l 1,67,-1
 28 218 l 1,68,69
 30 202 30 202 32 167.5 c 128,-1,70
 34 133 34 133 36 118 c 0,71,72
 42 72 42 72 70 44 c 1,73,74
 80 31 80 31 129.5 15 c 128,-1,75
 179 -1 179 -1 242 -1 c 0,76,77
 388 -1 388 -1 435 104 c 0,78,79
 445 125 445 125 447 148 c 128,-1,80
 449 171 449 171 450 191.5 c 128,-1,81
 451 212 451 212 453.5 259.5 c 128,-1,82
 456 307 456 307 456 384 c 128,-1,83
 456 461 456 461 454 551 c 1,84,-1
 454 561 l 2,85,86
 454 631 454 631 394 670 c 128,-1,87
 334 709 334 709 247 709 c 128,-1,88
 160 709 160 709 93 665 c 128,-1,89
 26 621 26 621 26 540 c 1,90,-1
 28 489 l 1,91,-1
 28 487 l 1,92,-1
 60 488 l 1,93,-1
 131 488 l 2,94,95
 155 488 155 488 160 489 c 1,96,97
 168 513 168 513 196.5 530.5 c 128,-1,98
 225 548 225 548 253 548 c 0,99,100
 304 548 304 548 304 489 c 0,101,102
 304 454 304 454 281 443 c 128,-1,103
 258 432 258 432 221 432 c 1,104,-1
 211 433 l 1,105,106
 177 433 177 433 165 428 c 1,107,-1
 165 427 l 1,108,109
 166 420 166 420 166 409 c 2,110,-1
 163 335 l 1,111,112
 163 301 163 301 170 289 c 1,113,114
 187 293 187 293 220 293 c 128,-1,115
 253 293 253 293 279 275.5 c 128,-1,116
 305 258 305 258 305 226 c 128,-1,117
 305 194 305 194 287.5 179 c 128,-1,118
 270 164 270 164 246 164 c 128,-1,119
 222 164 222 164 196 183 c 128,-1,120
 170 202 170 202 162 227 c 1,121,-1
 160 228 l 1,122,-1
 147 228 l 1,123,-1
 41 218 l 1,66,-1
EndSplineSet
EndChar

StartChar: four
Encoding: 52 52 23
Width: 469
GlyphClass: 2
Flags: W
LayerCount: 2
Fore
SplineSet
228 712 m 1,0,-1
 361 715 l 2,1,2
 392 715 392 715 402 713 c 1,3,-1
 402 710 l 1,4,-1
 401 695 l 1,5,6
 406 695 406 695 422 693 c 1,7,-1
 422 688 l 1,8,-1
 421 665 l 2,9,10
 414 523 414 523 414 341 c 2,11,-1
 414 340 l 1,12,-1
 462 338 l 1,13,-1
 461 318 l 1,14,-1
 468 317 l 1,15,-1
 482 318 l 1,16,-1
 476 156 l 1,17,18
 458 150 458 150 443 150 c 2,19,-1
 424 151 l 2,20,21
 416 151 416 151 401 148 c 1,22,-1
 404 148 l 2,23,24
 414 148 414 148 414 139 c 0,25,26
 405 3 405 3 400 -22 c 1,27,28
 391 -33 391 -33 307 -33 c 2,29,-1
 243 -33 l 1,30,31
 239 -29 239 -29 239 -13 c 1,32,-1
 223 -13 l 1,33,34
 218 -8 218 -8 218 26.5 c 128,-1,35
 218 61 218 61 225 147 c 2,36,-1
 226 161 l 1,37,-1
 155 161 l 2,38,39
 40 161 40 161 35 169 c 1,40,41
 33 179 33 179 31 183 c 1,42,43
 15 185 15 185 9 211 c 128,-1,44
 3 237 3 237 3 278 c 128,-1,45
 3 319 3 319 4 326 c 128,-1,46
 5 333 5 333 6 338 c 128,-1,47
 7 343 7 343 10.5 351 c 128,-1,48
 14 359 14 359 16.5 363 c 128,-1,49
 19 367 19 367 26 380 c 0,50,51
 119 552 119 552 228 712 c 1,0,-1
404 331 m 2,52,53
 397 331 397 331 385 329 c 1,54,55
 384 333 384 333 384 362 c 2,56,-1
 392 704 l 1,57,-1
 390 704 l 1,58,59
 385 705 385 705 360.5 705 c 128,-1,60
 336 705 336 705 284 704 c 1,61,-1
 233 702 l 1,62,-1
 232 701 l 1,63,64
 130 549 130 549 46 394 c 0,65,66
 23 351 23 351 14 339 c 1,67,68
 13 328 13 328 13 309 c 0,69,70
 13 223 13 223 24 194 c 1,71,72
 26 192 26 192 127 192 c 128,-1,73
 228 192 228 192 238 189 c 1,74,-1
 226 2 l 1,75,-1
 226 -2 l 2,76,77
 226 -3 226 -3 237 -3 c 0,78,79
 276 -3 276 -3 302.5 -3 c 128,-1,80
 329 -3 329 -3 342 -2 c 1,81,82
 367 -2 367 -2 371 4 c 0,83,84
 372 7 372 7 385 180 c 1,85,86
 388 181 388 181 398 181 c 2,87,-1
 425 180 l 2,88,89
 436 180 436 180 446 183 c 1,90,-1
 452 328 l 1,91,-1
 404 331 l 2,52,53
265 327 m 1,92,93
 260 326 260 326 242 326 c 2,94,-1
 193 326 l 2,95,96
 163 326 163 326 151 327 c 2,97,-1
 133 328 l 1,98,99
 140 344 140 344 199.5 443 c 128,-1,100
 259 542 259 542 267 542 c 0,101,102
 268 542 268 542 268 541 c 2,103,-1
 265 327 l 1,92,93
250 335 m 1,104,-1
 255 336 l 1,105,-1
 257 484 l 1,106,107
 205 394 205 394 178 336 c 1,108,-1
 233 336 l 2,109,110
 240 336 240 336 250 335 c 1,104,-1
EndSplineSet
EndChar

StartChar: five
Encoding: 53 53 24
Width: 503
GlyphClass: 2
Flags: W
LayerCount: 2
Fore
SplineSet
497 646 m 1,0,-1
 490 544 l 1,1,-1
 490 525 l 1,2,3
 441 518 441 518 298 518 c 1,4,5
 299 517 299 517 302 517 c 0,6,7
 402 500 402 500 454 411.5 c 128,-1,8
 506 323 506 323 506 202 c 0,9,10
 506 156 506 156 500 112 c 1,11,12
 484 42 484 42 414.5 1.5 c 128,-1,13
 345 -39 345 -39 254 -39 c 128,-1,14
 163 -39 163 -39 95 14.5 c 128,-1,15
 27 68 27 68 27 156 c 0,16,17
 27 191 27 191 34 226 c 1,18,-1
 195 230 l 1,19,-1
 195 209 l 1,20,-1
 215 209 l 1,21,-1
 216 196 l 2,22,23
 218 166 218 166 235 166 c 0,24,25
 269 166 269 166 288 191.5 c 128,-1,26
 307 217 307 217 307 251 c 0,27,28
 307 306 307 306 273 320 c 1,29,30
 253 324 253 324 222 324 c 1,31,-1
 91 319 l 2,32,33
 67 319 67 319 48 322 c 1,34,-1
 48 339 l 1,35,36
 29 342 29 342 28 342 c 2,37,-1
 26 644 l 1,38,-1
 27 706 l 1,39,40
 30 706 30 706 108 708 c 0,41,42
 303 713 303 713 428 713 c 1,43,-1
 449 714 l 2,44,45
 452 714 452 714 454 713.5 c 128,-1,46
 456 713 456 713 461 712.5 c 128,-1,47
 466 712 466 712 467.5 709.5 c 128,-1,48
 469 707 469 707 471.5 703 c 128,-1,49
 474 699 474 699 475 693 c 1,50,51
 490 690 490 690 493.5 681 c 128,-1,52
 497 672 497 672 497 646 c 1,0,-1
68 349 m 2,53,-1
 199 353 l 2,54,55
 229 353 229 353 256 350 c 1,56,57
 284 341 284 341 300.5 313 c 128,-1,58
 317 285 317 285 317 249 c 128,-1,59
 317 213 317 213 295.5 184.5 c 128,-1,60
 274 156 274 156 235 156 c 0,61,62
 215 156 215 156 200 172.5 c 128,-1,63
 185 189 185 189 185 220 c 2,64,-1
 185 221 l 1,65,-1
 43 221 l 1,66,-1
 43 214 l 1,67,68
 37 180 37 180 37 153 c 0,69,70
 37 74 37 74 95.5 32.5 c 128,-1,71
 154 -9 154 -9 237.5 -9 c 128,-1,72
 321 -9 321 -9 388 29.5 c 128,-1,73
 455 68 455 68 470 134 c 1,74,75
 476 177 476 177 476 229.5 c 128,-1,76
 476 282 476 282 464.5 331.5 c 128,-1,77
 453 381 453 381 429 422.5 c 128,-1,78
 405 464 405 464 360.5 487.5 c 128,-1,79
 316 511 316 511 256 511 c 0,80,81
 228 511 228 511 196 505 c 1,82,-1
 193 507 l 1,83,84
 190 512 190 512 189 524 c 0,85,86
 188 533 188 533 186 547 c 1,87,-1
 213 547 l 2,88,89
 404 547 404 547 460 554 c 1,90,-1
 460 565 l 1,91,92
 464 596 464 596 464 663 c 2,93,-1
 464 690 l 2,94,95
 464 702 464 702 461 702.5 c 128,-1,96
 458 703 458 703 456.5 703.5 c 128,-1,97
 455 704 455 704 452 704 c 2,98,-1
 435 703 l 2,99,100
 429 703 429 703 403 703 c 128,-1,101
 377 703 377 703 283.5 701.5 c 128,-1,102
 190 700 190 700 114.5 698 c 128,-1,103
 39 696 39 696 37 696 c 2,104,-1
 36 696 l 1,105,-1
 38 443 l 1,106,-1
 38 351 l 2,107,108
 38 349 38 349 68 349 c 2,53,-1
EndSplineSet
EndChar

StartChar: six
Encoding: 54 54 25
Width: 503
GlyphClass: 2
Flags: W
LayerCount: 2
Fore
SplineSet
511 184 m 1,0,-1
 512 166 l 1,1,2
 512 70 512 70 439 18.5 c 128,-1,3
 366 -33 366 -33 265 -33 c 128,-1,4
 164 -33 164 -33 112 27 c 1,5,6
 22 103 22 103 22 341 c 1,7,-1
 30 518 l 1,8,9
 30 564 30 564 42 589 c 0,10,11
 69 650 69 650 139.5 684 c 128,-1,12
 210 718 210 718 293.5 718 c 128,-1,13
 377 718 377 718 436.5 654 c 128,-1,14
 496 590 496 590 496 512 c 0,15,16
 496 490 496 490 488 456 c 1,17,18
 443 449 443 449 336 449 c 1,19,-1
 334 469 l 1,20,-1
 316 469 l 1,21,22
 316 533 316 533 289 533 c 0,23,24
 258 533 258 533 243.5 503.5 c 128,-1,25
 229 474 229 474 229 435 c 128,-1,26
 229 396 229 396 234 351 c 1,27,28
 280 369 280 369 342.5 369 c 128,-1,29
 405 369 405 369 452.5 319.5 c 128,-1,30
 500 270 500 270 509 208 c 1,31,-1
 511 184 l 1,0,-1
204 338 m 1,32,-1
 199 450 l 1,33,34
 199 497 199 497 215.5 529.5 c 128,-1,35
 232 562 232 562 268 562 c 0,36,37
 319 562 319 562 326 479 c 1,38,-1
 328 478 l 1,39,40
 339 479 339 479 388 480 c 128,-1,41
 437 481 437 481 460 485 c 1,42,43
 466 509 466 509 466 532 c 0,44,45
 466 604 466 604 417 656 c 128,-1,46
 368 708 368 708 289.5 708 c 128,-1,47
 211 708 211 708 135 670.5 c 128,-1,48
 59 633 59 633 46 571 c 1,49,50
 38 545 38 545 38 489 c 1,51,52
 32 418 32 418 32 342 c 128,-1,53
 32 266 32 266 40.5 209.5 c 128,-1,54
 49 153 49 153 70 102 c 0,55,56
 115 -4 115 -4 242 -4 c 0,57,58
 343 -4 343 -4 412.5 43 c 128,-1,59
 482 90 482 90 482 180 c 0,60,61
 482 195 482 195 481 203 c 2,62,-1
 479 227 l 1,63,64
 473 284 473 284 435.5 321.5 c 128,-1,65
 398 359 398 359 331 359 c 128,-1,66
 264 359 264 359 204 325 c 1,67,-1
 204 338 l 1,32,-1
362 204 m 2,68,-1
 362 191 l 1,69,70
 358 173 358 173 339 161.5 c 128,-1,71
 320 150 320 150 298.5 150 c 128,-1,72
 277 150 277 150 262 162.5 c 128,-1,73
 247 175 247 175 247 197.5 c 128,-1,74
 247 220 247 220 270.5 235 c 128,-1,75
 294 250 294 250 316 250 c 128,-1,76
 338 250 338 250 350 237.5 c 128,-1,77
 362 225 362 225 362 204 c 2,68,-1
352 204 m 2,78,79
 352 212 352 212 349 219 c 1,80,-1
 338 219 l 2,81,82
 318 219 318 219 297.5 207 c 128,-1,83
 277 195 277 195 277 175 c 0,84,85
 277 159 277 159 295.5 159 c 128,-1,86
 314 159 314 159 330 168.5 c 128,-1,87
 346 178 346 178 352 191 c 1,88,-1
 352 204 l 2,78,79
EndSplineSet
EndChar

StartChar: seven
Encoding: 55 55 26
Width: 476
GlyphClass: 2
Flags: W
LayerCount: 2
Fore
SplineSet
81 541 m 1,0,-1
 44 540 l 1,1,-1
 32 551 l 1,2,3
 32 558 32 558 33 560 c 1,4,-1
 24 560 l 1,5,-1
 12 571 l 1,6,7
 17 605 17 605 17 717 c 1,8,9
 164 722 164 722 279.5 722 c 128,-1,10
 395 722 395 722 473 713 c 1,11,12
 471 707 471 707 471 695 c 1,13,14
 479 695 479 695 493 693 c 1,15,16
 491 663 491 663 491 646 c 2,17,-1
 493 543 l 1,18,19
 443 428 443 428 330 225.5 c 128,-1,20
 217 23 217 23 194 -23 c 1,21,-1
 84 -28 l 1,22,23
 46 -28 46 -28 22 -20 c 1,24,-1
 28 -5 l 1,25,26
 12 -3 12 -3 2 0 c 1,27,28
 28 56 28 56 119 243.5 c 128,-1,29
 210 431 210 431 256 534 c 1,30,31
 123 541 123 541 81 541 c 1,0,-1
463 565 m 1,32,-1
 461 664 l 2,33,34
 461 689 461 689 462 704 c 1,35,-1
 462 705 l 1,36,37
 384 712 384 712 273 712 c 128,-1,38
 162 712 162 712 27 707 c 1,39,-1
 27 706 l 1,40,41
 24 588 24 588 22 570 c 1,42,-1
 24 570 l 1,43,-1
 61 571 l 2,44,45
 66 571 66 571 279 561 c 1,46,47
 234 458 234 458 141 267 c 128,-1,48
 48 76 48 76 16 7 c 1,49,50
 32 2 32 2 64 2 c 1,51,-1
 168 7 l 1,52,53
 199 67 199 67 308 263 c 128,-1,54
 417 459 417 459 463 565 c 1,32,-1
EndSplineSet
EndChar

StartChar: eight
Encoding: 56 56 27
Width: 490
GlyphClass: 2
Flags: W
LayerCount: 2
Fore
SplineSet
491 523 m 1,0,-1
 493 503 l 1,1,-1
 493 475 l 2,2,3
 493 455 493 455 488 441 c 1,4,-1
 489 442 l 1,5,6
 472 370 472 370 422 325 c 1,7,-1
 425 322 l 1,8,9
 490 266 490 266 490 172 c 128,-1,10
 490 78 490 78 431.5 18 c 128,-1,11
 373 -42 373 -42 262 -42 c 128,-1,12
 151 -42 151 -42 82.5 26.5 c 128,-1,13
 14 95 14 95 14 192.5 c 128,-1,14
 14 290 14 290 73 352 c 1,15,16
 23 411 23 411 23 497 c 128,-1,17
 23 583 23 583 71.5 648.5 c 128,-1,18
 120 714 120 714 200 718 c 0,19,20
 224 719 224 719 263 719 c 0,21,22
 342 719 342 719 388 693 c 1,23,-1
 402 684 l 2,24,25
 408 680 408 680 409 679 c 128,-1,26
 410 678 410 678 415 674 c 128,-1,27
 420 670 420 670 423 667.5 c 128,-1,28
 426 665 426 665 431.5 659 c 128,-1,29
 437 653 437 653 441 647.5 c 128,-1,30
 445 642 445 642 452 634 c 0,31,32
 480 596 480 596 491 523 c 1,0,-1
463 495 m 2,33,-1
 463 523 l 2,34,35
 463 624 463 624 383 685 c 1,36,37
 341 709 341 709 263 709 c 0,38,39
 224 709 224 709 200 708 c 0,40,41
 124 704 124 704 78.5 641.5 c 128,-1,42
 33 579 33 579 33 494 c 128,-1,43
 33 409 33 409 87 352 c 1,44,45
 24 289 24 289 24 195 c 128,-1,46
 24 101 24 101 82.5 44.5 c 128,-1,47
 141 -12 141 -12 245.5 -12 c 128,-1,48
 350 -12 350 -12 405 45 c 128,-1,49
 460 102 460 102 460 196.5 c 128,-1,50
 460 291 460 291 386 345 c 1,51,-1
 386 346 l 1,52,53
 463 409 463 409 463 495 c 2,33,-1
243 173 m 0,54,55
 186 173 186 173 186 218 c 0,56,57
 186 241 186 241 200.5 259 c 128,-1,58
 215 277 215 277 238 277 c 128,-1,59
 261 277 261 277 281.5 262 c 128,-1,60
 302 247 302 247 302 224 c 2,61,-1
 302 219 l 2,62,63
 302 193 302 193 278 180 c 0,64,65
 265 173 265 173 243 173 c 0,54,55
194 496 m 1,66,-1
 195 504 l 1,67,-1
 195 506 l 1,68,-1
 196 507 l 1,69,70
 205 531 205 531 246 531 c 0,71,72
 268 531 268 531 279.5 518 c 128,-1,73
 291 505 291 505 291 486 c 128,-1,74
 291 467 291 467 279 452 c 128,-1,75
 267 437 267 437 244 437 c 128,-1,76
 221 437 221 437 207.5 455 c 128,-1,77
 194 473 194 473 194 496 c 1,66,-1
291 214 m 1,78,79
 292 217 292 217 292 219 c 0,80,81
 292 247 292 247 256 247 c 0,82,83
 248 247 248 247 245 246 c 1,84,-1
 246 247 l 1,85,86
 232 242 232 242 224 228 c 128,-1,87
 216 214 216 214 216 203.5 c 128,-1,88
 216 193 216 193 217 190 c 128,-1,89
 218 187 218 187 220 186 c 1,90,91
 223 182 223 182 229 182 c 0,92,93
 268 182 268 182 278 190 c 0,94,95
 279 191 279 191 284 198.5 c 128,-1,96
 289 206 289 206 291 212 c 1,97,-1
 291 214 l 1,78,79
224 468 m 1,98,99
 228 447 228 447 244.5 447 c 128,-1,100
 261 447 261 447 271 458.5 c 128,-1,101
 281 470 281 470 281 482.5 c 128,-1,102
 281 495 281 495 277.5 497.5 c 128,-1,103
 274 500 274 500 255.5 500 c 128,-1,104
 237 500 237 500 234 491 c 0,105,106
 234 490 234 490 230 488 c 1,107,-1
 224 468 l 1,98,99
EndSplineSet
EndChar

StartChar: nine
Encoding: 57 57 28
Width: 513
GlyphClass: 2
Flags: W
LayerCount: 2
Fore
SplineSet
313 495 m 2,0,1
 313 519 313 519 282 519 c 0,2,3
 264 519 264 519 247.5 509.5 c 128,-1,4
 231 500 231 500 231 484 c 128,-1,5
 231 468 231 468 232 461 c 0,6,7
 236 444 236 444 259 444 c 128,-1,8
 282 444 282 444 291.5 452.5 c 128,-1,9
 301 461 301 461 313 486 c 1,10,-1
 313 495 l 2,0,1
506 303 m 1,11,-1
 510 218 l 1,12,13
 510 110 510 110 451 25 c 1,14,15
 401 -34 401 -34 289.5 -34 c 128,-1,16
 178 -34 178 -34 98 28.5 c 128,-1,17
 18 91 18 91 18 183 c 0,18,19
 18 212 18 212 20 219 c 1,20,-1
 20 232 l 1,21,-1
 143 237 l 1,22,23
 170 237 170 237 195 233 c 1,24,25
 200 213 200 213 215 213 c 1,26,27
 223 187 223 187 245 187 c 0,28,29
 287 187 287 187 293 260 c 1,30,31
 273 256 273 256 249 256 c 0,32,33
 152 256 152 256 85 328 c 128,-1,34
 18 400 18 400 18 503 c 0,35,36
 18 621 18 621 92 670 c 0,37,38
 160 715 160 715 256 719 c 1,39,40
 358 719 358 719 394 702 c 0,41,42
 440 681 440 681 468 638 c 1,43,-1
 468 639 l 1,44,45
 497 592 497 592 502 522 c 0,46,47
 503 496 503 496 504 451 c 2,48,-1
 506 303 l 1,11,-1
263 434 m 0,49,50
 223 434 223 434 208 466 c 1,51,-1
 208 467 l 1,52,53
 201 482 201 482 201 503 c 128,-1,54
 201 524 201 524 221 536.5 c 128,-1,55
 241 549 241 549 264.5 549 c 128,-1,56
 288 549 288 549 305.5 533.5 c 128,-1,57
 323 518 323 518 323 501 c 128,-1,58
 323 484 323 484 319 475.5 c 128,-1,59
 315 467 315 467 310.5 458.5 c 128,-1,60
 306 450 306 450 293.5 442 c 128,-1,61
 281 434 281 434 263 434 c 0,49,50
479 234 m 1,62,-1
 476 323 l 1,63,-1
 474 471 l 2,64,65
 472 556 472 556 463.5 593.5 c 128,-1,66
 455 631 455 631 442.5 649.5 c 128,-1,67
 430 668 430 668 416.5 678.5 c 128,-1,68
 403 689 403 689 390.5 694.5 c 128,-1,69
 378 700 378 700 357.5 703 c 128,-1,70
 337 706 337 706 326 707 c 0,71,72
 303 709 303 709 256 709 c 1,73,74
 164 705 164 705 100 662 c 0,75,76
 28 613 28 613 28 509.5 c 128,-1,77
 28 406 28 406 86 346 c 128,-1,78
 144 286 144 286 229 286 c 0,79,80
 266 286 266 286 302 301 c 1,81,-1
 303 300 l 1,82,-1
 304 279 l 1,83,84
 304 177 304 177 244 177 c 0,85,86
 223 177 223 177 207.5 190 c 128,-1,87
 192 203 192 203 187 224 c 1,88,89
 165 227 165 227 140 227 c 1,90,-1
 30 222 l 1,91,-1
 30 217 l 1,92,93
 27 199 27 199 27 182 c 0,94,95
 27 96 27 96 97.5 46 c 128,-1,96
 168 -4 168 -4 272 -4 c 128,-1,97
 376 -4 376 -4 427 57 c 1,98,99
 479 131 479 131 479 234 c 1,62,-1
EndSplineSet
EndChar

StartChar: colon
Encoding: 58 58 29
Width: 205
GlyphClass: 2
Flags: W
LayerCount: 2
Fore
SplineSet
184 443 m 1,0,1
 195 443 195 443 195 422 c 0,2,3
 195 366 195 366 187 306 c 1,4,-1
 53 307 l 1,5,6
 50 316 50 316 50 327 c 1,7,-1
 33 327 l 1,8,9
 29 352 29 352 29 388 c 1,10,-1
 31 459 l 1,11,12
 59 471 59 471 103.5 471 c 128,-1,13
 148 471 148 471 173 459 c 1,14,-1
 175 445 l 1,15,16
 175 445 175 445 184 443 c 1,0,1
184 107 m 1,17,18
 195 107 195 107 195 86 c 0,19,20
 195 30 195 30 187 -30 c 1,21,-1
 53 -29 l 1,22,23
 50 -20 50 -20 50 -9 c 1,24,-1
 33 -9 l 1,25,26
 29 16 29 16 29 52 c 1,27,-1
 31 123 l 1,28,29
 59 135 59 135 103.5 135 c 128,-1,30
 148 135 148 135 173 123 c 1,31,-1
 175 109 l 1,32,-1
 184 107 l 1,17,18
41 453 m 1,33,-1
 39 383 l 2,34,35
 39 348 39 348 42 337 c 1,36,-1
 45 337 l 1,37,-1
 158 336 l 1,38,-1
 160 336 l 1,39,-1
 160 338 l 2,40,41
 160 353 160 353 164 430 c 1,42,-1
 166 455 l 1,43,44
 153 461 153 461 105.5 461 c 128,-1,45
 58 461 58 461 41 453 c 1,33,-1
41 117 m 1,46,-1
 39 47 l 2,47,48
 39 12 39 12 42 1 c 1,49,-1
 45 0 l 1,50,-1
 160 0 l 1,51,-1
 160 2 l 2,52,53
 160 17 160 17 164 94 c 1,54,-1
 166 119 l 1,55,56
 152 125 152 125 105 125 c 128,-1,57
 58 125 58 125 41 117 c 1,46,-1
EndSplineSet
EndChar

StartChar: semicolon
Encoding: 59 59 30
Width: 205
GlyphClass: 2
Flags: W
LayerCount: 2
Fore
SplineSet
189 -19 m 1,0,-1
 177 -85 l 1,1,-1
 167 -135 l 1,2,3
 152 -128 152 -128 128 -128 c 2,4,-1
 86 -128 l 1,5,6
 81 -123 81 -123 81 -113 c 2,7,-1
 81 -108 l 1,8,-1
 66 -108 l 1,9,10
 61 -103 61 -103 61 -93.5 c 128,-1,11
 61 -84 61 -84 75 -28 c 1,12,13
 71 -26 71 -26 67 -27 c 0,14,15
 56 -30 56 -30 50 -17 c 1,16,-1
 50 -7 l 1,17,-1
 42 -7 l 2,18,19
 30 -7 30 -7 30 10 c 0,20,21
 30 52 30 52 35 127 c 1,22,23
 57 135 57 135 78.5 135 c 128,-1,24
 100 135 100 135 177 128 c 1,25,-1
 176 109 l 1,26,-1
 197 108 l 1,27,-1
 189 -19 l 1,0,-1
195 422 m 1,28,-1
 187 306 l 1,29,-1
 53 307 l 1,30,31
 50 316 50 316 50 327 c 1,32,-1
 33 327 l 1,33,34
 29 352 29 352 29 388 c 1,35,-1
 31 459 l 1,36,37
 59 471 59 471 103.5 471 c 128,-1,38
 148 471 148 471 173 459 c 1,39,-1
 175 445 l 1,40,-1
 184 443 l 1,41,42
 195 443 195 443 195 422 c 1,28,-1
155 -21 m 1,43,-1
 159 1 l 1,44,-1
 160 4 l 1,45,-1
 162 4 l 1,46,-1
 162 119 l 1,47,48
 103 125 103 125 81.5 125 c 128,-1,49
 60 125 60 125 45 120 c 1,50,-1
 44 119 l 1,51,52
 40 53 40 53 40 8 c 2,53,-1
 40 4 l 1,54,55
 41 3 41 3 43 3 c 2,56,-1
 90 -1 l 1,57,-1
 69 -96 l 2,58,59
 69 -99 69 -99 88 -99 c 128,-1,60
 107 -99 107 -99 119 -98.5 c 128,-1,61
 131 -98 131 -98 139 -100 c 1,62,63
 141 -93 141 -93 143 -80 c 128,-1,64
 145 -67 145 -67 147 -61 c 2,65,-1
 155 -21 l 1,43,-1
41 453 m 1,66,-1
 39 383 l 2,67,68
 39 348 39 348 42 337 c 1,69,-1
 158 337 l 1,70,-1
 160 336 l 1,71,-1
 160 338 l 2,72,73
 160 353 160 353 164 430 c 1,74,-1
 166 455 l 1,75,76
 153 461 153 461 105.5 461 c 128,-1,77
 58 461 58 461 41 453 c 1,66,-1
EndSplineSet
EndChar

StartChar: less
Encoding: 60 60 31
Width: 363
GlyphClass: 2
Flags: W
LayerCount: 2
Fore
SplineSet
356 91 m 1,0,-1
 378 73 l 1,1,-1
 359 56 l 1,2,-1
 343 40 l 2,3,4
 319 16 319 16 283 -14 c 1,5,-1
 263 6 l 1,6,7
 261 6 261 6 261 8 c 1,8,9
 241 27 241 27 179 80.5 c 128,-1,10
 117 134 117 134 76.5 176.5 c 128,-1,11
 36 219 36 219 0 270 c 1,12,13
 45 327 45 327 110 392 c 2,14,-1
 199 481 l 1,15,16
 216 500 216 500 257 541 c 1,17,18
 271 533 271 533 307 497 c 2,19,-1
 320 484 l 2,20,21
 334 470 334 470 348 461 c 1,22,23
 346 459 346 459 346 458 c 0,24,25
 357 447 357 447 368 441 c 1,26,27
 338 404 338 404 277 340.5 c 128,-1,28
 216 277 216 277 193 249 c 1,29,30
 316 126 316 126 358 93 c 1,31,-1
 356 91 l 1,0,-1
332 83 m 1,32,-1
 343 93 l 1,33,34
 308 121 308 121 247 182 c 128,-1,35
 186 243 186 243 158 267 c 1,36,37
 184 300 184 300 249.5 367.5 c 128,-1,38
 315 435 315 435 334 459 c 1,39,40
 323 466 323 466 297 493.5 c 128,-1,41
 271 521 271 521 258 528 c 1,42,43
 192 458 192 458 153 419 c 2,44,-1
 103 368 l 2,45,46
 42 307 42 307 13 270 c 1,47,48
 57 210 57 210 152 124 c 0,49,50
 236 48 236 48 265 19 c 1,51,52
 285 36 285 36 303 54 c 2,53,-1
 332 83 l 1,32,-1
EndSplineSet
EndChar

StartChar: equal
Encoding: 61 61 32
Width: 466
GlyphClass: 2
Flags: W
LayerCount: 2
Fore
SplineSet
31 326 m 1,0,-1
 34 473 l 1,1,-1
 433 473 l 1,2,-1
 433 453 l 1,3,-1
 453 453 l 1,4,-1
 451 365 l 2,5,6
 451 335 451 335 456 290 c 1,7,-1
 61 296 l 1,8,-1
 51 306 l 1,9,-1
 51 316 l 1,10,-1
 41 316 l 1,11,-1
 31 326 l 1,0,-1
31 119 m 1,12,-1
 34 266 l 1,13,-1
 433 266 l 1,14,-1
 433 246 l 1,15,-1
 453 246 l 1,16,-1
 451 158 l 2,17,18
 451 128 451 128 456 83 c 1,19,-1
 61 89 l 1,20,-1
 51 99 l 1,21,-1
 51 109 l 1,22,-1
 41 109 l 1,23,-1
 31 119 l 1,12,-1
44 256 m 1,24,-1
 41 119 l 1,25,-1
 391 113 l 1,26,-1
 426 113 l 1,27,28
 422 138 422 138 422 171 c 2,29,-1
 423 256 l 1,30,-1
 44 256 l 1,24,-1
44 463 m 1,31,-1
 41 326 l 1,32,-1
 391 320 l 1,33,-1
 426 320 l 1,34,35
 422 345 422 345 422 378 c 2,36,-1
 423 463 l 1,37,-1
 44 463 l 1,31,-1
EndSplineSet
EndChar

StartChar: greater
Encoding: 62 62 33
Width: 363
GlyphClass: 2
Flags: W
LayerCount: 2
Fore
SplineSet
24 76 m 1,0,-1
 5 94 l 1,1,2
 40 123 40 123 102 183.5 c 128,-1,3
 164 244 164 244 191 268 c 1,4,5
 177 284 177 284 112 352 c 128,-1,6
 47 420 47 420 15 461 c 1,7,8
 32 471 32 471 59.5 500 c 128,-1,9
 87 529 87 529 106 540 c 1,10,-1
 126 520 l 2,11,12
 134 512 134 512 154 491.5 c 128,-1,13
 174 471 174 471 186 458.5 c 128,-1,14
 198 446 198 446 252 392 c 1,15,16
 273 368 273 368 318 321.5 c 128,-1,17
 363 275 363 275 383 250 c 1,18,19
 333 184 333 184 232.5 92 c 128,-1,20
 132 0 132 0 118 -15 c 1,21,22
 56 38 56 38 51 45.5 c 128,-1,23
 46 53 46 53 42 57 c 2,24,-1
 24 76 l 1,0,-1
20 93 m 1,25,-1
 47 67 l 2,26,27
 74 40 74 40 98 19 c 1,28,29
 118 39 118 39 211.5 125 c 128,-1,30
 305 211 305 211 350 270 c 1,31,32
 321 307 321 307 260 368 c 2,33,-1
 210 419 l 2,34,35
 171 458 171 458 105 528 c 1,36,37
 93 521 93 521 66 493.5 c 128,-1,38
 39 466 39 466 29 459 c 1,39,40
 49 433 49 433 114 365.5 c 128,-1,41
 179 298 179 298 205 267 c 1,42,43
 177 243 177 243 116 182 c 128,-1,44
 55 121 55 121 20 93 c 1,25,-1
EndSplineSet
EndChar

StartChar: question
Encoding: 63 63 34
Width: 451
GlyphClass: 2
Flags: W
LayerCount: 2
Fore
SplineSet
27 488 m 1,0,1
 12 488 12 488 6 490 c 1,2,3
 10 576 10 576 68.5 644.5 c 128,-1,4
 127 713 127 713 212 717 c 0,5,6
 219 718 219 718 233 718 c 0,7,8
 322 718 322 718 391.5 654 c 128,-1,9
 461 590 461 590 461 508 c 0,10,11
 461 443 461 443 410 377 c 0,12,13
 400 364 400 364 378.5 340.5 c 128,-1,14
 357 317 357 317 351 310 c 1,15,16
 300 232 300 232 300 171 c 0,17,18
 300 163 300 163 303 151 c 1,19,20
 272 147 272 147 238 147 c 2,21,-1
 162 147 l 1,22,23
 154 155 154 155 152 167 c 1,24,-1
 142 167 l 1,25,26
 132 177 132 177 132 199 c 1,27,-1
 134 239 l 1,28,29
 142 289 142 289 158 327 c 128,-1,30
 174 365 174 365 208 410 c 1,31,32
 217 419 217 419 224.5 431 c 128,-1,33
 232 443 232 443 238.5 453 c 128,-1,34
 245 463 245 463 248 468 c 128,-1,35
 251 473 251 473 254 481 c 0,36,37
 261 496 261 496 261 507 c 0,38,39
 261 526 261 526 231 526 c 0,40,41
 213 526 213 526 195 499.5 c 128,-1,42
 177 473 177 473 159 466 c 1,43,44
 133 464 133 464 111.5 464 c 128,-1,45
 90 464 90 464 26 470 c 1,46,47
 26 481 26 481 27 488 c 1,0,1
16 498 m 1,48,-1
 104 494 l 2,49,50
 114 494 114 494 138 496 c 1,51,52
 150 501 150 501 169 529 c 128,-1,53
 188 557 188 557 212.5 557 c 128,-1,54
 237 557 237 557 253.5 541 c 128,-1,55
 270 525 270 525 270 506 c 128,-1,56
 270 487 270 487 253.5 459 c 128,-1,57
 237 431 237 431 213.5 400 c 128,-1,58
 190 369 190 369 183 356 c 1,59,60
 157 318 157 318 144 237 c 1,61,-1
 142 199 l 1,62,-1
 142 187 l 2,63,64
 142 181 142 181 146 177 c 1,65,-1
 147 177 l 1,66,67
 156 178 156 178 174 178 c 2,68,-1
 230 177 l 2,69,70
 261 177 261 177 270 179 c 1,71,-1
 270 180 l 1,72,73
 269 182 269 182 269 191.5 c 128,-1,74
 269 201 269 201 274 214 c 1,75,76
 288 287 288 287 323 336 c 0,77,78
 332 348 332 348 355.5 374.5 c 128,-1,79
 379 401 379 401 393 418.5 c 128,-1,80
 407 436 407 436 419 467 c 128,-1,81
 431 498 431 498 431 532 c 0,82,83
 431 606 431 606 373.5 657 c 128,-1,84
 316 708 316 708 229 708 c 128,-1,85
 142 708 142 708 81 646.5 c 128,-1,86
 20 585 20 585 16 499 c 1,87,-1
 16 498 l 1,48,-1
154 -29 m 1,88,89
 154 -21 154 -21 151 -9 c 1,90,-1
 134 -9 l 1,91,92
 130 16 130 16 130 52 c 1,93,-1
 132 123 l 1,94,95
 160 135 160 135 204 135 c 128,-1,96
 248 135 248 135 274 123 c 1,97,-1
 276 109 l 1,98,-1
 284 107 l 1,99,100
 296 107 296 107 296 86 c 0,101,102
 296 30 296 30 288 -30 c 1,103,-1
 154 -29 l 1,88,89
142 117 m 1,104,-1
 140 47 l 2,105,106
 140 12 140 12 143 1 c 1,107,-1
 146 0 l 1,108,-1
 261 0 l 1,109,-1
 261 2 l 2,110,111
 261 17 261 17 266 94 c 1,112,-1
 267 119 l 1,113,114
 254 125 254 125 206.5 125 c 128,-1,115
 159 125 159 125 142 117 c 1,104,-1
EndSplineSet
EndChar

StartChar: at
Encoding: 64 64 35
Width: 564
GlyphClass: 2
Flags: W
LayerCount: 2
Fore
SplineSet
563 360 m 2,0,-1
 563 306 l 2,1,2
 563 233 563 233 550.5 194 c 128,-1,3
 538 155 538 155 498 137 c 1,4,-1
 509 112 l 1,5,6
 510 114 510 114 513 115 c 128,-1,7
 516 116 516 116 518 117 c 1,8,-1
 563 19 l 1,9,10
 452 -53 452 -53 310 -53 c 128,-1,11
 168 -53 168 -53 110 17 c 1,12,13
 76 42 76 42 63.5 72.5 c 128,-1,14
 51 103 51 103 44.5 119 c 128,-1,15
 38 135 38 135 34 163.5 c 128,-1,16
 30 192 30 192 27.5 206 c 128,-1,17
 25 220 25 220 24 253.5 c 128,-1,18
 23 287 23 287 23 296 c 2,19,-1
 23 406 l 2,20,21
 23 529 23 529 75 596 c 1,22,23
 102 629 102 629 138.5 644 c 128,-1,24
 175 659 175 659 208.5 664 c 128,-1,25
 242 669 242 669 280 669 c 0,26,27
 411 669 411 669 477 609 c 1,28,-1
 497 589 l 1,29,30
 538 550 538 550 550.5 492.5 c 128,-1,31
 563 435 563 435 563 360 c 2,0,-1
403 371 m 1,32,-1
 405 432 l 2,33,34
 405 455 405 455 392 464 c 0,35,36
 369 479 369 479 333 479 c 0,37,38
 248 479 248 479 206 425.5 c 128,-1,39
 164 372 164 372 164 307 c 128,-1,40
 164 242 164 242 191 201 c 128,-1,41
 218 160 218 160 272 160 c 128,-1,42
 326 160 326 160 359 187 c 1,43,-1
 369 174 l 1,44,-1
 377 167 l 1,45,46
 399 154 399 154 418 154 c 0,47,48
 487 154 487 154 510 196.5 c 128,-1,49
 533 239 533 239 533 326 c 2,50,-1
 533 380 l 2,51,52
 533 428 533 428 529 462 c 128,-1,53
 525 496 525 496 510.5 536 c 128,-1,54
 496 576 496 576 469.5 601 c 128,-1,55
 443 626 443 626 395 642.5 c 128,-1,56
 347 659 347 659 280 659 c 0,57,58
 136 659 136 659 84.5 592 c 128,-1,59
 33 525 33 525 33 406 c 2,60,-1
 33 376 l 2,61,62
 33 290 33 290 40 195 c 0,63,64
 42 165 42 165 57 121.5 c 128,-1,65
 72 78 72 78 90 53 c 0,66,67
 123 9 123 9 172 -7 c 128,-1,68
 221 -23 221 -23 293 -23 c 0,69,70
 429 -23 429 -23 531 42 c 1,71,-1
 493 124 l 1,72,73
 446 101 446 101 387.5 85 c 128,-1,74
 329 69 329 69 292 69 c 0,75,76
 192 69 192 69 159 127.5 c 128,-1,77
 126 186 126 186 126 327 c 2,78,-1
 126 349 l 2,79,80
 126 472 126 472 162 523 c 0,81,82
 176 544 176 544 204 559 c 128,-1,83
 232 574 232 574 279.5 574 c 128,-1,84
 327 574 327 574 368 555 c 1,85,86
 433 517 433 517 439 408 c 1,87,-1
 439 380 l 1,88,-1
 440 339 l 1,89,90
 440 249 440 249 424 237 c 1,91,92
 403 241 403 241 403 341 c 2,93,-1
 403 371 l 1,32,-1
420 452 m 1,94,95
 420 450 420 450 422 449 c 128,-1,96
 424 448 424 448 424 446 c 1,97,98
 415 503 415 503 384 526 c 1,99,100
 343 544 343 544 295.5 544 c 128,-1,101
 248 544 248 544 220 527 c 128,-1,102
 192 510 192 510 179 478 c 0,103,104
 156 423 156 423 156 342 c 1,105,106
 163 394 163 394 198 433 c 1,107,-1
 198 432 l 1,108,109
 216 455 216 455 254.5 472 c 128,-1,110
 293 489 293 489 332.5 489 c 128,-1,111
 372 489 372 489 397 472 c 1,112,-1
 400 472 l 1,113,114
 413 454 413 454 417 452 c 1,115,-1
 420 452 l 1,94,95
292 79 m 1,116,-1
 309 80 l 1,117,-1
 320 80 l 1,118,119
 354 82 354 82 406 99 c 128,-1,120
 458 116 458 116 498 137 c 1,121,122
 473 124 473 124 436.5 124 c 128,-1,123
 400 124 400 124 377 153 c 1,124,125
 345 130 345 130 293 130 c 128,-1,126
 241 130 241 130 205 169 c 1,127,-1
 185 189 l 1,128,129
 163 213 163 213 157 252 c 1,130,131
 165 111 165 111 198 96 c 1,132,-1
 198 97 l 1,133,134
 227 79 227 79 292 79 c 1,116,-1
249 286 m 2,135,-1
 249 289 l 2,136,137
 249 383 249 383 307 383 c 0,138,139
 316 383 316 383 323 382 c 1,140,141
 323 380 323 380 323 366 c 128,-1,142
 323 352 323 352 322 337 c 128,-1,143
 321 322 321 322 318 300 c 0,144,145
 310 254 310 254 277 254 c 0,146,147
 265 254 265 254 257 263 c 128,-1,148
 249 272 249 272 249 286 c 2,135,-1
279 273 m 2,149,-1
 279 264 l 1,150,151
 292 264 292 264 299 274 c 128,-1,152
 306 284 306 284 307 295 c 128,-1,153
 308 306 308 306 309 324 c 128,-1,154
 310 342 310 342 311 350 c 1,155,156
 279 339 279 339 279 273 c 2,149,-1
EndSplineSet
EndChar

StartChar: A
Encoding: 65 65 36
Width: 434
GlyphClass: 2
Flags: W
LayerCount: 2
Fore
SplineSet
293 694 m 1,0,-1
 308 696 l 1,1,2
 308 693 308 693 392 333 c 1,3,-1
 469 -28 l 1,4,5
 429 -35 429 -35 394 -35 c 128,-1,6
 359 -35 359 -35 315 -25 c 1,7,8
 314 -21 314 -21 312.5 -18.5 c 128,-1,9
 311 -16 311 -16 310.5 -14 c 128,-1,10
 310 -12 310 -12 308.5 -11 c 128,-1,11
 307 -10 307 -10 306.5 -9 c 128,-1,12
 306 -8 306 -8 304.5 -7.5 c 128,-1,13
 303 -7 303 -7 302 -6 c 0,14,15
 299 -5 299 -5 295 -5 c 1,16,17
 286 22 286 22 276.5 61.5 c 128,-1,18
 267 101 267 101 261 120 c 128,-1,19
 255 139 255 139 248 139 c 2,20,-1
 220 138 l 1,21,22
 215 124 215 124 203.5 62.5 c 128,-1,23
 192 1 192 1 175 -29 c 1,24,25
 175 -29 175 -29 153 -31 c 0,26,27
 150 -31 150 -31 64 -29 c 2,28,-1
 11 -28 l 1,29,-1
 14 -8 l 1,30,-1
 -9 -8 l 1,31,-1
 5 66 l 1,32,33
 74 459 74 459 149 709 c 1,34,35
 159 711 159 711 178 711 c 1,36,-1
 192 710 l 1,37,38
 221 710 221 710 288 716 c 1,39,40
 292 698 292 698 293 694 c 1,0,-1
193 168 m 1,41,-1
 222 169 l 1,42,-1
 235 169 l 2,43,44
 237 169 237 169 255 167 c 1,45,46
 265 146 265 146 280 84.5 c 128,-1,47
 295 23 295 23 302 4 c 1,48,-1
 303 4 l 1,49,50
 342 -5 342 -5 376 -5 c 128,-1,51
 410 -5 410 -5 437 0 c 1,52,-1
 437 1 l 1,53,-1
 362 351 l 2,54,55
 353 389 353 389 280 705 c 1,56,57
 236 701 236 701 193 701 c 2,58,-1
 172 701 l 2,59,60
 160 701 160 701 157 700 c 1,61,62
 115 558 115 558 79 392 c 128,-1,63
 43 226 43 226 24 115 c 128,-1,64
 5 4 5 4 4 2 c 1,65,66
 5 1 5 1 6 1 c 2,67,-1
 30 1 l 1,68,-1
 133 -1 l 2,69,70
 143 -1 143 -1 149 1 c 1,71,72
 162 24 162 24 173.5 86.5 c 128,-1,73
 185 149 185 149 193 168 c 1,41,-1
260 286 m 1,74,-1
 210 285 l 2,75,76
 205 285 205 285 197.5 285.5 c 128,-1,77
 190 286 190 286 186 286 c 1,78,79
 190 313 190 313 194.5 351 c 128,-1,80
 199 389 199 389 202 410 c 128,-1,81
 205 431 205 431 208 454 c 0,82,83
 215 495 215 495 222 495 c 0,84,85
 234 495 234 495 260 286 c 1,74,-1
235 410 m 1,86,87
 234 403 234 403 219 296 c 1,88,-1
 248 296 l 1,89,90
 245 323 245 323 240.5 361.5 c 128,-1,91
 236 400 236 400 235 410 c 1,86,87
EndSplineSet
EndChar

StartChar: B
Encoding: 66 66 37
Width: 477
GlyphClass: 2
Flags: W
LayerCount: 2
Fore
SplineSet
30 235 m 2,0,-1
 32 565 l 1,1,-1
 32 701 l 1,2,3
 114 725 114 725 196 725 c 0,4,5
 311 725 311 725 390 665 c 128,-1,6
 469 605 469 605 469 488 c 0,7,8
 469 414 469 414 419 327 c 1,9,-1
 419 325 l 2,10,11
 419 322 419 322 423 318 c 1,12,-1
 423 317 l 1,13,14
 448 287 448 287 460 270.5 c 128,-1,15
 472 254 472 254 484 223.5 c 128,-1,16
 496 193 496 193 496 152.5 c 128,-1,17
 496 112 496 112 481 76 c 128,-1,18
 466 40 466 40 442.5 19 c 128,-1,19
 419 -2 419 -2 384 -14 c 0,20,21
 297 -46 297 -46 147 -31 c 1,22,23
 95 -28 95 -28 87 -28 c 2,24,-1
 72 -28 l 2,25,26
 53 -28 53 -28 53 -8 c 1,27,28
 37 -4 37 -4 34 -3 c 1,29,30
 30 102 30 102 30 235 c 2,0,-1
66 2 m 1,31,-1
 223 -5 l 1,32,33
 357 -5 357 -5 414 46 c 0,34,35
 466 92 466 92 466 181 c 0,36,37
 466 211 466 211 454 240 c 128,-1,38
 442 269 442 269 430.5 285 c 128,-1,39
 419 301 419 301 403 320 c 128,-1,40
 387 339 387 339 387 343.5 c 128,-1,41
 387 348 387 348 390 352 c 0,42,43
 439 434 439 434 439 499 c 128,-1,44
 439 564 439 564 419 605.5 c 128,-1,45
 399 647 399 647 364 670 c 0,46,47
 296 715 296 715 196 715 c 0,48,49
 122 715 122 715 42 693 c 1,50,-1
 41 692 l 1,51,52
 42 645 42 645 42 553 c 2,53,-1
 40 233 l 2,54,55
 40 107 40 107 44 4 c 1,56,57
 52 2 52 2 54 2 c 2,58,-1
 66 2 l 1,31,-1
224 139 m 1,59,-1
 188 140 l 1,60,-1
 186 141 l 1,61,62
 172 160 172 160 172 204 c 128,-1,63
 172 248 172 248 183 281 c 1,64,65
 190 280 190 280 208.5 279 c 128,-1,66
 227 278 227 278 237.5 277 c 128,-1,67
 248 276 248 276 264 271.5 c 128,-1,68
 280 267 280 267 289 260 c 0,69,70
 311 241 311 241 311 209.5 c 128,-1,71
 311 178 311 178 301 165 c 0,72,73
 280 139 280 139 224 139 c 1,59,-1
178 471 m 1,74,-1
 180 531 l 1,75,-1
 180 544 l 1,76,77
 193 551 193 551 223 551 c 128,-1,78
 253 551 253 551 283 537.5 c 128,-1,79
 313 524 313 524 313 491 c 0,80,81
 313 470 313 470 300 450 c 1,82,83
 282 417 282 417 227 417 c 0,84,85
 204 417 204 417 184 420 c 1,86,87
 178 440 178 440 178 471 c 1,74,-1
211 250 m 1,88,89
 202 205 202 205 202 189 c 2,90,-1
 202 166 l 2,91,92
 202 157 202 157 204 155.5 c 128,-1,93
 206 154 206 154 208 152 c 0,94,95
 212 149 212 149 225 149 c 0,96,97
 274 149 274 149 293 171 c 1,98,99
 307 191 307 191 295 235 c 1,100,101
 283 247 283 247 251 248 c 128,-1,102
 219 249 219 249 211 250 c 1,88,89
208 433 m 1,103,-1
 209 427 l 1,104,-1
 227 427 l 2,105,106
 276 427 276 427 291 455 c 1,107,108
 303 474 303 474 303 491 c 0,109,110
 303 521 303 521 237 521 c 0,111,112
 219 521 219 521 211 518 c 1,113,-1
 211 508 l 1,114,-1
 208 433 l 1,103,-1
EndSplineSet
EndChar

StartChar: C
Encoding: 67 67 38
Width: 488
GlyphClass: 2
Flags: W
LayerCount: 2
Fore
SplineSet
23 536 m 1,0,-1
 22 547 l 1,1,2
 22 580 22 580 35 607 c 1,3,4
 81 736 81 736 227 736 c 0,5,6
 333 736 333 736 417.5 656 c 128,-1,7
 502 576 502 576 502 475 c 0,8,9
 502 436 502 436 486 392 c 1,10,11
 457 385 457 385 418 385 c 128,-1,12
 379 385 379 385 324 396 c 1,13,-1
 322 412 l 1,14,15
 318 413 318 413 315.5 413.5 c 128,-1,16
 313 414 313 414 310.5 415 c 128,-1,17
 308 416 308 416 307 417 c 128,-1,18
 306 418 306 418 305 420.5 c 128,-1,19
 304 423 304 423 303.5 424.5 c 128,-1,20
 303 426 303 426 302.5 430.5 c 128,-1,21
 302 435 302 435 301.5 438 c 128,-1,22
 301 441 301 441 300.5 448 c 128,-1,23
 300 455 300 455 300 460 c 128,-1,24
 300 465 300 465 299.5 478.5 c 128,-1,25
 299 492 299 492 297.5 498 c 128,-1,26
 296 504 296 504 293 512 c 0,27,28
 288 528 288 528 260.5 528 c 128,-1,29
 233 528 233 528 220 515 c 0,30,31
 217 512 217 512 213.5 451 c 128,-1,32
 210 390 210 390 210 356 c 2,33,-1
 210 267 l 2,34,35
 210 223 210 223 213 211 c 128,-1,36
 216 199 216 199 219 187 c 0,37,38
 225 164 225 164 250 161 c 1,39,40
 275 161 275 161 288 173.5 c 128,-1,41
 301 186 301 186 303.5 201.5 c 128,-1,42
 306 217 306 217 309 247.5 c 128,-1,43
 312 278 312 278 316 297 c 1,44,45
 337 294 337 294 357 294 c 2,46,-1
 404 295 l 2,47,48
 442 295 442 295 465 289 c 1,49,50
 466 286 466 286 467 280.5 c 128,-1,51
 468 275 468 275 470 272 c 1,52,-1
 485 269 l 1,53,54
 499 230 499 230 499 189 c 0,55,56
 499 83 499 83 428 19.5 c 128,-1,57
 357 -44 357 -44 244 -44 c 0,58,59
 163 -44 163 -44 98.5 1 c 128,-1,60
 34 46 34 46 26 121 c 1,61,62
 21 221 21 221 21 297.5 c 128,-1,63
 21 374 21 374 23 536 c 1,0,-1
406 285 m 2,64,-1
 353 284 l 2,65,66
 342 284 342 284 324 286 c 1,67,68
 320 272 320 272 318 243 c 128,-1,69
 316 214 316 214 313 197 c 128,-1,70
 310 180 310 180 294 165.5 c 128,-1,71
 278 151 278 151 251 151 c 128,-1,72
 224 151 224 151 208.5 167 c 128,-1,73
 193 183 193 183 187 216 c 0,74,75
 179 260 179 260 179 337 c 128,-1,76
 179 414 179 414 182 461 c 0,77,78
 187 536 187 536 193 542 c 0,79,80
 209 558 209 558 238.5 558 c 128,-1,81
 268 558 268 558 281 550 c 128,-1,82
 294 542 294 542 299.5 525.5 c 128,-1,83
 305 509 305 509 307 494.5 c 128,-1,84
 309 480 309 480 310 458 c 128,-1,85
 311 436 311 436 313 425 c 1,86,87
 357 415 357 415 393.5 415 c 128,-1,88
 430 415 430 415 459 421 c 1,89,90
 472 456 472 456 472 495 c 0,91,92
 472 590 472 590 398.5 658 c 128,-1,93
 325 726 325 726 227 726 c 0,94,95
 87 726 87 726 44 604 c 1,96,97
 32 575 32 575 32 557.5 c 128,-1,98
 32 540 32 540 33 537 c 1,99,100
 31 375 31 375 31 298.5 c 128,-1,101
 31 222 31 222 36 122 c 1,102,103
 42 54 42 54 97 20 c 128,-1,104
 152 -14 152 -14 224 -14 c 0,105,106
 331 -14 331 -14 400 47 c 128,-1,107
 469 108 469 108 469 209 c 0,108,109
 469 247 469 247 458 280 c 1,110,111
 439 285 439 285 406 285 c 2,64,-1
EndSplineSet
EndChar

StartChar: D
Encoding: 68 68 39
Width: 482
GlyphClass: 2
Flags: W
LayerCount: 2
Fore
SplineSet
64 -8 m 1,0,-1
 47 -9 l 1,1,2
 29 122 29 122 29 326 c 1,3,-1
 31 590 l 2,4,5
 31 655 31 655 30.5 672 c 128,-1,6
 30 689 30 689 31 691.5 c 128,-1,7
 32 694 32 694 38 700 c 1,8,9
 81 712 81 712 153 712 c 1,10,-1
 246 710 l 2,11,12
 272 710 272 710 285 711 c 1,13,14
 325 699 325 699 364 667.5 c 128,-1,15
 403 636 403 636 422 602 c 1,16,-1
 421 602 l 1,17,18
 464 537 464 537 483 452 c 1,19,-1
 482 453 l 1,20,21
 490 429 490 429 492 386 c 1,22,23
 491 368 491 368 490 327 c 0,24,25
 486 242 486 242 478 200 c 1,26,27
 441 95 441 95 345 -25 c 1,28,29
 312 -26 312 -26 67 -29 c 1,30,-1
 64 -8 l 1,0,-1
284 701 m 1,31,-1
 255 700 l 1,32,-1
 156 702 l 1,33,34
 87 702 87 702 43 691 c 1,35,36
 40 688 40 688 40 687 c 0,37,38
 41 655 41 655 41 591 c 2,39,-1
 39 322 l 1,40,41
 39 115 39 115 56 1 c 1,42,-1
 57 2 l 1,43,44
 232 2 232 2 320 5 c 1,45,46
 416 126 416 126 447 217 c 1,47,-1
 448 219 l 1,48,49
 457 266 457 266 459 329 c 128,-1,50
 461 392 461 392 462 407 c 1,51,52
 456 519 456 519 393 617 c 1,53,54
 375 647 375 647 345.5 670 c 128,-1,55
 316 693 316 693 284 701 c 1,31,-1
182 293 m 2,56,-1
 184 420 l 2,57,58
 184 443 184 443 182 481 c 1,59,-1
 182 485 l 1,60,-1
 185 485 l 1,61,62
 203 488 203 488 223 488 c 0,63,64
 264 488 264 488 289.5 463 c 128,-1,65
 315 438 315 438 322 408.5 c 128,-1,66
 329 379 329 379 329 338.5 c 128,-1,67
 329 298 329 298 301 254 c 1,68,69
 275 216 275 216 254 216 c 2,70,-1
 252 216 l 1,71,72
 235 213 235 213 214.5 213 c 128,-1,73
 194 213 194 213 184 222 c 1,74,75
 182 268 182 268 182 293 c 2,56,-1
211 239 m 1,76,-1
 212 223 l 1,77,-1
 217 223 l 2,78,79
 220 223 220 223 237 224.5 c 128,-1,80
 254 226 254 226 254 225.5 c 128,-1,81
 254 225 254 225 256 225 c 128,-1,82
 258 225 258 225 266 231 c 1,83,-1
 265 231 l 1,84,85
 280 240 280 240 293 260 c 1,86,-1
 293 259 l 1,87,88
 319 298 319 298 319 348.5 c 128,-1,89
 319 399 319 399 289 451 c 1,90,-1
 279 456 l 1,91,92
 255 458 255 458 244.5 458 c 128,-1,93
 234 458 234 458 212 456 c 1,94,95
 214 418 214 418 214 393 c 2,96,-1
 211 239 l 1,76,-1
EndSplineSet
EndChar

StartChar: E
Encoding: 69 69 40
Width: 481
GlyphClass: 2
Flags: W
LayerCount: 2
Fore
SplineSet
473 135 m 1,0,-1
 474 126 l 1,1,2
 486 126 486 126 493 127 c 1,3,-1
 493 115 l 1,4,5
 495 85 495 85 495 53 c 128,-1,6
 495 21 495 21 483 -27 c 1,7,-1
 221 -30 l 1,8,9
 132 -30 132 -30 55 -24 c 1,10,-1
 55 -5 l 1,11,12
 55 -5 55 -5 35 -4 c 1,13,-1
 29 439 l 1,14,15
 29 565 29 565 37 699 c 1,16,17
 224 708 224 708 387 708 c 0,18,19
 466 708 466 708 470 696 c 1,20,21
 470 686 470 686 480 681.5 c 128,-1,22
 490 677 490 677 490 676 c 0,23,24
 494 653 494 653 494 624 c 1,25,-1
 490 524 l 1,26,27
 439 512 439 512 361 512 c 2,28,-1
 325 512 l 1,29,-1
 286 513 l 2,30,31
 256 513 256 513 224 510 c 1,32,-1
 221 438 l 1,33,-1
 221 429 l 1,34,-1
 239 428 l 1,35,-1
 278 429 l 2,36,37
 283 429 283 429 328 426 c 1,38,39
 328 407 328 407 337 407 c 2,40,-1
 348 406 l 1,41,42
 353 380 353 380 353 345 c 2,43,-1
 351 250 l 1,44,45
 323 242 323 242 278.5 241.5 c 128,-1,46
 234 241 234 241 229 240 c 1,47,48
 226 225 226 225 226 194.5 c 128,-1,49
 226 164 226 164 227 151 c 1,50,51
 347 145 347 145 394 145 c 128,-1,52
 441 145 441 145 473 147 c 1,53,-1
 473 135 l 1,0,-1
190 0 m 2,54,-1
 455 3 l 1,55,56
 465 42 465 42 465 73 c 128,-1,57
 465 104 465 104 463 134 c 1,58,-1
 463 136 l 1,59,60
 448 135 448 135 420 135 c 2,61,-1
 201 141 l 1,62,-1
 200 142 l 1,63,64
 196 167 196 167 196 206.5 c 128,-1,65
 196 246 196 246 200 267 c 1,66,67
 206 272 206 272 253.5 272 c 128,-1,68
 301 272 301 272 321 278 c 1,69,-1
 322 365 l 2,70,71
 322 400 322 400 319 417 c 1,72,-1
 319 418 l 1,73,74
 250 418 250 418 196 421 c 1,75,-1
 195 422 l 1,76,77
 191 437 191 437 191 460 c 2,78,-1
 194 539 l 1,79,80
 206 542 206 542 265 542 c 2,81,-1
 344 542 l 2,82,83
 417 542 417 542 460 552 c 1,84,-1
 460 553 l 1,85,-1
 463 648 l 2,86,87
 463 671 463 671 460 695 c 0,88,89
 460 698 460 698 345.5 698 c 128,-1,90
 231 698 231 698 46 689 c 1,91,92
 40 592 40 592 40 449 c 1,93,-1
 45 5 l 1,94,95
 104 0 104 0 190 0 c 2,54,-1
EndSplineSet
EndChar

StartChar: F
Encoding: 70 70 41
Width: 494
GlyphClass: 2
Flags: W
LayerCount: 2
Fore
SplineSet
364 416 m 1,0,-1
 379 418 l 1,1,2
 386 397 386 397 386 372 c 2,3,-1
 384 290 l 1,4,-1
 386 243 l 2,5,6
 386 228 386 228 294 221 c 2,7,-1
 253 218 l 1,8,9
 246 117 246 117 246 12 c 2,10,-1
 246 -28 l 1,11,12
 202 -33 202 -33 133.5 -33 c 128,-1,13
 65 -33 65 -33 51 -23 c 1,14,-1
 51 -10 l 1,15,16
 35 -7 35 -7 31 -3 c 1,17,-1
 33 689 l 1,18,19
 128 707 128 707 278 707 c 128,-1,20
 428 707 428 707 500 690 c 1,21,-1
 500 674 l 1,22,23
 504 672 504 672 520 670 c 1,24,-1
 522 573 l 2,25,26
 522 550 522 550 519 505 c 1,27,28
 507 504 507 504 403 499 c 128,-1,29
 299 494 299 494 250 489 c 1,30,31
 244 467 244 467 244 459.5 c 128,-1,32
 244 452 244 452 243.5 447.5 c 128,-1,33
 243 443 243 443 243.5 441.5 c 128,-1,34
 244 440 244 440 245 438 c 0,35,36
 247 433 247 433 258 433 c 0,37,38
 320 433 320 433 359 438 c 1,39,40
 362 431 362 431 364 416 c 1,0,-1
225 246 m 1,41,-1
 353 261 l 2,42,43
 356 261 356 261 356 263 c 0,44,45
 354 285 354 285 354 300 c 2,46,-1
 356 390 l 2,47,48
 356 418 356 418 353 427 c 1,49,50
 336 424 336 424 308.5 424 c 128,-1,51
 281 424 281 424 267.5 424 c 128,-1,52
 254 424 254 424 245.5 424.5 c 128,-1,53
 237 425 237 425 228 430 c 128,-1,54
 219 435 219 435 216.5 445 c 128,-1,55
 214 455 214 455 214 477 c 128,-1,56
 214 499 214 499 223 518 c 1,57,58
 272 523 272 523 490 534 c 1,59,60
 491 543 491 543 491 566 c 2,61,-1
 491 607 l 1,62,-1
 490 682 l 1,63,64
 430 697 430 697 281 697 c 128,-1,65
 132 697 132 697 43 680 c 1,66,-1
 43 537 l 1,67,-1
 41 114 l 1,68,-1
 42 1 l 1,69,70
 49 -3 49 -3 114.5 -3 c 128,-1,71
 180 -3 180 -3 216 1 c 1,72,73
 218 178 218 178 224 246 c 1,74,-1
 225 246 l 1,41,-1
EndSplineSet
EndChar

StartChar: G
Encoding: 71 71 42
Width: 481
GlyphClass: 2
Flags: W
LayerCount: 2
Fore
SplineSet
230 295 m 1,0,-1
 231 319 l 2,1,2
 231 338 231 338 230 357 c 1,3,-1
 233 357 l 2,4,5
 236 357 236 357 236 355 c 1,6,7
 249 368 249 368 319 368 c 1,8,-1
 448 362 l 1,9,-1
 460 361 l 1,10,11
 460 356 460 356 462 342 c 1,12,-1
 480 341 l 1,13,14
 489 240 489 240 489 190.5 c 128,-1,15
 489 141 489 141 481 104 c 1,16,17
 465 -46 465 -46 245 -46 c 0,18,19
 146 -46 146 -46 86.5 25 c 128,-1,20
 27 96 27 96 27 200 c 1,21,22
 17 284 17 284 17 386.5 c 128,-1,23
 17 489 17 489 24 530 c 0,24,25
 52 712 52 712 239 712 c 0,26,27
 341 712 341 712 411.5 651 c 128,-1,28
 482 590 482 590 482 493 c 2,29,-1
 482 476 l 2,30,31
 482 453 482 453 477 450 c 128,-1,32
 472 447 472 447 468 445 c 0,33,34
 462 441 462 441 450 441 c 2,35,-1
 412 441 l 2,36,37
 362 441 362 441 335 445 c 0,38,39
 334 446 334 446 333 452.5 c 128,-1,40
 332 459 332 459 328.5 461 c 128,-1,41
 325 463 325 463 315 465 c 1,42,43
 301 511 301 511 290 517 c 0,44,45
 270 528 270 528 258 528 c 2,46,-1
 240 528 l 2,47,48
 235 528 235 528 233 527 c 128,-1,49
 231 526 231 526 228.5 525 c 128,-1,50
 226 524 226 524 225 522.5 c 128,-1,51
 224 521 224 521 222 518.5 c 128,-1,52
 220 516 220 516 219 513 c 0,53,54
 215 501 215 501 213 496 c 0,55,56
 194 433 194 433 194 312 c 2,57,-1
 194 253 l 2,58,59
 194 179 194 179 214 146 c 1,60,-1
 225 143 l 2,61,62
 229 142 229 142 246 142 c 128,-1,63
 263 142 263 142 279.5 149.5 c 128,-1,64
 296 157 296 157 302 167.5 c 128,-1,65
 308 178 308 178 313 208 c 1,66,-1
 294 208 l 2,67,68
 269 208 269 208 255 213 c 1,69,70
 254 225 254 225 250 227.5 c 128,-1,71
 246 230 246 230 241.5 231 c 128,-1,72
 237 232 237 232 235 233 c 1,73,74
 230 268 230 268 230 295 c 1,0,-1
317 358 m 1,75,76
 258 358 258 358 240 346 c 1,77,-1
 240 345 l 1,78,79
 242 334 242 334 242 305 c 2,80,-1
 242 277 l 2,81,82
 242 250 242 250 244 240 c 1,83,84
 247 238 247 238 264 238 c 2,85,-1
 304 239 l 2,86,87
 308 239 308 239 313 239 c 0,88,89
 322 239 322 239 322 221 c 0,90,91
 322 166 322 166 299 149 c 128,-1,92
 276 132 276 132 247.5 132 c 128,-1,93
 219 132 219 132 206 139.5 c 128,-1,94
 193 147 193 147 185 163 c 128,-1,95
 177 179 177 179 172 192 c 0,96,97
 163 220 163 220 163 282 c 1,98,-1
 164 332 l 1,99,100
 164 405 164 405 172 468.5 c 128,-1,101
 180 532 180 532 193 545 c 128,-1,102
 206 558 206 558 230 558 c 2,103,-1
 255 557 l 1,104,105
 299 557 299 557 323 474 c 1,106,107
 354 470 354 470 400 470 c 128,-1,108
 446 470 446 470 449 475 c 1,109,110
 452 493 452 493 452 513 c 0,111,112
 452 603 452 603 392 652.5 c 128,-1,113
 332 702 332 702 238.5 702 c 128,-1,114
 145 702 145 702 97 662 c 1,115,116
 61 637 61 637 46 587 c 0,117,118
 31 535 31 535 29 496 c 0,119,120
 26 442 26 442 26 420 c 2,121,-1
 27 362 l 1,122,-1
 27 306 l 2,123,124
 27 217 27 217 39 162 c 128,-1,125
 51 107 51 107 60.5 88.5 c 128,-1,126
 70 70 70 70 85 47.5 c 128,-1,127
 100 25 100 25 120 13 c 0,128,129
 167 -16 167 -16 225 -16 c 0,130,131
 435 -16 435 -16 451 125 c 1,132,133
 459 162 459 162 459 216.5 c 128,-1,134
 459 271 459 271 451 351 c 1,135,-1
 448 352 l 1,136,-1
 317 358 l 1,75,76
EndSplineSet
EndChar

StartChar: H
Encoding: 72 72 43
Width: 499
GlyphClass: 2
Flags: W
LayerCount: 2
Fore
SplineSet
499 -23 m 1,0,1
 460 -31 460 -31 339 -31 c 1,2,-1
 336 -10 l 1,3,4
 324 -10 324 -10 319 -11 c 1,5,6
 312 40 312 40 310 129 c 128,-1,7
 308 218 308 218 305 250 c 1,8,9
 283 252 283 252 266 252 c 128,-1,10
 249 252 249 252 225 247 c 1,11,12
 224 232 224 232 224 198 c 2,13,-1
 226 79 l 1,14,15
 226 16 226 16 219 -19 c 1,16,17
 201 -30 201 -30 170 -30 c 1,18,-1
 102 -26 l 1,19,20
 84 -26 84 -26 65 -36 c 1,21,22
 63 -28 63 -28 63 -8 c 1,23,24
 54 -10 54 -10 45 -16 c 1,25,26
 29 174 29 174 29 591 c 0,27,28
 29 676 29 676 30 708 c 1,29,-1
 45 709 l 1,30,31
 58 706 58 706 72 706 c 2,32,-1
 138 710 l 2,33,34
 145 710 145 710 150 710 c 128,-1,35
 155 710 155 710 160 709.5 c 128,-1,36
 165 709 165 709 167.5 707.5 c 128,-1,37
 170 706 170 706 173 704 c 0,38,39
 179 699 179 699 181 688 c 1,40,41
 197 684 197 684 199 684 c 1,42,43
 202 654 202 654 205.5 569.5 c 128,-1,44
 209 485 209 485 218 439 c 1,45,-1
 229 439 l 2,46,47
 260 439 260 439 285 443 c 1,48,-1
 292 443 l 1,49,50
 298 515 298 515 298 589 c 128,-1,51
 298 663 298 663 295 703 c 1,52,53
 343 717 343 717 391 717 c 128,-1,54
 439 717 439 717 452 715 c 1,55,-1
 452 696 l 1,56,57
 464 696 464 696 472 695 c 1,58,-1
 499 -23 l 1,0,1
195 93 m 2,59,-1
 193 210 l 2,60,61
 193 242 193 242 196 275 c 1,62,63
 223 282 223 282 251.5 282 c 128,-1,64
 280 282 280 282 312 277 c 1,65,-1
 313 276 l 1,66,67
 318 235 318 235 319.5 140.5 c 128,-1,68
 321 46 321 46 328 0 c 1,69,-1
 329 0 l 1,70,71
 337 1 337 1 358 1 c 2,72,-1
 394 1 l 2,73,74
 440 1 440 1 469 6 c 1,75,-1
 442 706 l 1,76,77
 431 707 431 707 388.5 707 c 128,-1,78
 346 707 346 707 305 695 c 1,79,80
 308 635 308 635 308 573 c 128,-1,81
 308 511 308 511 301 434 c 1,82,-1
 300 434 l 1,83,84
 265 429 265 429 236 429 c 128,-1,85
 207 429 207 429 192 433 c 1,86,-1
 191 433 l 1,87,88
 182 479 182 479 178.5 567.5 c 128,-1,89
 175 656 175 656 170 696 c 1,90,91
 157 700 157 700 134 700 c 2,92,93
 134 700 134 700 107 699 c 2,94,-1
 74 697 l 1,95,-1
 65 696 l 1,96,97
 54 696 54 696 43 699 c 1,98,-1
 40 698 l 1,99,100
 39 666 39 666 39 591 c 0,101,102
 39 181 39 181 54 1 c 1,103,104
 61 5 61 5 76 5 c 2,105,-1
 152 0 l 1,106,107
 179 0 179 0 190 7 c 1,108,109
 195 42 195 42 195 93 c 2,59,-1
EndSplineSet
EndChar

StartChar: I
Encoding: 73 73 44
Width: 260
GlyphClass: 2
Flags: W
LayerCount: 2
Fore
SplineSet
56 718 m 2,0,-1
 174 713 l 1,1,-1
 232 713 l 1,2,-1
 232 693 l 1,3,-1
 252 693 l 1,4,-1
 252 679 l 1,5,-1
 245 194 l 1,6,7
 245 84 245 84 251 -19 c 1,8,9
 235 -35 235 -35 178 -35 c 1,10,-1
 91 -33 l 2,11,12
 69 -33 69 -33 48 -38 c 1,13,14
 48 -34 48 -34 48.5 -26 c 128,-1,15
 49 -18 49 -18 49 -14 c 1,16,17
 32 -16 32 -16 28 -18 c 1,18,19
 35 85 35 85 35 170 c 1,20,-1
 28 515 l 1,21,22
 28 613 28 613 38 716 c 1,23,24
 52 718 52 718 56 718 c 2,0,-1
215 223 m 1,25,-1
 222 699 l 1,26,-1
 222 703 l 1,27,-1
 175 703 l 1,28,-1
 51 708 l 1,29,-1
 47 708 l 1,30,-1
 47 706 l 1,31,32
 38 625 38 625 38 516 c 1,33,-1
 45 164 l 1,34,35
 45 80 45 80 39 -4 c 1,36,37
 53 -2 53 -2 62 -2 c 2,38,-1
 162 -6 l 1,39,40
 210 -6 210 -6 221 5 c 1,41,42
 215 113 215 113 215 223 c 1,25,-1
EndSplineSet
EndChar

StartChar: J
Encoding: 74 74 45
Width: 463
GlyphClass: 2
Flags: W
LayerCount: 2
Fore
SplineSet
265 556 m 2,0,-1
 269 703 l 1,1,-1
 269 720 l 1,2,-1
 435 722 l 1,3,-1
 435 702 l 1,4,-1
 455 702 l 1,5,-1
 455 642 l 1,6,-1
 460 366 l 1,7,8
 460 366 460 366 458 268 c 0,9,10
 455 143 455 143 439 102 c 0,11,12
 415 38 415 38 389.5 17.5 c 128,-1,13
 364 -3 364 -3 337 -13 c 1,14,15
 291 -38 291 -38 223.5 -38 c 128,-1,16
 156 -38 156 -38 110 -12.5 c 128,-1,17
 64 13 64 13 40 57 c 0,18,19
 -7 141 -7 141 -7 258 c 1,20,-1
 -6 296 l 1,21,22
 17 303 17 303 73 303 c 128,-1,23
 129 303 129 303 169 294 c 1,24,-1
 169 277 l 1,25,26
 178 274 178 274 189 274 c 1,27,-1
 189 260 l 2,28,29
 189 242 189 242 192.5 222.5 c 128,-1,30
 196 203 196 203 198.5 198 c 128,-1,31
 201 193 201 193 205 186 c 0,32,33
 212 175 212 175 229 175 c 0,34,35
 264 175 264 175 270 236 c 1,36,37
 266 353 266 353 265.5 444 c 128,-1,38
 265 535 265 535 265 556 c 2,0,-1
429 380 m 1,39,-1
 424 662 l 2,40,41
 424 695 424 695 425 712 c 1,42,-1
 279 710 l 1,43,-1
 279 703 l 1,44,45
 276 610 276 610 276 484.5 c 128,-1,46
 276 359 276 359 280 236 c 1,47,48
 277 206 277 206 264.5 185.5 c 128,-1,49
 252 165 252 165 229 165 c 0,50,51
 166 165 166 165 159 280 c 1,52,-1
 159 286 l 1,53,54
 112 293 112 293 71.5 293 c 128,-1,55
 31 293 31 293 4 288 c 1,56,57
 3 277 3 277 3 257 c 0,58,59
 3 166 3 166 31 93 c 128,-1,60
 59 20 59 20 126 0 c 1,61,62
 166 -8 166 -8 215 -8 c 128,-1,63
 264 -8 264 -8 313 16 c 1,64,65
 368 37 368 37 390 80 c 0,66,67
 401 103 401 103 409 123 c 128,-1,68
 417 143 417 143 420.5 175.5 c 128,-1,69
 424 208 424 208 425.5 226.5 c 128,-1,70
 427 245 427 245 427.5 281 c 128,-1,71
 428 317 428 317 429 329 c 1,72,-1
 429 380 l 1,39,-1
EndSplineSet
EndChar

StartChar: K
Encoding: 75 75 46
Width: 459
GlyphClass: 2
Flags: W
LayerCount: 2
Fore
SplineSet
340 707 m 1,0,-1
 406 708 l 2,1,2
 441 708 441 708 475 703 c 1,3,4
 474 700 474 700 472 695 c 128,-1,5
 470 690 470 690 469 686 c 1,6,7
 477 685 477 685 495 683 c 1,8,9
 472 609 472 609 405 491.5 c 128,-1,10
 338 374 338 374 323 340 c 1,11,-1
 497 -23 l 1,12,13
 465 -31 465 -31 428 -31 c 1,14,-1
 339 -28 l 1,15,16
 333 -22 333 -22 323 -8 c 1,17,-1
 319 -8 l 1,18,19
 268 46 268 46 215 182 c 1,20,-1
 219 -23 l 1,21,22
 189 -32 189 -32 141.5 -32 c 128,-1,23
 94 -32 94 -32 53 -23 c 1,24,25
 51 -7 51 -7 44 -4 c 0,26,27
 43 -4 43 -4 39.5 -4 c 128,-1,28
 36 -4 36 -4 33 -3 c 1,29,30
 29 84 29 84 29 200 c 1,31,-1
 35 709 l 1,32,-1
 59 709 l 1,33,-1
 189 707 l 1,34,-1
 189 687 l 1,35,-1
 209 687 l 1,36,37
 210 648 210 648 210 557 c 2,38,-1
 210 516 l 1,39,40
 220 534 220 534 240 572 c 0,41,42
 284 657 284 657 321 708 c 1,43,-1
 340 707 l 1,0,-1
189 5 m 1,44,-1
 185 214 l 2,45,46
 185 247 185 247 186 263 c 1,47,48
 194 249 194 249 242 144.5 c 128,-1,49
 290 40 290 40 324 2 c 1,50,51
 399 -1 399 -1 419 -1 c 128,-1,52
 439 -1 439 -1 463 4 c 1,53,-1
 292 359 l 1,54,55
 310 402 310 402 377 517 c 128,-1,56
 444 632 444 632 462 695 c 1,57,58
 438 698 438 698 413 698 c 2,59,-1
 352 697 l 2,60,61
 334 697 334 697 326 698 c 1,62,63
 301 662 301 662 258.5 581.5 c 128,-1,64
 216 501 216 501 186 463 c 1,65,-1
 181 457 l 1,66,67
 180 481 180 481 180 531 c 2,68,-1
 180 623 l 2,69,70
 180 673 180 673 179 697 c 1,71,-1
 64 699 l 2,72,73
 49 699 49 699 46.5 695.5 c 128,-1,74
 44 692 44 692 44.5 684 c 128,-1,75
 45 676 45 676 45 674 c 2,76,-1
 39 201 l 1,77,78
 39 92 39 92 43 5 c 1,79,80
 76 -2 76 -2 120.5 -2 c 128,-1,81
 165 -2 165 -2 189 5 c 1,44,-1
EndSplineSet
EndChar

StartChar: L
Encoding: 76 76 47
Width: 461
GlyphClass: 2
Flags: W
LayerCount: 2
Fore
SplineSet
486 82 m 1,0,-1
 487 72 l 1,1,-1
 487 71 l 1,2,3
 489 23 489 23 489 8.5 c 128,-1,4
 489 -6 489 -6 485.5 -16.5 c 128,-1,5
 482 -27 482 -27 476.5 -28.5 c 128,-1,6
 471 -30 471 -30 463 -30 c 0,7,8
 456 -30 456 -30 450 -30 c 2,9,10
 450 -30 450 -30 433 -29 c 1,11,-1
 224 -32 l 1,12,13
 114 -32 114 -32 46 -31 c 1,14,-1
 46 -11 l 1,15,-1
 26 -11 l 1,16,-1
 26 17 l 1,17,18
 33 158 33 158 33 360.5 c 128,-1,19
 33 563 33 563 29 710 c 1,20,21
 58 722 58 722 115.5 722 c 128,-1,22
 173 722 173 722 209 706 c 1,23,-1
 208 693 l 1,24,25
 222 690 222 690 229 686 c 1,26,27
 227 614 227 614 227 567 c 2,28,-1
 230 210 l 1,29,-1
 230 170 l 1,30,31
 366 162 366 162 406.5 162 c 128,-1,32
 447 162 447 162 469 164 c 1,33,-1
 469 142 l 1,34,-1
 489 144 l 1,35,-1
 486 82 l 1,0,-1
457 91 m 1,36,-1
 456 101 l 2,37,38
 456 110 456 110 457.5 127 c 128,-1,39
 459 144 459 144 459 152 c 1,40,41
 457 151 457 151 444 151 c 2,42,-1
 230 160 l 2,43,44
 214 160 214 160 200 158 c 1,45,-1
 200 159 l 1,46,-1
 201 237 l 1,47,-1
 197 580 l 2,48,49
 197 622 197 622 199 700 c 1,50,51
 170 712 170 712 116 712 c 128,-1,52
 62 712 62 712 39 703 c 1,53,54
 43 504 43 504 43 331 c 128,-1,55
 43 158 43 158 36 17 c 1,56,-1
 36 -1 l 1,57,58
 182 -3 182 -3 227 -3 c 128,-1,59
 272 -3 272 -3 317 -2 c 128,-1,60
 362 -1 362 -1 385.5 0 c 128,-1,61
 409 1 409 1 416 1 c 2,62,-1
 438 0 l 2,63,64
 451 0 451 0 455 6 c 128,-1,65
 459 12 459 12 459 27.5 c 128,-1,66
 459 43 459 43 457 91 c 1,36,-1
EndSplineSet
EndChar

StartChar: M
Encoding: 77 77 48
Width: 501
GlyphClass: 2
Flags: W
LayerCount: 2
Fore
SplineSet
489 601 m 2,0,-1
 491 390 l 2,1,2
 491 318 491 318 489 297 c 1,3,-1
 486 -32 l 1,4,5
 458 -28 458 -28 422 -28 c 2,6,-1
 334 -30 l 1,7,8
 333 -23 333 -23 333 -9 c 1,9,-1
 314 -10 l 1,10,11
 311 43 311 43 310.5 151 c 128,-1,12
 310 259 310 259 309 292 c 1,13,14
 302 275 302 275 300 268 c 128,-1,15
 298 261 298 261 295 254 c 128,-1,16
 292 247 292 247 290 242.5 c 128,-1,17
 288 238 288 238 285.5 233 c 128,-1,18
 283 228 283 228 281 224.5 c 128,-1,19
 279 221 279 221 276 218 c 0,20,21
 271 213 271 213 266 213 c 0,22,23
 258 213 258 213 246 233 c 1,24,25
 231 234 231 234 210 284 c 1,26,27
 209 260 209 260 209 193 c 128,-1,28
 209 126 209 126 219 -26 c 1,29,30
 180 -32 180 -32 136 -32 c 1,31,-1
 106 -33 l 1,32,33
 53 -33 53 -33 53 -10 c 1,34,-1
 48 -10 l 2,35,36
 40 -10 40 -10 35.5 0 c 128,-1,37
 31 10 31 10 31 223 c 128,-1,38
 31 436 31 436 34 693 c 1,39,40
 61 702 61 702 95 702 c 1,41,-1
 156 700 l 2,42,43
 174 700 174 700 185 701 c 1,44,45
 192 691 192 691 199 680 c 1,46,-1
 205 681 l 1,47,48
 220 664 220 664 229.5 639.5 c 128,-1,49
 239 615 239 615 246 594 c 128,-1,50
 253 573 253 573 256 566 c 1,51,52
 278 663 278 663 308 704 c 1,53,54
 322 702 322 702 332 702 c 2,55,-1
 470 707 l 1,56,-1
 469 687 l 1,57,-1
 490 687 l 1,58,59
 489 662 489 662 489 601 c 2,0,-1
324 0 m 1,60,-1
 387 1 l 1,61,-1
 423 1 l 2,62,63
 434 1 434 1 456 -1 c 1,64,-1
 459 318 l 1,65,66
 461 340 461 340 461 416 c 2,67,-1
 459 621 l 2,68,69
 459 672 459 672 460 697 c 1,70,-1
 328 692 l 2,71,72
 314 692 314 692 312 693 c 1,73,74
 297 673 297 673 276.5 604.5 c 128,-1,75
 256 536 256 536 253 537 c 1,76,77
 246 537 246 537 232.5 570 c 128,-1,78
 219 603 219 603 204 642 c 128,-1,79
 189 681 189 681 181 691 c 1,80,-1
 180 691 l 1,81,82
 169 690 169 690 145 690 c 2,83,-1
 109 691 l 1,84,-1
 93 691 l 2,85,86
 60 691 60 691 44 686 c 1,87,88
 41 430 41 430 41 215 c 128,-1,89
 41 0 41 0 48 0 c 2,90,-1
 123 -1 l 2,91,92
 161 -1 161 -1 188 3 c 1,93,94
 179 140 179 140 179 224 c 128,-1,95
 179 308 179 308 185 382 c 1,96,-1
 188 372 l 2,97,98
 190 367 190 367 196.5 348 c 128,-1,99
 203 329 203 329 209 313.5 c 128,-1,100
 215 298 215 298 222 280 c 1,101,102
 239 243 239 243 247 243 c 0,103,104
 254 243 254 243 279 310.5 c 128,-1,105
 304 378 304 378 310 389 c 1,106,107
 318 323 318 323 320.5 170.5 c 128,-1,108
 323 18 323 18 324 0 c 1,60,-1
EndSplineSet
EndChar

StartChar: N
Encoding: 78 78 49
Width: 498
GlyphClass: 2
Flags: W
LayerCount: 2
Fore
SplineSet
486 40 m 1,0,-1
 487 0 l 1,1,-1
 486 -28 l 1,2,3
 484 -28 484 -28 478 -30 c 0,4,5
 461 -35 461 -35 444 -35 c 2,6,-1
 346 -30 l 1,7,8
 340 -20 340 -20 337 -10 c 1,9,-1
 326 -10 l 1,10,11
 311 23 311 23 285 78 c 0,12,13
 227 200 227 200 210 249 c 1,14,15
 210 22 210 22 212 -28 c 1,16,17
 191 -35 191 -35 158 -35 c 1,18,-1
 52 -29 l 1,19,-1
 52 -9 l 1,20,-1
 32 -9 l 1,21,-1
 32 71 l 1,22,-1
 29 432 l 1,23,24
 29 589 29 589 39 708 c 1,25,26
 63 714 63 714 88.5 714 c 128,-1,27
 114 714 114 714 149 708.5 c 128,-1,28
 184 703 184 703 186 695 c 0,29,30
 188 685 188 685 197 680.5 c 128,-1,31
 206 676 206 676 206 675 c 0,32,33
 233 610 233 610 309 449 c 1,34,-1
 309 470 l 1,35,-1
 306 615 l 2,36,37
 306 620 306 620 306 627 c 2,38,-1
 308 691 l 1,39,-1
 308 713 l 1,40,41
 343 720 343 720 384.5 720 c 128,-1,42
 426 720 426 720 466 712 c 1,43,-1
 466 695 l 1,44,45
 478 692 478 692 486 692 c 1,46,-1
 486 362 l 1,47,-1
 487 191 l 1,48,-1
 486 134 l 1,49,-1
 486 40 l 1,0,-1
332 0 m 1,50,-1
 424 -5 l 2,51,52
 442 -5 442 -5 457 0 c 1,53,-1
 457 20 l 1,54,-1
 456 100 l 1,55,-1
 457 211 l 1,56,-1
 457 297 l 2,57,58
 457 354 457 354 456 382 c 1,59,-1
 456 704 l 1,60,61
 428 710 428 710 390 710 c 128,-1,62
 352 710 352 710 318 704 c 1,63,64
 316 638 316 638 316 615 c 2,65,-1
 319 470 l 1,66,67
 319 420 319 420 312 415 c 1,68,69
 310 415 310 415 272.5 490 c 128,-1,70
 235 565 235 565 228 582 c 128,-1,71
 221 599 221 599 210.5 619.5 c 128,-1,72
 200 640 200 640 200 641 c 2,73,-1
 189 664 l 2,74,75
 186 670 186 670 176 694 c 1,76,77
 176 698 176 698 144 701 c 128,-1,78
 112 704 112 704 88.5 704 c 128,-1,79
 65 704 65 704 48 700 c 1,80,81
 39 591 39 591 39 432 c 1,82,-1
 42 71 l 1,83,-1
 42 1 l 1,84,-1
 138 -5 l 1,85,86
 163 -5 163 -5 182 0 c 1,87,88
 181 11 181 11 181 38 c 2,89,-1
 181 83 l 2,90,91
 181 337 181 337 188 337 c 0,92,93
 191 337 191 337 201 307 c 2,94,-1
 211 277 l 1,95,96
 236 210 236 210 277 121 c 128,-1,97
 318 32 318 32 332 0 c 1,50,-1
EndSplineSet
EndChar

StartChar: O
Encoding: 79 79 50
Width: 483
GlyphClass: 2
Flags: W
LayerCount: 2
Fore
SplineSet
318 420 m 2,0,1
 318 465 318 465 310 492 c 128,-1,2
 302 519 302 519 292 526 c 128,-1,3
 282 533 282 533 268 533 c 0,4,5
 237 533 237 533 211 509 c 128,-1,6
 185 485 185 485 176 447 c 0,7,8
 162 390 162 390 168 293 c 1,9,10
 171 278 171 278 176 228 c 0,11,12
 181 168 181 168 189 148 c 1,13,14
 208 136 208 136 241.5 136 c 128,-1,15
 275 136 275 136 300 163 c 1,16,17
 315 183 315 183 317.5 202 c 128,-1,18
 320 221 320 221 320 300 c 2,19,-1
 320 348 l 1,20,-1
 318 416 l 1,21,-1
 318 420 l 2,0,1
243 -44 m 0,22,23
 98 -44 98 -44 51 53 c 1,24,-1
 51 52 l 1,25,26
 31 84 31 84 26 137 c 0,27,28
 23 174 23 174 23 232 c 1,29,30
 18 317 18 317 18 415 c 128,-1,31
 18 513 18 513 29 564 c 0,32,33
 48 649 48 649 102 680 c 1,34,35
 165 711 165 711 228 711 c 0,36,37
 362 711 362 711 419 642 c 1,38,39
 452 609 452 609 469 571 c 128,-1,40
 486 533 486 533 486 447 c 0,41,42
 484 246 484 246 480 205 c 2,43,-1
 477 172 l 2,44,45
 469 80 469 80 437 32 c 1,46,47
 409 -7 409 -7 354.5 -25.5 c 128,-1,48
 300 -44 300 -44 243 -44 c 0,22,23
330 300 m 2,49,50
 330 204 330 204 324 187 c 0,51,52
 304 126 304 126 235 126 c 0,53,54
 178 126 178 126 160 170 c 0,55,56
 147 203 147 203 143.5 250 c 128,-1,57
 140 297 140 297 138 321 c 128,-1,58
 136 345 136 345 136 362 c 0,59,60
 136 563 136 563 247 563 c 0,61,62
 328 563 328 563 328 416 c 1,63,-1
 330 348 l 1,64,-1
 330 300 l 2,49,50
240 700 m 0,65,66
 131 700 131 700 84 653 c 1,67,68
 55 620 55 620 45 580 c 0,69,70
 41 564 41 564 38 554.5 c 128,-1,71
 35 545 35 545 33 525.5 c 128,-1,72
 31 506 31 506 30 498.5 c 128,-1,73
 29 491 29 491 28.5 469.5 c 128,-1,74
 28 448 28 448 28 444 c 2,75,-1
 28 392 l 2,76,77
 28 368 28 368 36 168 c 1,78,79
 38 65 38 65 85.5 25.5 c 128,-1,80
 133 -14 133 -14 223 -14 c 0,81,82
 278 -14 278 -14 330.5 4 c 128,-1,83
 383 22 383 22 409 58 c 1,84,85
 440 106 440 106 447 193 c 2,86,-1
 450 226 l 2,87,88
 455 283 455 283 455 467 c 0,89,90
 455 555 455 555 437 592 c 1,91,92
 418 646 418 646 363 673 c 128,-1,93
 308 700 308 700 240 700 c 0,65,66
EndSplineSet
EndChar

StartChar: P
Encoding: 80 80 51
Width: 497
GlyphClass: 2
Flags: W
LayerCount: 2
Fore
SplineSet
54 -23 m 1,0,1
 54 -3 54 -3 43 -3 c 2,2,-1
 34 -3 l 1,3,4
 30 94 30 94 30 339 c 2,5,-1
 30 460 l 2,6,7
 30 628 30 628 27 703 c 1,8,9
 103 724 103 724 184.5 724 c 128,-1,10
 266 724 266 724 337 698.5 c 128,-1,11
 408 673 408 673 458.5 614 c 128,-1,12
 509 555 509 555 514 471 c 1,13,-1
 514 470 l 2,14,15
 514 373 514 373 438.5 301.5 c 128,-1,16
 363 230 363 230 266 230 c 0,17,18
 249 230 249 230 241 231 c 1,19,-1
 241 189 l 2,20,21
 241 93 241 93 244 -19 c 1,22,23
 240 -19 240 -19 203 -23.5 c 128,-1,24
 166 -28 166 -28 131 -28 c 128,-1,25
 96 -28 96 -28 54 -23 c 1,0,1
44 6 m 1,26,27
 71 2 71 2 135 2 c 128,-1,28
 199 2 199 2 214 12 c 1,29,30
 211 109 211 109 211 196 c 2,31,-1
 211 235 l 2,32,33
 211 254 211 254 210 263 c 1,34,35
 228 260 228 260 246 260 c 0,36,37
 334 260 334 260 409 324 c 128,-1,38
 484 388 484 388 484 476 c 2,39,-1
 484 491 l 1,40,41
 481 551 481 551 454 596 c 128,-1,42
 427 641 427 641 383 666 c 0,43,44
 296 714 296 714 182 714 c 0,45,46
 111 714 111 714 37 695 c 1,47,48
 41 583 41 583 41 340 c 2,49,-1
 41 164 l 2,50,51
 41 80 41 80 44 6 c 1,26,27
184 483 m 2,52,-1
 184 521 l 2,53,54
 184 538 184 538 183 555 c 1,55,56
 189 561 189 561 232 561 c 128,-1,57
 275 561 275 561 309 533 c 1,58,59
 340 514 340 514 340 475 c 0,60,61
 340 425 340 425 286 412 c 0,62,63
 254 405 254 405 195 405 c 2,64,-1
 192 405 l 1,65,66
 184 429 184 429 184 483 c 2,52,-1
320 443 m 0,67,68
 330 456 330 456 330 480.5 c 128,-1,69
 330 505 330 505 304 518 c 128,-1,70
 278 531 278 531 252 531 c 128,-1,71
 226 531 226 531 213 527 c 1,72,73
 214 512 214 512 214 484 c 2,74,-1
 214 455 l 2,75,76
 214 424 214 424 216 416 c 1,77,-1
 221 416 l 2,78,79
 301 416 301 416 320 443 c 0,67,68
EndSplineSet
EndChar

StartChar: Q
Encoding: 81 81 52
Width: 495
GlyphClass: 2
Flags: W
LayerCount: 2
Fore
SplineSet
493 211 m 1,0,1
 493 129 493 129 460 60 c 1,2,3
 477 43 477 43 477 24 c 128,-1,4
 477 5 477 5 450.5 -16.5 c 128,-1,5
 424 -38 424 -38 397 -38 c 0,6,7
 382 -38 382 -38 359 -11 c 1,8,9
 319 -37 319 -37 260 -37 c 128,-1,10
 201 -37 201 -37 164 -17 c 128,-1,11
 127 3 127 3 86 43.5 c 128,-1,12
 45 84 45 84 32.5 132.5 c 128,-1,13
 20 181 20 181 20 252 c 2,14,-1
 20 391 l 2,15,16
 20 541 20 541 42 621 c 1,17,18
 56 666 56 666 115 695 c 128,-1,19
 174 724 174 724 244 724 c 128,-1,20
 314 724 314 724 347.5 715 c 128,-1,21
 381 706 381 706 408 673 c 1,22,23
 498 604 498 604 498 348 c 1,24,-1
 493 211 l 1,0,1
468 368 m 0,25,26
 468 511 468 511 439 602 c 1,27,28
 408 676 408 676 370 695 c 128,-1,29
 332 714 332 714 255 714 c 128,-1,30
 178 714 178 714 122 687 c 128,-1,31
 66 660 66 660 52 618 c 1,32,33
 30 539 30 539 30 381 c 2,34,-1
 30 235 l 2,35,36
 30 171 30 171 48.5 119 c 128,-1,37
 67 67 67 67 116.5 30 c 128,-1,38
 166 -7 166 -7 242 -7 c 0,39,40
 271 -7 271 -7 300 2 c 128,-1,41
 329 11 329 11 340 24 c 1,42,43
 347 14 347 14 359 3 c 128,-1,44
 371 -8 371 -8 377 -8 c 0,45,46
 399 -8 399 -8 423 11 c 128,-1,47
 447 30 447 30 447 48 c 0,48,49
 447 55 447 55 428 78 c 1,50,51
 452 135 452 135 456 165 c 1,52,53
 462 187 462 187 463 220 c 128,-1,54
 464 253 464 253 466 278.5 c 128,-1,55
 468 304 468 304 468 368 c 0,25,26
294 232 m 128,-1,57
 287 232 287 232 281 228.5 c 128,-1,58
 275 225 275 225 268.5 219 c 128,-1,59
 262 213 262 213 258.5 210.5 c 128,-1,60
 255 208 255 208 244.5 202.5 c 128,-1,61
 234 197 234 197 230 192.5 c 128,-1,62
 226 188 226 188 226 179 c 0,63,64
 226 159 226 159 269 116 c 1,65,66
 267 115 267 115 260 115 c 2,67,-1
 251 115 l 2,68,69
 196 115 196 115 174 148.5 c 128,-1,70
 152 182 152 182 152 271 c 0,71,72
 152 410 152 410 158 475 c 128,-1,73
 164 540 164 540 178.5 552.5 c 128,-1,74
 193 565 193 565 243.5 565 c 128,-1,75
 294 565 294 565 313 544.5 c 128,-1,76
 332 524 332 524 336 484 c 0,77,78
 344 378 344 378 344 300.5 c 128,-1,79
 344 223 344 223 334 182 c 1,80,81
 327 189 327 189 320.5 202 c 128,-1,82
 314 215 314 215 307.5 223.5 c 128,-1,56
 301 232 301 232 294 232 c 128,-1,57
183 297 m 1,83,-1
 182 245 l 1,84,85
 182 184 182 184 191 154 c 1,86,-1
 190 155 l 1,87,88
 199 125 199 125 247 125 c 1,89,90
 216 156 216 156 216 174 c 128,-1,91
 216 192 216 192 222.5 199 c 128,-1,92
 229 206 229 206 241.5 212 c 128,-1,93
 254 218 254 218 262 226 c 1,94,95
 283 242 283 242 293 242 c 128,-1,96
 303 242 303 242 312.5 231 c 128,-1,97
 322 220 322 220 328 217 c 1,98,99
 330 244 330 244 332 248 c 1,100,101
 333 259 333 259 333 286 c 2,102,-1
 333 361 l 2,103,104
 333 493 333 493 314 525 c 1,105,106
 297 535 297 535 258 535 c 128,-1,107
 219 535 219 535 206.5 524 c 128,-1,108
 194 513 194 513 188.5 450 c 128,-1,109
 183 387 183 387 183 323 c 2,110,-1
 183 297 l 1,83,-1
EndSplineSet
EndChar

StartChar: R
Encoding: 82 82 53
Width: 518
GlyphClass: 2
Flags: W
LayerCount: 2
Fore
SplineSet
179 559 m 1,0,1
 215 575 215 575 249.5 575 c 128,-1,2
 284 575 284 575 306 554.5 c 128,-1,3
 328 534 328 534 328 498.5 c 128,-1,4
 328 463 328 463 307.5 448 c 128,-1,5
 287 433 287 433 248.5 433 c 128,-1,6
 210 433 210 433 185 436 c 1,7,-1
 184 436 l 1,8,9
 181 453 181 453 180.5 499 c 128,-1,10
 180 545 180 545 179 559 c 1,0,1
210 457 m 1,11,-1
 211 443 l 1,12,-1
 241 443 l 2,13,14
 263 443 263 443 284 446 c 1,15,16
 319 453 319 453 319 499 c 128,-1,17
 319 545 319 545 270 545 c 0,18,19
 242 545 242 545 209 532 c 1,20,21
 211 506 211 506 211 486 c 2,22,-1
 210 457 l 1,11,-1
137 -31 m 1,23,-1
 93 -30 l 1,24,-1
 35 -30 l 1,25,26
 34 -10 34 -10 34 21 c 128,-1,27
 34 52 34 52 34 102.5 c 128,-1,28
 34 153 34 153 34 236 c 128,-1,29
 34 319 34 319 30.5 491 c 128,-1,30
 27 663 27 663 21 707 c 1,31,32
 161 727 161 727 223 727 c 0,33,34
 389 727 389 727 461 643 c 1,35,36
 533 554 533 554 533 481.5 c 128,-1,37
 533 409 533 409 490 347 c 128,-1,38
 447 285 447 285 374 277 c 1,39,40
 394 242 394 242 432 186 c 0,41,42
 516 64 516 64 545 -14 c 1,43,-1
 551 -27 l 1,44,-1
 537 -27 l 1,45,-1
 416 -31 l 2,46,47
 395 -31 395 -31 363 -29 c 1,48,49
 362 -27 362 -27 360 -22.5 c 128,-1,50
 358 -18 358 -18 356 -16 c 1,51,52
 353 -9 353 -9 343 -9 c 1,53,54
 291 114 291 114 236 199 c 1,55,-1
 236 173 l 1,56,-1
 244 -15 l 1,57,58
 211 -31 211 -31 137 -31 c 1,23,-1
50 1 m 2,59,-1
 111 -1 l 1,60,61
 189 -1 189 -1 214 11 c 1,62,63
 206 110 206 110 206 170 c 128,-1,64
 206 230 206 230 209 255 c 1,65,-1
 211 252 l 1,66,67
 278 169 278 169 350 1 c 1,68,-1
 351 1 l 1,69,70
 385 -1 385 -1 404.5 -1 c 128,-1,71
 424 -1 424 -1 462 1 c 128,-1,72
 500 3 500 3 516 3 c 1,73,74
 492 68 492 68 420 177.5 c 128,-1,75
 348 287 348 287 338 305 c 1,76,-1
 343 306 l 1,77,78
 418 312 418 312 460 371 c 128,-1,79
 502 430 502 430 502 505.5 c 128,-1,80
 502 581 502 581 443 645 c 128,-1,81
 384 709 384 709 296 713 c 1,82,83
 263 717 263 717 211 717 c 128,-1,84
 159 717 159 717 33 699 c 1,85,86
 44 641 44 641 44 203 c 2,87,-1
 44 100 l 2,88,89
 44 52 44 52 43 33 c 1,90,-1
 43 2 l 1,91,92
 46 1 46 1 50 1 c 2,59,-1
EndSplineSet
EndChar

StartChar: S
Encoding: 83 83 54
Width: 485
GlyphClass: 2
Flags: W
LayerCount: 2
Fore
SplineSet
60 219 m 2,0,-1
 175 217 l 1,1,2
 175 206 175 206 178 197 c 1,3,-1
 195 197 l 1,4,5
 195 172 195 172 206 162.5 c 128,-1,6
 217 153 217 153 239 153 c 128,-1,7
 261 153 261 153 276 165 c 128,-1,8
 291 177 291 177 291 193.5 c 128,-1,9
 291 210 291 210 288 219 c 128,-1,10
 285 228 285 228 277.5 234 c 128,-1,11
 270 240 270 240 264.5 244 c 128,-1,12
 259 248 259 248 246.5 251.5 c 128,-1,13
 234 255 234 255 228.5 256.5 c 128,-1,14
 223 258 223 258 208 260.5 c 128,-1,15
 193 263 193 263 190 264 c 2,16,-1
 175 267 l 2,17,18
 128 277 128 277 82 323 c 1,19,20
 12 390 12 390 12 483 c 128,-1,21
 12 576 12 576 80 642.5 c 128,-1,22
 148 709 148 709 249 709 c 128,-1,23
 350 709 350 709 424 652.5 c 128,-1,24
 498 596 498 596 498 501 c 0,25,26
 498 476 498 476 492 444 c 1,27,-1
 484 444 l 1,28,29
 440 437 440 437 397.5 437 c 128,-1,30
 355 437 355 437 320 447 c 1,31,32
 321 450 321 450 321 462 c 1,33,34
 307 464 307 464 300 467 c 1,35,36
 301 470 301 470 301 480 c 0,37,38
 301 515 301 515 263 515 c 0,39,40
 243 515 243 515 229 503 c 128,-1,41
 215 491 215 491 215 475.5 c 128,-1,42
 215 460 215 460 217 454.5 c 128,-1,43
 219 449 219 449 224 446.5 c 128,-1,44
 229 444 229 444 232 443 c 0,45,46
 239 440 239 440 253 440 c 1,47,48
 347 426 347 426 420 350.5 c 128,-1,49
 493 275 493 275 493 181.5 c 128,-1,50
 493 88 493 88 429 26.5 c 128,-1,51
 365 -35 365 -35 269 -35 c 128,-1,52
 173 -35 173 -35 87 30.5 c 128,-1,53
 1 96 1 96 1 188 c 1,54,-1
 2 201 l 1,55,-1
 2 215 l 1,56,57
 29 219 29 219 60 219 c 2,0,-1
165 207 m 1,58,-1
 64 209 l 2,59,60
 36 209 36 209 12 206 c 1,61,-1
 12 189 l 2,62,63
 12 101 12 101 87.5 48 c 128,-1,64
 163 -5 163 -5 253 -5 c 128,-1,65
 343 -5 343 -5 403 51.5 c 128,-1,66
 463 108 463 108 463 199.5 c 128,-1,67
 463 291 463 291 400 355.5 c 128,-1,68
 337 420 337 420 252 430 c 0,69,70
 185 437 185 437 185 489 c 0,71,72
 185 516 185 516 202 530.5 c 128,-1,73
 219 545 219 545 245 545 c 128,-1,74
 271 545 271 545 292 529 c 128,-1,75
 313 513 313 513 313 487 c 0,76,77
 313 478 313 478 312 475 c 1,78,79
 345 466 345 466 378.5 466 c 128,-1,80
 412 466 412 466 462 474 c 1,81,-1
 463 474 l 1,82,83
 468 502 468 502 468 521 c 0,84,85
 468 610 468 610 404.5 654.5 c 128,-1,86
 341 699 341 699 246 699 c 128,-1,87
 151 699 151 699 86.5 636 c 128,-1,88
 22 573 22 573 22 482 c 0,89,90
 22 424 22 424 57.5 366 c 128,-1,91
 93 308 93 308 157 297 c 0,92,93
 162 296 162 296 180.5 292.5 c 128,-1,94
 199 289 199 289 206 287 c 128,-1,95
 213 285 213 285 229 280.5 c 128,-1,96
 245 276 245 276 252.5 272 c 128,-1,97
 260 268 260 268 271 260.5 c 128,-1,98
 282 253 282 253 288 245 c 0,99,100
 301 225 301 225 301 198 c 128,-1,101
 301 171 301 171 283 157 c 128,-1,102
 265 143 265 143 237.5 143 c 128,-1,103
 210 143 210 143 188.5 159.5 c 128,-1,104
 167 176 167 176 165 207 c 1,58,-1
EndSplineSet
EndChar

StartChar: T
Encoding: 84 84 55
Width: 443
GlyphClass: 2
Flags: W
LayerCount: 2
Fore
SplineSet
442 686 m 1,0,-1
 453 685 l 1,1,-1
 462 676 l 1,2,3
 464 642 464 642 464 606 c 128,-1,4
 464 570 464 570 456 508 c 1,5,6
 424 513 424 513 403 513 c 128,-1,7
 382 513 382 513 336 510 c 1,8,-1
 331 510 l 1,9,10
 330 501 330 501 330 431.5 c 128,-1,11
 330 362 330 362 337 -23 c 1,12,13
 314 -27 314 -27 274 -27 c 2,14,-1
 245 -27 l 2,15,16
 189 -27 189 -27 158 -32 c 1,17,18
 155 -27 155 -27 153 -10 c 0,19,20
 152 -10 152 -10 138 -12 c 1,21,22
 133 -3 133 -3 133 26 c 2,23,-1
 134 179 l 2,24,25
 134 322 134 322 125 511 c 1,26,27
 115 512 115 512 74.5 512 c 128,-1,28
 34 512 34 512 27 518 c 0,29,30
 26 520 26 520 25.5 523 c 128,-1,31
 25 526 25 526 24 528 c 1,32,33
 24 532 24 532 7 538 c 1,34,35
 -1 556 -1 556 -1 623.5 c 128,-1,36
 -1 691 -1 691 0 714 c 1,37,-1
 191 716 l 1,38,39
 336 716 336 716 433 705 c 1,40,-1
 442 696 l 1,41,-1
 442 686 l 1,0,-1
307 8 m 1,42,43
 300 392 300 392 300 461.5 c 128,-1,44
 300 531 300 531 303 540 c 1,45,-1
 306 540 l 1,46,47
 358 543 358 543 385 543 c 128,-1,48
 412 543 412 543 428 540 c 1,49,50
 434 584 434 584 434 620.5 c 128,-1,51
 434 657 434 657 432 695 c 1,52,53
 333 705 333 705 246 705 c 128,-1,54
 159 705 159 705 99 704.5 c 128,-1,55
 39 704 39 704 10 704 c 1,56,-1
 11 702 l 1,57,58
 9 688 9 688 9 622 c 128,-1,59
 9 556 9 556 15 545 c 1,60,61
 18 544 18 544 67 543 c 128,-1,62
 116 542 116 542 135 533 c 1,63,-1
 136 532 l 1,64,65
 144 350 144 350 144 172 c 1,66,-1
 142 9 l 2,67,68
 142 7 142 7 143 -1 c 1,69,70
 161 2 161 2 182 2 c 2,71,-1
 224 2 l 2,72,73
 283 2 283 2 307 6 c 1,74,-1
 307 8 l 1,42,43
EndSplineSet
EndChar

StartChar: U
Encoding: 85 85 56
Width: 505
GlyphClass: 2
Flags: W
LayerCount: 2
Fore
SplineSet
191 667 m 1,0,-1
 212 662 l 1,1,2
 200 445 200 445 221 166 c 1,3,4
 224 148 224 148 246 148 c 0,5,6
 294 148 294 148 304 190 c 1,7,8
 308 279 308 279 309.5 445.5 c 128,-1,9
 311 612 311 612 313 681 c 1,10,11
 367 689 367 689 413 689 c 128,-1,12
 459 689 459 689 475 677 c 1,13,-1
 479 669 l 1,14,-1
 479 664 l 1,15,16
 490 661 490 661 495 657 c 1,17,-1
 499 649 l 1,18,19
 504 542 504 542 504 412.5 c 128,-1,20
 504 283 504 283 487 130 c 1,21,22
 477 52 477 52 421 3 c 128,-1,23
 365 -46 365 -46 274.5 -46 c 128,-1,24
 184 -46 184 -46 107.5 7.5 c 128,-1,25
 31 61 31 61 27 147 c 1,26,-1
 32 588 l 2,27,28
 32 659 32 659 31 690 c 1,29,-1
 111 692 l 1,30,31
 158 692 158 692 192 682 c 1,32,-1
 191 667 l 1,0,-1
42 585 m 1,33,-1
 37 147 l 1,34,35
 39 69 39 69 106.5 26.5 c 128,-1,36
 174 -16 174 -16 260 -16 c 128,-1,37
 346 -16 346 -16 397 29 c 128,-1,38
 448 74 448 74 457 151 c 0,39,40
 474 292 474 292 474 427 c 128,-1,41
 474 562 474 562 469 669 c 1,42,43
 453 679 453 679 415 679 c 128,-1,44
 377 679 377 679 323 672 c 1,45,46
 322 619 322 619 320 449.5 c 128,-1,47
 318 280 318 280 314 188 c 1,48,49
 309 165 309 165 290.5 151.5 c 128,-1,50
 272 138 272 138 250 138 c 0,51,52
 204 138 204 138 191 183 c 1,53,54
 178 339 178 339 178 469 c 128,-1,55
 178 599 178 599 182 674 c 1,56,-1
 182 675 l 1,57,58
 155 682 155 682 115 682 c 1,59,-1
 41 680 l 1,60,-1
 40 680 l 1,61,-1
 41 679 l 1,62,-1
 42 585 l 1,33,-1
EndSplineSet
EndChar

StartChar: V
Encoding: 86 86 57
Width: 440
GlyphClass: 2
Flags: W
LayerCount: 2
Fore
SplineSet
307 -29 m 1,0,-1
 236 -33 l 1,1,2
 173 -33 173 -33 144 -22 c 1,3,4
 143 -20 143 -20 141.5 -14.5 c 128,-1,5
 140 -9 140 -9 124 -2 c 1,6,7
 35 317 35 317 6 685 c 1,8,9
 24 706 24 706 85.5 706 c 128,-1,10
 147 706 147 706 167 701 c 1,11,12
 169 687 169 687 172.5 684 c 128,-1,13
 176 681 176 681 187 681 c 1,14,15
 190 666 190 666 195 538.5 c 128,-1,16
 200 411 200 411 219 307 c 1,17,18
 224 329 224 329 252 494 c 128,-1,19
 280 659 280 659 294 705 c 1,20,21
 329 698 329 698 378.5 697.5 c 128,-1,22
 428 697 428 697 447 694 c 1,23,-1
 455 682 l 1,24,25
 454 681 454 681 454 676 c 1,26,27
 458 674 458 674 467 674 c 1,28,-1
 475 662 l 1,29,30
 426 400 426 400 307 -29 c 1,0,-1
216 -3 m 1,31,-1
 279 1 l 1,32,33
 397 429 397 429 445 684 c 1,34,35
 423 688 423 688 374 688 c 128,-1,36
 325 688 325 688 301 693 c 0,37,38
 299 693 299 693 299 691 c 0,39,40
 286 642 286 642 262.5 491 c 128,-1,41
 239 340 239 340 211 223 c 1,42,43
 171 390 171 390 164 602 c 0,44,45
 161 677 161 677 158 692 c 1,46,47
 146 696 146 696 86.5 696 c 128,-1,48
 27 696 27 696 16 682 c 1,49,-1
 16 681 l 1,50,51
 45 322 45 322 133 5 c 1,52,53
 157 -3 157 -3 216 -3 c 1,31,-1
EndSplineSet
EndChar

StartChar: W
Encoding: 87 87 58
Width: 465
GlyphClass: 2
Flags: W
LayerCount: 2
Fore
SplineSet
455 688 m 1,0,-1
 469 687 l 1,1,-1
 476 675 l 1,2,3
 467 569 467 569 443 336 c 128,-1,4
 419 103 419 103 409 -23 c 1,5,6
 394 -27 394 -27 374 -27 c 2,7,-1
 313 -27 l 1,8,9
 310 -23 310 -23 301 -7 c 1,10,-1
 293 -7 l 1,11,12
 278 14 278 14 271 37.5 c 128,-1,13
 264 61 264 61 258.5 84 c 128,-1,14
 253 107 253 107 250 116 c 1,15,16
 246 102 246 102 240 72 c 0,17,18
 227 6 227 6 209 -22 c 1,19,20
 178 -28 178 -28 156.5 -28 c 128,-1,21
 135 -28 135 -28 107 -24 c 1,22,-1
 104 -6 l 1,23,24
 101 -6 101 -6 87 -4 c 1,25,-1
 74 87 l 2,26,27
 16 494 16 494 13 705 c 1,28,29
 49 711 49 711 88 711 c 1,30,-1
 175 708 l 1,31,32
 175 692 175 692 179 690 c 128,-1,33
 183 688 183 688 184.5 687.5 c 128,-1,34
 186 687 186 687 190 687.5 c 128,-1,35
 194 688 194 688 195 688 c 0,36,37
 200 632 200 632 200 521 c 2,38,-1
 200 462 l 2,39,40
 200 394 200 394 202 375 c 1,41,42
 212 455 212 455 233 476 c 1,43,44
 242 467 242 467 249 452 c 1,45,-1
 253 456 l 1,46,47
 269 444 269 444 285 375 c 1,48,49
 293 650 293 650 298 702 c 1,50,51
 333 710 333 710 374.5 710 c 128,-1,52
 416 710 416 710 449 707 c 1,53,-1
 456 695 l 1,54,-1
 455 688 l 1,0,-1
446 696 m 1,55,56
 442 700 442 700 388.5 700 c 128,-1,57
 335 700 335 700 307 694 c 1,58,-1
 307 693 l 1,59,60
 302 635 302 635 298.5 480.5 c 128,-1,61
 295 326 295 326 289 268 c 1,62,63
 283 284 283 284 271 332 c 0,64,65
 239 459 239 459 234 463 c 1,66,67
 234 453 234 453 187 281 c 1,68,69
 170 346 170 346 170 488 c 2,70,-1
 170 599 l 2,71,72
 170 659 170 659 166 698 c 1,73,74
 94 701 94 701 75 701 c 128,-1,75
 56 701 56 701 23 696 c 1,76,-1
 23 695 l 1,77,78
 26 533 26 533 42.5 401.5 c 128,-1,79
 59 270 59 270 63.5 237 c 128,-1,80
 68 204 68 204 80.5 116 c 128,-1,81
 93 28 93 28 96 5 c 1,82,-1
 97 5 l 1,83,84
 120 2 120 2 138 2 c 128,-1,85
 156 2 156 2 184 7 c 1,86,87
 193 22 193 22 209 91 c 128,-1,88
 225 160 225 160 238 173 c 1,89,-1
 239 173 l 1,90,91
 251 155 251 155 268.5 87 c 128,-1,92
 286 19 286 19 298 3 c 1,93,-1
 364 3 l 2,94,95
 370 3 370 3 380 5 c 1,96,97
 390 128 390 128 413.5 358.5 c 128,-1,98
 437 589 437 589 446 696 c 1,55,56
EndSplineSet
EndChar

StartChar: X
Encoding: 88 88 59
Width: 436
GlyphClass: 2
Flags: W
LayerCount: 2
Fore
SplineSet
20 -4 m 1,0,1
 15 -2 15 -2 -3 3 c 1,2,3
 7 41 7 41 47.5 159 c 128,-1,4
 88 277 88 277 103 347 c 1,5,6
 90 420 90 420 66.5 484.5 c 128,-1,7
 43 549 43 549 39 560 c 0,8,9
 23 604 23 604 5 646 c 1,10,-1
 -15 698 l 1,11,12
 57 703 57 703 99 703 c 2,13,-1
 118 703 l 2,14,15
 120 703 120 703 128.5 703 c 128,-1,16
 137 703 137 703 143.5 702.5 c 128,-1,17
 150 702 150 702 156.5 697 c 128,-1,18
 163 692 163 692 163 682 c 1,19,20
 183 680 183 680 208 576 c 0,21,22
 219 527 219 527 223 515 c 1,23,24
 232 544 232 544 250.5 611 c 128,-1,25
 269 678 269 678 278 705 c 1,26,27
 325 709 325 709 409 709 c 2,28,-1
 449 709 l 1,29,-1
 449 695 l 1,30,-1
 447 689 l 1,31,-1
 469 689 l 1,32,-1
 469 675 l 1,33,34
 458 642 458 642 431 568 c 0,35,36
 377 419 377 419 361 322 c 1,37,38
 375 253 375 253 411 130.5 c 128,-1,39
 447 8 447 8 457 -30 c 1,40,41
 430 -27 430 -27 418 -27 c 2,42,-1
 354 -29 l 2,43,44
 344 -29 344 -29 337 -29 c 128,-1,45
 330 -29 330 -29 323.5 -28.5 c 128,-1,46
 317 -28 317 -28 314 -26.5 c 128,-1,47
 311 -25 311 -25 306 -22 c 0,48,49
 299 -18 299 -18 295 -6 c 1,50,51
 274 -3 274 -3 260 56 c 0,52,53
 237 154 237 154 233 167 c 1,54,55
 228 153 228 153 209.5 84.5 c 128,-1,56
 191 16 191 16 171 -28 c 1,57,58
 141 -30 141 -30 97 -30 c 128,-1,59
 53 -30 53 -30 17 -17 c 1,60,61
 20 -11 20 -11 20 -4 c 1,0,1
334 1 m 2,62,-1
 398 3 l 1,63,-1
 411 3 l 2,64,65
 421 3 421 3 424 2 c 1,66,67
 417 29 417 29 401 85 c 1,68,-1
 375 170 l 1,69,70
 343 266 343 266 331 341 c 1,71,72
 346 436 346 436 388 551 c 1,73,-1
 440 700 l 1,74,-1
 439 700 l 2,75,76
 333 700 333 700 286 696 c 1,77,-1
 286 695 l 1,78,79
 282 684 282 684 256.5 591 c 128,-1,80
 231 498 231 498 217 467 c 1,81,82
 205 500 205 500 151 688 c 1,83,84
 148 693 148 693 137 693 c 2,85,-1
 99 693 l 2,86,87
 56 693 56 693 -1 689 c 1,88,89
 3 678 3 678 17.5 642 c 128,-1,90
 32 606 32 606 37.5 591.5 c 128,-1,91
 43 577 43 577 55 545 c 128,-1,92
 67 513 67 513 73 494 c 128,-1,93
 79 475 79 475 88 448 c 1,94,95
 101 402 101 402 113 347 c 1,96,97
 107 317 107 317 61 173 c 1,98,-1
 33 88 l 2,99,100
 18 43 18 43 9 9 c 1,101,102
 34 0 34 0 74.5 0 c 128,-1,103
 115 0 115 0 145 2 c 1,104,105
 161 36 161 36 182 114.5 c 128,-1,106
 203 193 203 193 220 231 c 1,107,-1
 221 230 l 1,108,109
 238 197 238 197 256.5 116.5 c 128,-1,110
 275 36 275 36 289 6 c 1,111,-1
 290 5 l 1,112,113
 305 1 305 1 334 1 c 2,62,-1
EndSplineSet
EndChar

StartChar: Y
Encoding: 89 89 60
Width: 435
GlyphClass: 2
Flags: W
LayerCount: 2
Fore
SplineSet
3 702 m 1,0,-1
 102 708 l 1,1,2
 156 708 156 708 161 683 c 1,3,4
 169 681 169 681 178 677 c 1,5,6
 192 610 192 610 233 507 c 1,7,8
 245 535 245 535 267 604 c 128,-1,9
 289 673 289 673 300 697 c 1,10,11
 331 705 331 705 377.5 705 c 128,-1,12
 424 705 424 705 460 702 c 1,13,-1
 460 689 l 1,14,-1
 458 684 l 1,15,16
 474 682 474 682 480 682 c 1,17,-1
 480 669 l 1,18,19
 442 546 442 546 331.5 313.5 c 128,-1,20
 221 81 221 81 182 -31 c 1,21,22
 171 -29 171 -29 151 -29 c 2,23,-1
 57 -32 l 2,24,25
 30 -32 30 -32 17 -30 c 1,26,-1
 23 -12 l 1,27,28
 19 -12 19 -12 -3 -10 c 1,29,30
 34 104 34 104 132 347 c 1,31,32
 118 407 118 407 68 522 c 128,-1,33
 18 637 18 637 3 702 c 1,0,-1
37 -2 m 1,34,-1
 131 1 l 1,35,-1
 144 1 l 2,36,37
 153 1 153 1 156 0 c 1,38,39
 194 110 194 110 302.5 338.5 c 128,-1,40
 411 567 411 567 450 692 c 1,41,-1
 450 693 l 1,42,43
 434 695 434 695 387.5 695 c 128,-1,44
 341 695 341 695 307 688 c 1,45,46
 298 667 298 667 269.5 582.5 c 128,-1,47
 241 498 241 498 226 471 c 1,48,49
 207 512 207 512 182.5 580 c 128,-1,50
 158 648 158 648 149 690 c 1,51,52
 132 698 132 698 109.5 698 c 128,-1,53
 87 698 87 698 58 695 c 128,-1,54
 29 692 29 692 16 692 c 1,55,56
 30 635 30 635 79 520 c 128,-1,57
 128 405 128 405 142 347 c 1,58,-1
 142 345 l 1,59,60
 44 102 44 102 11 -1 c 1,61,-1
 13 -1 l 1,62,63
 16 -2 16 -2 25 -2 c 2,64,-1
 37 -2 l 1,34,-1
EndSplineSet
EndChar

StartChar: Z
Encoding: 90 90 61
Width: 474
GlyphClass: 2
Flags: W
LayerCount: 2
Fore
SplineSet
483 629 m 2,0,-1
 481 515 l 1,1,-1
 480 509 l 1,2,3
 430 423 430 423 347 307 c 128,-1,4
 264 191 264 191 247 166 c 1,5,6
 296 170 296 170 358 170 c 128,-1,7
 420 170 420 170 430 171 c 128,-1,8
 440 172 440 172 443 171 c 0,9,10
 454 168 454 168 457 150 c 1,11,-1
 474 150 l 1,12,13
 479 120 479 120 479 89 c 128,-1,14
 479 58 479 58 472 -33 c 1,15,16
 348 -26 348 -26 238 -26 c 128,-1,17
 128 -26 128 -26 48 -31 c 1,18,19
 44 -20 44 -20 42 -10 c 1,20,21
 31 -10 31 -10 28 -11 c 1,22,23
 15 22 15 22 15 65 c 1,24,-1
 17 123 l 2,25,26
 17 136 17 136 15 160 c 1,27,28
 51 238 51 238 79.5 282 c 128,-1,29
 108 326 108 326 118.5 341.5 c 128,-1,30
 129 357 129 357 150.5 387.5 c 128,-1,31
 172 418 172 418 180 429 c 128,-1,32
 188 440 188 440 211.5 471.5 c 128,-1,33
 235 503 235 503 240 510 c 1,34,35
 133 518 133 518 43 518 c 1,36,-1
 35 538 l 1,37,-1
 23 538 l 1,38,39
 13 555 13 555 13 615.5 c 128,-1,40
 13 676 13 676 -9 698 c 1,41,42
 100 708 100 708 200 708 c 1,43,-1
 460 704 l 1,44,45
 460 692 460 692 462 684 c 1,46,-1
 480 684 l 1,47,48
 483 661 483 661 483 629 c 2,0,-1
26 126 m 2,49,-1
 25 67 l 2,50,51
 25 26 25 26 34 -1 c 1,52,53
 141 4 141 4 239.5 4 c 128,-1,54
 338 4 338 4 443 -2 c 1,55,-1
 443 0 l 1,56,57
 448 52 448 52 448 92 c 128,-1,58
 448 132 448 132 445 160 c 1,59,-1
 445 163 l 1,60,61
 407 161 407 161 358 160 c 1,62,63
 270 160 270 160 193 150 c 1,64,-1
 194 151 l 1,65,66
 221 192 221 192 314 325 c 128,-1,67
 407 458 407 458 451 534 c 1,68,-1
 451 535 l 1,69,-1
 454 645 l 2,70,71
 454 670 454 670 451 694 c 1,72,73
 451 694 451 694 198 697 c 1,74,75
 73 697 73 697 13 690 c 1,76,77
 15 688 15 688 15 686 c 2,78,-1
 15 685 l 1,79,80
 21 665 21 665 21 626 c 2,81,-1
 21 604 l 2,82,83
 21 562 21 562 29 548 c 1,84,85
 171 548 171 548 270 535 c 1,86,87
 86 290 86 290 25 159 c 1,88,89
 26 148 26 148 26 126 c 2,49,-1
EndSplineSet
EndChar

StartChar: bracketleft
Encoding: 91 91 62
Width: 321
GlyphClass: 2
Flags: W
LayerCount: 2
Fore
SplineSet
224 555 m 1,0,-1
 210 556 l 1,1,2
 206 504 206 504 206 443 c 128,-1,3
 206 382 206 382 214 147 c 1,4,5
 229 145 229 145 258.5 143.5 c 128,-1,6
 288 142 288 142 300 141 c 1,7,8
 300 126 300 126 303.5 123.5 c 128,-1,9
 307 121 307 121 320 121 c 1,10,11
 325 69 325 69 325 33 c 128,-1,12
 325 -3 325 -3 323 -29 c 1,13,-1
 217 -30 l 1,14,-1
 195 -30 l 2,15,16
 88 -30 88 -30 53 -33 c 1,17,-1
 53 -11 l 1,18,19
 41 -11 41 -11 33 -13 c 1,20,-1
 33 338 l 2,21,22
 33 549 33 549 44 714 c 1,23,24
 74 719 74 719 112 719 c 1,25,-1
 250 714 l 1,26,27
 283 714 283 714 307 717 c 1,28,-1
 307 695 l 1,29,30
 311 695 311 695 327 697 c 1,31,-1
 327 664 l 2,32,33
 327 585 327 585 314 558 c 1,34,-1
 298 558 l 1,35,-1
 224 555 l 1,0,-1
44 118 m 1,36,-1
 43 2 l 1,37,-1
 43 -2 l 1,38,39
 73 0 73 0 118 0 c 2,40,-1
 294 0 l 1,41,42
 295 13 295 13 295 52 c 128,-1,43
 295 91 295 91 291 132 c 1,44,45
 281 133 281 133 259 134 c 0,46,47
 206 136 206 136 184 142 c 1,48,-1
 184 143 l 1,49,-1
 176 460 l 1,50,51
 176 537 176 537 181 586 c 1,52,-1
 182 586 l 1,53,54
 189 585 189 585 199 585 c 2,55,-1
 271 589 l 1,56,-1
 288 588 l 1,57,-1
 291 588 l 1,58,59
 297 608 297 608 297 640 c 2,60,-1
 297 706 l 1,61,62
 287 704 287 704 251 704 c 1,63,-1
 115 709 l 1,64,65
 81 709 81 709 53 705 c 1,66,-1
 53 704 l 1,67,68
 43 554 43 554 43 337 c 2,69,-1
 44 118 l 1,36,-1
EndSplineSet
EndChar

StartChar: backslash
Encoding: 92 92 63
Width: 412
GlyphClass: 2
Flags: W
LayerCount: 2
Fore
SplineSet
71 718 m 2,0,-1
 118 717 l 2,1,2
 138 717 138 717 159 721 c 1,3,4
 160 717 160 717 162 709.5 c 128,-1,5
 164 702 164 702 165 698 c 1,6,7
 170 700 170 700 179 701 c 1,8,9
 217 558 217 558 223.5 543 c 128,-1,10
 230 528 230 528 234.5 518.5 c 128,-1,11
 239 509 239 509 243 495 c 1,12,-1
 242 495 l 1,13,14
 266 424 266 424 313 294 c 128,-1,15
 360 164 360 164 362 161 c 2,16,-1
 361 162 l 1,17,18
 374 134 374 134 394 73 c 1,19,-1
 393 73 l 1,20,21
 393 72 393 72 394 69 c 0,22,23
 398 62 398 62 409 32 c 128,-1,24
 420 2 420 2 420 -14.5 c 128,-1,25
 420 -31 420 -31 409 -31 c 0,26,27
 365 -30 365 -30 341.5 -30 c 128,-1,28
 318 -30 318 -30 307 -30 c 0,29,30
 290 -31 290 -31 280 -28 c 1,31,32
 275 -23 275 -23 269 -9 c 1,33,34
 256 -9 256 -9 252 4 c 1,35,-1
 195 147 l 2,36,37
 190 158 190 158 183 180 c 128,-1,38
 176 202 176 202 163 233 c 128,-1,39
 150 264 150 264 114.5 373 c 128,-1,40
 79 482 79 482 59 535 c 1,41,42
 13 683 13 683 13 686 c 1,43,-1
 14 686 l 1,44,45
 12 695 12 695 10 697 c 2,46,-1
 6 705 l 1,47,48
 33 718 33 718 71 718 c 2,0,-1
122 706 m 2,49,-1
 64 708 l 1,50,51
 31 708 31 708 19 701 c 1,52,53
 23 692 23 692 50 606 c 0,54,55
 160 262 160 262 204 151 c 2,56,-1
 261 7 l 2,57,58
 264 0 264 0 297 0 c 2,59,-1
 333 0 l 2,60,61
 366 0 366 0 389 -1 c 1,62,-1
 390 -1 l 2,63,64
 392 -1 392 -1 392 7 c 128,-1,65
 392 15 392 15 364 90 c 1,66,67
 347 144 347 144 332 178 c 1,68,69
 273 332 273 332 200 554 c 1,70,71
 195 562 195 562 177.5 618.5 c 128,-1,72
 160 675 160 675 151 709 c 1,73,74
 137 706 137 706 122 706 c 2,49,-1
EndSplineSet
EndChar

StartChar: bracketright
Encoding: 93 93 64
Width: 321
GlyphClass: 2
Flags: W
LayerCount: 2
Fore
SplineSet
38 -29 m 1,0,-1
 36 -9 l 1,1,-1
 18 -9 l 1,2,3
 16 17 16 17 16 53 c 128,-1,4
 16 89 16 89 21 141 c 1,5,6
 31 142 31 142 52 143 c 0,7,8
 93 145 93 145 127 151 c 1,9,-1
 135 458 l 1,10,11
 135 507 135 507 132 555 c 1,12,-1
 62 558 l 1,13,-1
 43 558 l 1,14,15
 40 564 40 564 38 578 c 1,16,-1
 23 578 l 1,17,18
 14 603 14 603 14 684 c 2,19,-1
 14 717 l 1,20,21
 38 714 38 714 71 714 c 1,22,-1
 209 719 l 1,23,24
 248 719 248 719 277 713 c 1,25,26
 277 698 277 698 280 697 c 0,27,28
 288 693 288 693 297 693 c 1,29,30
 307 557 307 557 307 348 c 2,31,-1
 307 109 l 1,32,33
 306 96 306 96 306 79 c 2,34,-1
 308 -18 l 1,35,-1
 308 -33 l 1,36,37
 271 -30 271 -30 166 -30 c 2,38,-1
 144 -30 l 1,39,-1
 38 -29 l 1,0,-1
145 460 m 1,40,-1
 137 143 l 1,41,-1
 137 142 l 1,42,43
 115 136 115 136 77.5 134.5 c 128,-1,44
 40 133 40 133 30 132 c 1,45,46
 26 91 26 91 26 52 c 128,-1,47
 26 13 26 13 27 1 c 1,48,-1
 124 0 l 1,49,-1
 203 0 l 2,50,51
 248 0 248 0 278 -2 c 1,52,-1
 278 2 l 1,53,54
 276 104 276 104 276 156 c 2,55,-1
 277 367 l 1,56,57
 277 581 277 581 268 704 c 1,58,-1
 268 705 l 1,59,60
 240 709 240 709 205 709 c 1,61,-1
 69 704 l 1,62,63
 34 704 34 704 24 706 c 1,64,-1
 24 640 l 2,65,66
 24 608 24 608 30 588 c 1,67,-1
 33 588 l 1,68,-1
 49 589 l 1,69,-1
 122 585 l 2,70,71
 132 585 132 585 139 586 c 1,72,-1
 140 586 l 1,73,74
 145 537 145 537 145 460 c 1,40,-1
EndSplineSet
EndChar

StartChar: asciicircum
Encoding: 94 94 65
Width: 440
GlyphClass: 2
Flags: W
LayerCount: 2
Fore
SplineSet
443 452 m 1,0,-1
 444 450 l 1,1,2
 444 446 444 446 410 443 c 128,-1,3
 376 440 376 440 354 440 c 2,4,-1
 330 439 l 2,5,6
 306 439 306 439 297 444.5 c 128,-1,7
 288 450 288 450 278 456 c 1,8,9
 264 467 264 467 239 498 c 0,10,11
 238 498 238 498 238 500 c 1,12,13
 236 502 236 502 235 502 c 0,14,15
 234 501 234 501 216 482 c 0,16,17
 181 445 181 445 170 443 c 0,18,19
 148 441 148 441 144 441 c 128,-1,20
 140 441 140 441 123 442 c 0,21,22
 69 447 69 447 12 449 c 1,23,24
 14 452 14 452 18.5 458 c 128,-1,25
 23 464 23 464 25 467 c 1,26,27
 19 468 19 468 8 468 c 128,-1,28
 -3 468 -3 468 -8 469 c 1,29,30
 25 515 25 515 59 551 c 128,-1,31
 93 587 93 587 148 637 c 128,-1,32
 203 687 203 687 220 703 c 1,33,-1
 457 466 l 1,34,-1
 443 452 l 1,0,-1
11 478 m 1,35,36
 111 472 111 472 125.5 472 c 128,-1,37
 140 472 140 472 147.5 473 c 128,-1,38
 155 474 155 474 182 503 c 128,-1,39
 209 532 209 532 217 535 c 1,40,41
 224 531 224 531 250 502 c 128,-1,42
 276 473 276 473 283 473 c 1,43,44
 302 470 302 470 328.5 470 c 128,-1,45
 355 470 355 470 377 472 c 128,-1,46
 399 474 399 474 412 476.5 c 128,-1,47
 425 479 425 479 428 479 c 2,48,-1
 430 479 l 1,49,-1
 220 689 l 1,50,51
 201 671 201 671 164.5 638 c 128,-1,52
 128 605 128 605 107 585 c 0,53,54
 46 527 46 527 11 478 c 1,35,36
EndSplineSet
EndChar

StartChar: underscore
Encoding: 95 95 66
Width: 650
GlyphClass: 2
Flags: W
LayerCount: 2
Fore
SplineSet
33 -158 m 1,0,-1
 31 -42 l 1,1,-1
 31 -32 l 1,2,3
 118 -32 118 -32 250.5 -30.5 c 128,-1,4
 383 -29 383 -29 452.5 -28.5 c 128,-1,5
 522 -28 522 -28 569.5 -27.5 c 128,-1,6
 617 -27 617 -27 623 -27 c 1,7,8
 620 -36 620 -36 620 -47 c 1,9,-1
 643 -47 l 1,10,11
 636 -86 636 -86 636 -120 c 2,12,-1
 637 -180 l 1,13,-1
 134 -178 l 1,14,-1
 53 -178 l 1,15,-1
 52 -158 l 1,16,-1
 33 -158 l 1,0,-1
514 -37 m 1,17,-1
 41 -42 l 1,18,-1
 41 -71 l 2,19,20
 41 -90 41 -90 42 -119 c 2,21,-1
 43 -148 l 1,22,-1
 83 -148 l 1,23,-1
 441 -150 l 1,24,-1
 607 -150 l 1,25,-1
 606 -93 l 2,26,27
 606 -71 606 -71 611 -37 c 1,28,-1
 514 -37 l 1,17,-1
EndSplineSet
EndChar

StartChar: grave
Encoding: 96 96 67
Width: 255
GlyphClass: 2
Flags: W
LayerCount: 2
Fore
SplineSet
290 501 m 1,0,1
 244 491 244 491 197 491 c 128,-1,2
 150 491 150 491 129 494 c 1,3,4
 101 527 101 527 59 563 c 1,5,-1
 59 562 l 1,6,7
 47 572 47 572 -1 620 c 1,8,-1
 81 703 l 1,9,10
 115 676 115 676 177.5 610.5 c 128,-1,11
 240 545 240 545 270 521 c 1,12,-1
 269 520 l 1,13,14
 283 506 283 506 290 501 c 1,0,1
115 523 m 1,15,16
 125 521 125 521 177 521 c 128,-1,17
 229 521 229 521 249 527 c 1,18,19
 243 533 243 533 176.5 600.5 c 128,-1,20
 110 668 110 668 82 690 c 1,21,-1
 13 620 l 1,22,23
 17 616 17 616 62 575 c 128,-1,24
 107 534 107 534 115 523 c 1,15,16
EndSplineSet
EndChar

StartChar: a
Encoding: 97 97 68
Width: 476
GlyphClass: 2
Flags: W
LayerCount: 2
Fore
SplineSet
449 499 m 1,0,-1
 450 488 l 1,1,-1
 460 488 l 1,2,-1
 469 479 l 1,3,4
 471 463 471 463 471 454 c 2,5,-1
 471 444 l 1,6,7
 470 417 470 417 470 366 c 2,8,-1
 472 141 l 2,9,10
 472 82 472 82 470.5 44 c 128,-1,11
 469 6 469 6 469 -1 c 128,-1,12
 469 -8 469 -8 468.5 -9.5 c 128,-1,13
 468 -11 468 -11 467 -14.5 c 128,-1,14
 466 -18 466 -18 465 -19.5 c 128,-1,15
 464 -21 464 -21 462.5 -23.5 c 128,-1,16
 461 -26 461 -26 459 -27 c 128,-1,17
 457 -28 457 -28 448 -31 c 1,18,-1
 434 -31 l 1,19,-1
 369 -28 l 1,20,-1
 326 -31 l 1,21,22
 310 -27 310 -27 305 -11 c 1,23,24
 292 -6 292 -6 289 0 c 1,25,26
 237 -32 237 -32 185 -32 c 128,-1,27
 133 -32 133 -32 91 16.5 c 128,-1,28
 49 65 49 65 29 132 c 128,-1,29
 9 199 9 199 9 266 c 0,30,31
 9 379 9 379 65.5 443 c 128,-1,32
 122 507 122 507 209 507 c 0,33,34
 237 507 237 507 252.5 503 c 128,-1,35
 268 499 268 499 281 483 c 1,36,37
 281 493 281 493 282 497 c 128,-1,38
 283 501 283 501 283.5 504.5 c 128,-1,39
 284 508 284 508 285 509 c 128,-1,40
 286 510 286 510 287 512 c 128,-1,41
 288 514 288 514 290 514 c 0,42,43
 296 516 296 516 301 516 c 2,44,-1
 332 513 l 1,45,-1
 341 513 l 2,46,47
 367 513 367 513 440 508 c 1,48,-1
 449 499 l 1,0,-1
443 171 m 2,49,-1
 440 393 l 2,50,51
 440 440 440 440 441 464 c 1,52,-1
 441 474 l 2,53,54
 441 482 441 482 439 498 c 1,55,56
 411 500 411 500 341 503 c 1,57,-1
 330 503 l 1,58,-1
 303 504 l 2,59,60
 289 504 289 504 289 456 c 2,61,-1
 289 451 l 1,62,63
 280 473 280 473 263.5 483.5 c 128,-1,64
 247 494 247 494 232.5 495.5 c 128,-1,65
 218 497 218 497 187 497 c 0,66,67
 116 495 116 495 67.5 430 c 128,-1,68
 19 365 19 365 19 266 c 0,69,70
 19 128 19 128 83 44 c 0,71,72
 118 -2 118 -2 166 -2 c 0,73,74
 200 -2 200 -2 236.5 14.5 c 128,-1,75
 273 31 273 31 298 56 c 1,76,-1
 294 21 l 1,77,78
 294 4 294 4 306 -1 c 1,79,-1
 349 2 l 1,80,-1
 414 -1 l 1,81,-1
 426 -1 l 1,82,83
 439 2 439 2 439 26 c 2,84,-1
 439 40 l 1,85,86
 443 99 443 99 443 171 c 2,49,-1
178 344.5 m 128,-1,88
 202 363 202 363 232 363 c 128,-1,89
 262 363 262 363 271.5 361.5 c 128,-1,90
 281 360 281 360 286.5 346 c 128,-1,91
 292 332 292 332 292.5 320 c 128,-1,92
 293 308 293 308 293 278 c 2,93,-1
 293 236 l 2,94,95
 293 183 293 183 282.5 160.5 c 128,-1,96
 272 138 272 138 231 138 c 128,-1,97
 190 138 190 138 166 169 c 128,-1,98
 142 200 142 200 142 239.5 c 128,-1,99
 142 279 142 279 148 302.5 c 128,-1,87
 154 326 154 326 178 344.5 c 128,-1,88
283 273 m 1,100,-1
 284 302 l 2,101,102
 284 329 284 329 271 332 c 0,103,104
 267 333 267 333 261 333 c 0,105,106
 226 333 226 333 205 317 c 128,-1,107
 184 301 184 301 178 277 c 1,108,-1
 178 276 l 1,109,110
 172 256 172 256 172 226 c 0,111,112
 172 148 172 148 231 148 c 0,113,114
 258 148 258 148 272 164 c 1,115,116
 281 176 281 176 282 199.5 c 128,-1,117
 283 223 283 223 283 247 c 2,118,-1
 283 273 l 1,100,-1
EndSplineSet
EndChar

StartChar: b
Encoding: 98 98 69
Width: 464
GlyphClass: 2
Flags: W
LayerCount: 2
Fore
SplineSet
24 122 m 1,0,-1
 31 638 l 1,1,-1
 31 713 l 1,2,3
 57 718 57 718 92.5 718 c 128,-1,4
 128 718 128 718 152.5 713 c 128,-1,5
 177 708 177 708 177 703 c 2,6,-1
 177 692 l 1,7,8
 197 687 197 687 197 683 c 2,9,-1
 197 672 l 1,10,11
 202 585 202 585 202 577 c 128,-1,12
 202 569 202 569 202 560 c 0,13,14
 200 531 200 531 200 502 c 1,15,16
 230 512 230 512 272 512 c 0,17,18
 473 512 473 512 473 265 c 1,19,20
 470 125 470 125 438 66 c 1,21,22
 405 2 405 2 352 -16 c 1,23,24
 320 -28 320 -28 273 -28 c 128,-1,25
 226 -28 226 -28 201 8 c 1,26,-1
 201 -11 l 2,27,28
 201 -31 201 -31 176 -31 c 0,29,30
 157 -31 157 -31 139 -31 c 2,31,-1
 45 -29 l 1,32,-1
 44 -9 l 1,33,-1
 25 -9 l 1,34,35
 24 30 24 30 24 122 c 1,0,-1
171 9 m 0,36,37
 171 50 171 50 178 50 c 0,38,39
 179 50 179 50 182 46 c 0,40,41
 203 2 203 2 256 2 c 0,42,43
 359 2 359 2 400 70 c 0,44,45
 426 114 426 114 432 158 c 0,46,47
 441 227 441 227 442 294 c 128,-1,48
 443 361 443 361 423.5 417 c 128,-1,49
 404 473 404 473 362 488 c 1,50,51
 328 502 328 502 280.5 502 c 128,-1,52
 233 502 233 502 202 494 c 128,-1,53
 171 486 171 486 170 475 c 1,54,55
 171 506 171 506 171 551 c 2,56,-1
 171 597 l 2,57,58
 171 621 171 621 167 692 c 1,59,-1
 167 703 l 2,60,61
 167 708 167 708 114.5 708 c 128,-1,62
 62 708 62 708 41 704 c 1,63,-1
 41 638 l 1,64,-1
 34 111 l 2,65,66
 34 36 34 36 35 1 c 1,67,-1
 119 -1 l 2,68,69
 132 -1 132 -1 151.5 -1 c 128,-1,70
 171 -1 171 -1 171 9 c 0,36,37
322 315 m 1,71,72
 329 296 329 296 329 250 c 128,-1,73
 329 204 329 204 304 165 c 128,-1,74
 279 126 279 126 235.5 126 c 128,-1,75
 192 126 192 126 179 160.5 c 128,-1,76
 166 195 166 195 166 272 c 128,-1,77
 166 349 166 349 175.5 367.5 c 128,-1,78
 185 386 185 386 227 386 c 0,79,80
 311 386 311 386 322 315 c 1,71,72
292 347.5 m 128,-1,82
 277 356 277 356 244.5 356 c 128,-1,83
 212 356 212 356 204 339.5 c 128,-1,84
 196 323 196 323 196 250 c 128,-1,85
 196 177 196 177 203 160 c 0,86,87
 212 136 212 136 243.5 136 c 128,-1,88
 275 136 275 136 297 172 c 128,-1,89
 319 208 319 208 319 253 c 0,90,91
 319 300 319 300 312 314 c 1,92,81
 307 339 307 339 292 347.5 c 128,-1,82
EndSplineSet
EndChar

StartChar: c
Encoding: 99 99 70
Width: 442
GlyphClass: 2
Flags: W
LayerCount: 2
Fore
SplineSet
431 191 m 1,0,-1
 430 184 l 1,1,2
 439 184 439 184 443 182 c 1,3,-1
 451 171 l 1,4,5
 441 31 441 31 421 9 c 1,6,7
 384 -43 384 -43 280 -43 c 0,8,9
 231 -43 231 -43 207 -41.5 c 128,-1,10
 183 -40 183 -40 147 -28 c 128,-1,11
 111 -16 111 -16 88 8 c 2,12,-1
 79 17 l 1,13,14
 16 64 16 64 16 207 c 2,15,-1
 16 238 l 2,16,17
 16 297 16 297 13 322 c 1,18,19
 13 394 13 394 33 448 c 1,20,-1
 32 447 l 1,21,22
 41 484 41 484 87.5 503 c 128,-1,23
 134 522 134 522 196 522 c 1,24,25
 204 521 204 521 233 521 c 1,26,-1
 257 522 l 1,27,28
 302 522 302 522 343 506.5 c 128,-1,29
 384 491 384 491 406 460 c 0,30,31
 407 459 407 459 410 457 c 0,32,33
 437 437 437 437 445 390.5 c 128,-1,34
 453 344 453 344 453 261 c 1,35,36
 421 256 421 256 404.5 256 c 128,-1,37
 388 256 388 256 307 265 c 1,38,39
 307 265 307 265 305 274 c 0,40,41
 305 278 305 278 303 279 c 128,-1,42
 301 280 301 280 299 281.5 c 128,-1,43
 297 283 297 283 294 283.5 c 128,-1,44
 291 284 291 284 287 285 c 1,45,46
 284 308 284 308 275 319 c 128,-1,47
 266 330 266 330 244 330 c 0,48,49
 240 330 240 330 227.5 327.5 c 128,-1,50
 215 325 215 325 207 317.5 c 128,-1,51
 199 310 199 310 195 304 c 128,-1,52
 191 298 191 298 189 284 c 128,-1,53
 187 270 187 270 186.5 264.5 c 128,-1,54
 186 259 186 259 186.5 242 c 128,-1,55
 187 225 187 225 187 222 c 2,56,-1
 184 159 l 2,57,58
 184 140 184 140 218 140 c 128,-1,59
 252 140 252 140 265 149 c 1,60,-1
 264 149 l 1,61,62
 272 153 272 153 286 205 c 1,63,64
 310 203 310 203 325 203 c 2,65,-1
 386 205 l 2,66,67
 410 205 410 205 423 202 c 1,68,-1
 431 191 l 1,0,-1
161 -9 m 1,69,-1
 261 -12 l 1,70,71
 360 -12 360 -12 393 35 c 1,72,73
 411 53 411 53 421 192 c 1,74,75
 407 195 407 195 383 195 c 2,76,-1
 309 193 l 2,77,78
 297 193 297 193 294 194 c 1,79,80
 287 160 287 160 273.5 144.5 c 128,-1,81
 260 129 260 129 227.5 129 c 128,-1,82
 195 129 195 129 175 142 c 128,-1,83
 155 155 155 155 155 181 c 0,84,85
 155 288 155 288 163 314 c 0,86,87
 176 361 176 361 227 361 c 0,88,89
 284 361 284 361 296 294 c 1,90,91
 348 285 348 285 379 285 c 128,-1,92
 410 285 410 285 423 289 c 1,93,94
 419 400 419 400 410.5 428 c 128,-1,95
 402 456 402 456 384 469 c 1,96,97
 340 512 340 512 253 512 c 1,98,-1
 215 511 l 2,99,100
 202 511 202 511 195 512 c 1,101,102
 97 512 97 512 60 470 c 128,-1,103
 23 428 23 428 23 323 c 1,104,105
 26 296 26 296 26 266 c 2,106,-1
 25 209 l 1,107,108
 25 66 25 66 92 18 c 0,109,110
 120 -2 120 -2 161 -9 c 1,69,-1
EndSplineSet
EndChar

StartChar: d
Encoding: 100 100 71
Width: 463
GlyphClass: 2
Flags: W
LayerCount: 2
Fore
SplineSet
284 495 m 1,0,-1
 282 597 l 2,1,2
 282 605 282 605 287 692 c 1,3,-1
 287 703 l 2,4,5
 287 708 287 708 311.5 713 c 128,-1,6
 336 718 336 718 370 718 c 128,-1,7
 404 718 404 718 433 712 c 1,8,-1
 433 695 l 1,9,10
 442 692 442 692 453 692 c 1,11,-1
 453 618 l 1,12,-1
 460 102 l 1,13,14
 460 10 460 10 459 -29 c 1,15,-1
 365 -31 l 2,16,17
 347 -31 347 -31 325 -31 c 128,-1,18
 303 -31 303 -31 303 -11 c 2,19,-1
 303 -9 l 1,20,-1
 290 -8 l 1,21,-1
 288 -6 l 1,22,23
 262 -28 262 -28 223 -28 c 0,24,25
 137 -28 137 -28 90 30 c 1,26,27
 11 93 11 93 11 285 c 0,28,29
 11 362 11 362 33 421 c 128,-1,30
 55 480 55 480 99 497 c 0,31,32
 136 512 136 512 194 512 c 128,-1,33
 252 512 252 512 284 495 c 1,0,-1
430 110 m 2,34,-1
 423 638 l 1,35,-1
 423 704 l 1,36,37
 402 708 402 708 349.5 708 c 128,-1,38
 297 708 297 708 297 703 c 2,39,-1
 297 692 l 1,40,41
 293 621 293 621 293 597 c 2,42,-1
 293 551 l 2,43,44
 293 506 293 506 294 475 c 1,45,46
 290 486 290 486 260 494 c 128,-1,47
 230 502 230 502 188 502 c 128,-1,48
 146 502 146 502 102 488 c 1,49,50
 60 473 60 473 40.5 417 c 128,-1,51
 21 361 21 361 21.5 298.5 c 128,-1,52
 22 236 22 236 25 202 c 128,-1,53
 28 168 28 168 39.5 127 c 128,-1,54
 51 86 51 86 70 61 c 128,-1,55
 89 36 89 36 124 19 c 128,-1,56
 159 2 159 2 209 2 c 128,-1,57
 259 2 259 2 282 46 c 0,58,59
 283 50 283 50 286 50 c 0,60,61
 293 50 293 50 295 9 c 1,62,-1
 294 2 l 1,63,64
 316 -1 316 -1 345 -1 c 2,65,-1
 429 1 l 1,66,67
 430 36 430 36 430 110 c 2,34,-1
237 386 m 0,68,69
 279 386 279 386 288.5 367.5 c 128,-1,70
 298 349 298 349 298 291 c 128,-1,71
 298 233 298 233 296 211.5 c 128,-1,72
 294 190 294 190 288 168 c 0,73,74
 275 126 275 126 230 126 c 128,-1,75
 185 126 185 126 160 165 c 128,-1,76
 135 204 135 204 135 250 c 128,-1,77
 135 296 135 296 142 315 c 1,78,79
 153 386 153 386 237 386 c 0,68,69
165 237 m 0,80,81
 165 136 165 136 226 136 c 0,82,83
 275 136 275 136 283 190 c 0,84,85
 288 223 288 223 288 251 c 2,86,-1
 288 320 l 2,87,88
 288 341 288 341 283.5 345.5 c 128,-1,89
 279 350 279 350 276 352 c 0,90,91
 269 356 269 356 257 356 c 0,92,93
 181 356 181 356 172 294 c 1,94,95
 165 280 165 280 165 237 c 0,80,81
EndSplineSet
EndChar

StartChar: e
Encoding: 101 101 72
Width: 444
GlyphClass: 2
Flags: W
LayerCount: 2
Fore
SplineSet
432 198 m 1,0,-1
 431 181 l 1,1,-1
 452 178 l 1,2,3
 452 69 452 69 430 26 c 1,4,5
 417 3 417 3 404.5 -11.5 c 128,-1,6
 392 -26 392 -26 370 -32 c 0,7,8
 333 -43 333 -43 305 -43 c 128,-1,9
 277 -43 277 -43 250 -43 c 128,-1,10
 223 -43 223 -43 200.5 -41.5 c 128,-1,11
 178 -40 178 -40 149 -29 c 128,-1,12
 120 -18 120 -18 101 4 c 1,13,14
 55 42 55 42 33 113 c 128,-1,15
 11 184 11 184 11 274 c 128,-1,16
 11 364 11 364 34 426 c 1,17,18
 55 474 55 474 107 499.5 c 128,-1,19
 159 525 159 525 223 525 c 0,20,21
 337 525 337 525 396.5 455 c 128,-1,22
 456 385 456 385 456 282 c 0,23,24
 456 276 456 276 453 231 c 1,25,26
 408 218 408 218 208 218 c 0,27,28
 193 218 193 218 186 219 c 1,29,-1
 186 202 l 2,30,31
 186 154 186 154 204 124 c 1,32,-1
 204 122 l 1,33,34
 217 115 217 115 237 115 c 128,-1,35
 257 115 257 115 271 134.5 c 128,-1,36
 285 154 285 154 285 193 c 2,37,-1
 285 203 l 1,38,39
 307 201 307 201 318 201 c 2,40,-1
 387 203 l 2,41,42
 404 203 404 203 432 198 c 1,0,-1
383 193 m 2,43,-1
 311 191 l 2,44,45
 299 191 299 191 296 192 c 1,46,-1
 296 184 l 2,47,48
 296 145 296 145 278.5 125 c 128,-1,49
 261 105 261 105 236 105 c 0,50,51
 159 105 159 105 156 233 c 1,52,-1
 156 251 l 1,53,54
 168 248 168 248 273 248 c 128,-1,55
 378 248 378 248 424 259 c 1,56,57
 426 289 426 289 426 319 c 128,-1,58
 426 349 426 349 417 385.5 c 128,-1,59
 408 422 408 422 386 452 c 0,60,61
 341 515 341 515 223 515 c 0,62,63
 163 515 163 515 112.5 490.5 c 128,-1,64
 62 466 62 466 43 423 c 1,65,66
 20 361 20 361 20 257 c 128,-1,67
 20 153 20 153 55 77 c 128,-1,68
 90 1 90 1 164 -10 c 1,69,-1
 261 -13 l 1,70,71
 361 -13 361 -13 394 34 c 1,72,73
 412 49 412 49 422 190 c 1,74,75
 407 193 407 193 383 193 c 2,43,-1
253 329 m 1,76,-1
 188 328 l 2,77,78
 169 328 169 328 163 330 c 128,-1,79
 157 332 157 332 157 339 c 0,80,81
 157 416 157 416 242 416 c 0,82,83
 261 416 261 416 277 406 c 1,84,85
 316 386 316 386 316 341 c 2,86,-1
 316 330 l 2,87,88
 316 327 316 327 309 327 c 2,89,-1
 253 329 l 1,76,-1
306 341 m 2,90,91
 306 386 306 386 262 386 c 0,92,93
 227 386 227 386 211.5 374 c 128,-1,94
 196 362 196 362 190 338 c 1,95,-1
 209 339 l 1,96,-1
 253 339 l 1,97,-1
 296 338 l 1,98,-1
 306 337 l 1,99,-1
 306 341 l 2,90,91
EndSplineSet
EndChar

StartChar: f
Encoding: 102 102 73
Width: 379
GlyphClass: 2
Flags: W
LayerCount: 2
Fore
SplineSet
401 435 m 2,0,-1
 402 428 l 1,1,-1
 402 407 l 2,2,3
 402 394 402 394 399.5 371.5 c 128,-1,4
 397 349 397 349 397 317 c 1,5,6
 260 326 260 326 246 326 c 1,7,-1
 246 -28 l 1,8,9
 223 -25 223 -25 208 -25 c 2,10,-1
 131 -30 l 1,11,-1
 115 -31 l 2,12,13
 102 -31 102 -31 99 -24 c 128,-1,14
 96 -17 96 -17 95 -9 c 1,15,-1
 78 -8 l 1,16,17
 73 22 73 22 73 136 c 2,18,-1
 74 289 l 1,19,-1
 74 325 l 1,20,-1
 24 324 l 1,21,-1
 23 345 l 1,22,-1
 4 344 l 1,23,-1
 1 486 l 1,24,-1
 72 486 l 1,25,26
 72 548 72 548 98 603.5 c 128,-1,27
 124 659 124 659 183 679 c 1,28,-1
 183 678 l 1,29,30
 245 699 245 699 333 699 c 0,31,32
 368 699 368 699 381 698 c 1,33,34
 382 696 382 696 383 690 c 128,-1,35
 384 684 384 684 385 683 c 0,36,37
 390 678 390 678 401 678 c 1,38,39
 411 651 411 651 411 623 c 128,-1,40
 411 595 411 595 407.5 563 c 128,-1,41
 404 531 404 531 404 522 c 1,42,43
 397 523 397 523 373.5 523 c 128,-1,44
 350 523 350 523 271 511 c 0,45,46
 249 507 249 507 247 483 c 1,47,-1
 386 483 l 1,48,49
 382 468 382 468 382 463 c 1,50,-1
 406 463 l 1,51,52
 401 439 401 439 401 435 c 2,0,-1
106 0 m 2,53,-1
 193 5 l 2,54,55
 209 5 209 5 216 4 c 1,56,-1
 216 356 l 1,57,58
 242 355 242 355 367 348 c 1,59,60
 372 397 372 397 372 409 c 2,61,-1
 372 458 l 2,62,63
 372 470 372 470 373 473 c 1,64,-1
 220 473 l 1,65,66
 217 485 217 485 217 497 c 0,67,68
 217 537 217 537 249 541 c 0,69,70
 328 553 328 553 361 553 c 2,71,-1
 374 553 l 1,72,73
 381 607 381 607 381 636.5 c 128,-1,74
 381 666 381 666 374 688 c 1,75,76
 359 689 359 689 333 689 c 0,77,78
 245 689 245 689 187.5 670 c 128,-1,79
 130 651 130 651 106 602.5 c 128,-1,80
 82 554 82 554 82 496 c 0,81,82
 82 482 82 482 83 475 c 1,83,84
 72 476 72 476 49 476 c 2,85,-1
 11 476 l 1,86,-1
 14 354 l 1,87,88
 27 355 27 355 51 355 c 2,89,-1
 85 355 l 1,90,-1
 83 130 l 2,91,92
 83 28 83 28 87 1 c 1,93,94
 94 0 94 0 106 0 c 2,53,-1
EndSplineSet
EndChar

StartChar: g
Encoding: 103 103 74
Width: 467
GlyphClass: 2
Flags: W
LayerCount: 2
Fore
SplineSet
353 511 m 2,0,-1
 439 509 l 1,1,-1
 440 489 l 1,2,-1
 459 489 l 1,3,4
 463 372 463 372 463 212 c 128,-1,5
 463 52 463 52 458 -63 c 1,6,-1
 458 -87 l 2,7,8
 458 -177 458 -177 388 -213 c 0,9,10
 351 -232 351 -232 305 -232 c 0,11,12
 210 -232 210 -232 152.5 -213.5 c 128,-1,13
 95 -195 95 -195 51 -129 c 0,14,15
 35 -106 35 -106 35 -52 c 0,16,17
 35 -40 35 -40 36 -35 c 1,18,19
 60 -25 60 -25 100 -25 c 128,-1,20
 140 -25 140 -25 150 -27 c 1,21,22
 115 -18 115 -18 84 5 c 128,-1,23
 53 28 53 28 41 56 c 1,24,25
 17 102 17 102 12 177 c 1,26,27
 12 302 12 302 26 356 c 0,28,29
 45 425 45 425 78 458 c 0,30,31
 121 501 121 501 188 507 c 1,32,33
 250 507 250 507 281 476 c 1,34,35
 281 494 281 494 288 507 c 1,36,37
 324 511 324 511 353 511 c 2,0,-1
205 -200 m 2,38,-1
 288 -201 l 2,39,40
 328 -201 328 -201 376 -178 c 0,41,42
 400 -166 400 -166 414 -141 c 128,-1,43
 428 -116 428 -116 428 -81 c 2,44,-1
 428 -53 l 1,45,-1
 433 227 l 1,46,47
 433 382 433 382 429 499 c 1,48,-1
 345 500 l 1,49,-1
 324 501 l 1,50,51
 291 501 291 501 291 484 c 2,52,-1
 292 467 l 1,53,-1
 292 458 l 2,54,55
 292 449 292 449 290.5 449 c 128,-1,56
 289 449 289 449 288 450 c 0,57,58
 267 497 267 497 201 497 c 0,59,60
 148 497 148 497 104 472 c 0,61,62
 87 462 87 462 73 441 c 128,-1,63
 59 420 59 420 50.5 406 c 128,-1,64
 42 392 42 392 36 361.5 c 128,-1,65
 30 331 30 331 27.5 317 c 128,-1,66
 25 303 25 303 23.5 267.5 c 128,-1,67
 22 232 22 232 22 222 c 2,68,-1
 22 178 l 1,69,70
 27 106 27 106 50 61 c 0,71,72
 81 -2 81 -2 180 -2 c 1,73,74
 187 -1 187 -1 209 -0.5 c 128,-1,75
 231 0 231 0 242 1 c 0,76,77
 276 4 276 4 294 24 c 1,78,79
 293 17 293 17 293 6 c 2,80,-1
 294 -18 l 1,81,82
 294 -100 294 -100 233 -100 c 0,83,84
 208 -100 208 -100 190.5 -84.5 c 128,-1,85
 173 -69 173 -69 173 -41 c 1,86,87
 145 -36 145 -36 121.5 -36 c 128,-1,88
 98 -36 98 -36 95 -36 c 0,89,90
 44 -36 44 -36 44 -52 c 0,91,92
 44 -119 44 -119 90.5 -159.5 c 128,-1,93
 137 -200 137 -200 205 -200 c 2,38,-1
299 233 m 1,94,-1
 298 179 l 1,95,96
 292 126 292 126 266 116 c 0,97,98
 253 112 253 112 233 112 c 0,99,100
 187 112 187 112 161 146 c 128,-1,101
 135 180 135 180 135 228 c 2,102,-1
 135 256 l 2,103,104
 135 299 135 299 161 336.5 c 128,-1,105
 187 374 187 374 228 374 c 0,106,107
 263 374 263 374 278 346 c 0,108,109
 285 332 285 332 290 320 c 0,110,111
 299 298 299 298 299 233 c 1,94,-1
165 225 m 2,112,-1
 165 208 l 2,113,114
 165 123 165 123 234 123 c 0,115,116
 266 123 266 123 275 135 c 128,-1,117
 284 147 284 147 288 180 c 1,118,119
 288 283 288 283 275 338 c 1,120,121
 263 344 263 344 241 344 c 128,-1,122
 219 344 219 344 203 329 c 1,123,-1
 205 330 l 1,124,125
 165 284 165 284 165 225 c 2,112,-1
284 -24 m 1,126,127
 258 -32 258 -32 222.5 -32 c 128,-1,128
 187 -32 187 -32 180 -31 c 1,129,130
 182 -31 182 -31 183 -39 c 128,-1,131
 184 -47 184 -47 185 -49 c 1,132,133
 196 -50 196 -50 203 -52 c 1,134,135
 203 -72 203 -72 209 -81 c 128,-1,136
 215 -90 215 -90 232.5 -90 c 128,-1,137
 250 -90 250 -90 266.5 -76 c 128,-1,138
 283 -62 283 -62 283 -40 c 0,139,140
 283 -38 283 -38 283.5 -32 c 128,-1,141
 284 -26 284 -26 284 -24 c 1,126,127
EndSplineSet
EndChar

StartChar: h
Encoding: 104 104 75
Width: 448
GlyphClass: 2
Flags: W
LayerCount: 2
Fore
SplineSet
26 -14 m 1,0,-1
 24 476 l 2,1,2
 24 691 24 691 26 734 c 1,3,4
 50 731 50 731 62 731 c 128,-1,5
 74 731 74 731 96.5 734 c 128,-1,6
 119 737 119 737 147 737 c 128,-1,7
 175 737 175 737 176 725 c 1,8,-1
 176 717 l 1,9,10
 189 715 189 715 192.5 707 c 128,-1,11
 196 699 196 699 197.5 693 c 128,-1,12
 199 687 199 687 199 675 c 2,13,-1
 199 654 l 1,14,-1
 198 594 l 2,15,16
 198 571 198 571 197.5 531 c 128,-1,17
 197 491 197 491 197 476 c 1,18,19
 241 505 241 505 309.5 505 c 128,-1,20
 378 505 378 505 408 460 c 1,21,-1
 420 451 l 2,22,23
 446 431 446 431 446 283 c 1,24,-1
 442 55 l 2,25,26
 442 15 442 15 444 -27 c 1,27,28
 408 -32 408 -32 360 -32 c 2,29,-1
 300 -32 l 1,30,31
 299 -25 299 -25 299 -12 c 1,32,-1
 280 -12 l 1,33,34
 277 19 277 19 277 109 c 2,35,-1
 277 159 l 2,36,37
 277 268 277 268 264 303 c 1,38,39
 256 306 256 306 243 306 c 0,40,41
 213 306 213 306 201.5 286 c 128,-1,42
 190 266 190 266 190 209 c 1,43,-1
 194 61 l 1,44,45
 194 18 194 18 190 -14 c 1,46,-1
 190 -25 l 1,47,48
 155 -34 155 -34 132 -34 c 2,49,50
 132 -34 132 -34 86 -32 c 1,51,52
 61 -32 61 -32 46 -34 c 1,53,-1
 46 -12 l 1,54,55
 38 -14 38 -14 26 -14 c 1,0,-1
412 65 m 2,56,-1
 416 298 l 1,57,58
 416 443 416 443 393 464 c 0,59,60
 359 495 359 495 300 495 c 0,61,62
 274 495 274 495 260 490.5 c 128,-1,63
 246 486 246 486 239.5 484 c 128,-1,64
 233 482 233 482 220.5 475.5 c 128,-1,65
 208 469 208 469 204 467 c 0,66,67
 182 456 182 456 167 446 c 1,68,-1
 167 722 l 2,69,70
 167 728 167 728 158 728 c 2,71,-1
 154 728 l 2,72,73
 127 728 127 728 101 724.5 c 128,-1,74
 75 721 75 721 61 721 c 128,-1,75
 47 721 47 721 36 723 c 1,76,77
 34 603 34 603 34 493 c 2,78,-1
 34 355 l 1,79,-1
 36 -3 l 1,80,81
 48 -2 48 -2 68 -2 c 2,82,-1
 116 -3 l 2,83,84
 137 -3 137 -3 160 3 c 1,85,-1
 160 7 l 1,86,87
 164 40 164 40 164 81 c 1,88,-1
 160 233 l 1,89,90
 160 293 160 293 175 314.5 c 128,-1,91
 190 336 190 336 223 336 c 0,92,93
 249 336 249 336 266 321 c 0,94,95
 275 313 275 313 278 294 c 0,96,97
 285 251 285 251 285 230 c 1,98,99
 287 213 287 213 287 147 c 2,100,-1
 287 73 l 2,101,102
 287 12 287 12 289 -2 c 1,103,-1
 347 -3 l 2,104,105
 383 -3 383 -3 414 2 c 1,106,107
 412 40 412 40 412 65 c 2,56,-1
EndSplineSet
EndChar

StartChar: i
Encoding: 105 105 76
Width: 207
GlyphClass: 2
Flags: W
LayerCount: 2
Fore
SplineSet
29 572 m 1,0,-1
 25 710 l 1,1,-1
 25 731 l 1,2,-1
 181 728 l 1,3,-1
 181 708 l 1,4,-1
 201 708 l 1,5,-1
 204 567 l 1,6,7
 193 550 193 550 156 550 c 0,8,9
 147 550 147 550 118 552 c 1,10,-1
 84 553 l 2,11,12
 64 553 64 553 49 552 c 1,13,-1
 49 573 l 1,14,-1
 29 572 l 1,0,-1
205 488 m 1,15,-1
 200 137 l 1,16,17
 200 48 200 48 204 -17 c 1,18,19
 187 -35 187 -35 103 -30 c 1,20,-1
 79 -29 l 2,21,22
 57 -29 57 -29 42 -34 c 1,23,24
 42 -27 42 -27 44 -9 c 1,25,26
 29 -11 29 -11 22 -14 c 1,27,28
 27 53 27 53 27 124 c 1,29,-1
 23 366 l 1,30,31
 23 436 23 436 30 513 c 1,32,-1
 56 516 l 1,33,-1
 135 513 l 1,34,-1
 158 513 l 1,35,-1
 185 508 l 1,36,-1
 185 491 l 1,37,-1
 205 488 l 1,15,-1
174 590 m 1,38,-1
 171 718 l 1,39,-1
 35 721 l 1,40,-1
 35 705 l 1,41,-1
 39 583 l 1,42,-1
 56 583 l 1,43,-1
 135 580 l 1,44,45
 168 580 168 580 174 590 c 1,38,-1
170 167 m 1,46,-1
 175 500 l 1,47,-1
 175 503 l 1,48,-1
 135 503 l 1,49,-1
 43 506 l 1,50,-1
 39 506 l 1,51,-1
 39 505 l 1,52,53
 33 452 33 452 33 368 c 1,54,-1
 37 123 l 1,55,56
 37 55 37 55 33 0 c 1,57,58
 35 1 35 1 49 1 c 2,59,-1
 128 -1 l 1,60,61
 169 -1 169 -1 174 6 c 1,62,63
 170 77 170 77 170 167 c 1,46,-1
EndSplineSet
EndChar

StartChar: j
Encoding: 106 106 77
Width: 204
GlyphClass: 2
Flags: W
LayerCount: 2
Fore
SplineSet
-88 -219 m 2,0,1
 -110 -219 -110 -219 -113 -198 c 1,2,3
 -137 -198 -137 -198 -137 -133 c 0,4,5
 -137 -114 -137 -114 -133.5 -82 c 128,-1,6
 -130 -50 -130 -50 -130 -41 c 1,7,8
 -122 -42 -122 -42 -102 -42 c 0,9,10
 -3 -42 -3 -42 24 -8 c 1,11,12
 25 38 25 38 25 172 c 128,-1,13
 25 306 25 306 28 364 c 1,14,-1
 28 508 l 1,15,16
 45 505 45 505 59 505 c 2,17,-1
 143 511 l 2,18,19
 146 511 146 511 153 511.5 c 128,-1,20
 160 512 160 512 162.5 511.5 c 128,-1,21
 165 511 165 511 169 509 c 0,22,23
 176 505 176 505 178 490 c 1,24,-1
 196 489 l 1,25,26
 200 453 200 453 200 408 c 2,27,-1
 198 278 l 2,28,29
 198 253 198 253 199 244 c 1,30,-1
 199 104 l 2,31,32
 199 -28 199 -28 184 -120 c 1,33,34
 144 -218 144 -218 -60 -218 c 1,35,-1
 -88 -219 l 2,0,1
148 501 m 2,36,-1
 60 496 l 2,37,38
 45 496 45 496 38 497 c 1,39,-1
 38 363 l 1,40,41
 35 311 35 311 35 178 c 2,42,-1
 35 79 l 2,43,44
 35 16 35 16 34 -12 c 1,45,46
 7 -53 7 -53 -99 -53 c 0,47,48
 -113 -53 -113 -53 -120 -52 c 1,49,50
 -128 -113 -128 -113 -128 -141 c 128,-1,51
 -128 -169 -128 -169 -120 -187 c 1,52,53
 -107 -188 -107 -188 -80 -188 c 0,54,55
 118 -188 118 -188 154 -99 c 1,56,57
 170 3 170 3 170 129 c 1,58,-1
 168 300 l 1,59,-1
 170 433 l 2,60,61
 170 472 170 472 167 500 c 1,62,63
 160 501 160 501 148 501 c 2,36,-1
26 572 m 1,64,-1
 22 710 l 1,65,-1
 22 731 l 1,66,-1
 175 728 l 1,67,-1
 175 708 l 1,68,-1
 195 708 l 1,69,-1
 198 567 l 1,70,71
 187 550 187 550 152 550 c 1,72,-1
 79 553 l 2,73,74
 58 553 58 553 46 552 c 1,75,-1
 46 573 l 1,76,-1
 26 572 l 1,64,-1
168 590 m 1,77,-1
 165 718 l 1,78,-1
 32 721 l 1,79,-1
 32 705 l 1,80,-1
 36 583 l 1,81,-1
 53 583 l 1,82,-1
 130 580 l 1,83,84
 162 580 162 580 168 590 c 1,77,-1
EndSplineSet
EndChar

StartChar: k
Encoding: 107 107 78
Width: 435
GlyphClass: 2
Flags: W
LayerCount: 2
Fore
SplineSet
184 716 m 1,0,-1
 204 715 l 1,1,-1
 204 487 l 2,2,3
 204 478 204 478 203 457 c 128,-1,4
 202 436 202 436 202 426 c 1,5,6
 247 501 247 501 272 531 c 1,7,8
 293 524 293 524 327 524 c 1,9,-1
 416 527 l 2,10,11
 438 527 438 527 451 526 c 1,12,13
 449 522 449 522 444.5 516 c 128,-1,14
 440 510 440 510 438 507 c 1,15,16
 458 507 458 507 471 506 c 1,17,18
 412 414 412 414 361.5 350.5 c 128,-1,19
 311 287 311 287 301 273 c 1,20,21
 310 258 310 258 344 203.5 c 128,-1,22
 378 149 378 149 394 124 c 0,23,24
 437 53 437 53 479 -30 c 1,25,-1
 356 -34 l 2,26,27
 345 -34 345 -34 337.5 -34 c 128,-1,28
 330 -34 330 -34 323.5 -33.5 c 128,-1,29
 317 -33 317 -33 314 -32.5 c 128,-1,30
 311 -32 311 -32 306 -30 c 128,-1,31
 301 -28 301 -28 298 -26 c 0,32,33
 290 -21 290 -21 286 -11 c 1,34,35
 278 -9 278 -9 277 -9 c 0,36,37
 247 36 247 36 228.5 77 c 128,-1,38
 210 118 210 118 205 128 c 1,39,-1
 206 69 l 1,40,41
 206 9 206 9 198 -31 c 1,42,43
 183 -30 183 -30 153 -30 c 2,44,-1
 137 -30 l 1,45,46
 105 -32 105 -32 95 -32 c 128,-1,47
 85 -32 85 -32 77 -32.5 c 128,-1,48
 69 -33 69 -33 65.5 -32.5 c 128,-1,49
 62 -32 62 -32 56 -30 c 0,50,51
 47 -27 47 -27 47 -11 c 1,52,53
 42 -11 42 -11 28 -9 c 1,54,55
 24 96 24 96 24 232 c 1,56,-1
 28 736 l 1,57,-1
 131 738 l 1,58,-1
 184 735 l 1,59,-1
 184 716 l 1,0,-1
172 415 m 2,60,-1
 174 507 l 1,61,-1
 174 726 l 1,62,63
 156 728 156 728 144 728 c 2,64,-1
 108 727 l 1,65,-1
 38 726 l 1,66,-1
 34 231 l 1,67,68
 34 105 34 105 38 0 c 1,69,70
 60 -2 60 -2 71 -2 c 2,71,-1
 152 1 l 1,72,-1
 170 0 l 1,73,74
 176 32 176 32 176 70.5 c 128,-1,75
 176 109 176 109 175 145 c 128,-1,76
 174 181 174 181 174 193 c 1,77,78
 200 160 200 160 233.5 92 c 128,-1,79
 267 24 267 24 282 0 c 1,80,81
 299 -4 299 -4 326.5 -4 c 128,-1,82
 354 -4 354 -4 392.5 -2 c 128,-1,83
 431 0 431 0 443 0 c 1,84,85
 398 89 398 89 340.5 179.5 c 128,-1,86
 283 270 283 270 269 293 c 1,87,88
 288 318 288 318 323 364 c 0,89,90
 397 459 397 459 434 517 c 1,91,-1
 420 517 l 1,92,-1
 326 514 l 1,93,94
 290 514 290 514 276 520 c 1,95,96
 259 501 259 501 229 450 c 128,-1,97
 199 399 199 399 174 377 c 1,98,99
 172 399 172 399 172 415 c 2,60,-1
EndSplineSet
EndChar

StartChar: l
Encoding: 108 108 79
Width: 206
GlyphClass: 2
Flags: W
LayerCount: 2
Fore
SplineSet
29 167 m 1,0,-1
 21 543 l 1,1,2
 21 648 21 648 30 737 c 1,3,-1
 185 734 l 1,4,-1
 185 714 l 1,5,-1
 205 714 l 1,6,-1
 200 186 l 1,7,8
 200 48 200 48 204 -17 c 1,9,10
 187 -35 187 -35 103 -30 c 1,11,-1
 79 -29 l 2,12,13
 57 -29 57 -29 42 -34 c 1,14,-1
 43 -10 l 1,15,16
 31 -10 31 -10 22 -14 c 1,17,18
 29 84 29 84 29 167 c 1,0,-1
171 207 m 1,19,-1
 175 724 l 1,20,-1
 39 727 l 1,21,22
 30 631 30 631 30 536 c 1,23,-1
 39 160 l 1,24,25
 39 80 39 80 33 0 c 1,26,27
 35 1 35 1 49 1 c 2,28,-1
 128 -1 l 1,29,30
 169 -1 169 -1 174 6 c 1,31,32
 171 55 171 55 171 207 c 1,19,-1
EndSplineSet
EndChar

StartChar: m
Encoding: 109 109 80
Width: 684
GlyphClass: 2
Flags: W
LayerCount: 2
Fore
SplineSet
27 -14 m 1,0,-1
 24 366 l 2,1,2
 24 419 24 419 26 509 c 1,3,4
 50 506 50 506 62 506 c 128,-1,5
 74 506 74 506 96.5 509 c 128,-1,6
 119 512 119 512 147 512 c 128,-1,7
 175 512 175 512 176 500 c 0,8,9
 176 494 176 494 185.5 489.5 c 128,-1,10
 195 485 195 485 196 480 c 1,11,-1
 196 475 l 1,12,13
 245 505 245 505 310 505 c 128,-1,14
 375 505 375 505 408 461 c 1,15,16
 412 463 412 463 436.5 475.5 c 128,-1,17
 461 488 461 488 470 492 c 0,18,19
 505 505 505 505 537 505 c 0,20,21
 614 505 614 505 644 460 c 1,22,-1
 656 451 l 2,23,24
 682 431 682 431 682 283 c 1,25,-1
 678 55 l 2,26,27
 678 15 678 15 680 -27 c 1,28,29
 644 -32 644 -32 596 -32 c 2,30,-1
 536 -32 l 1,31,32
 535 -25 535 -25 535 -12 c 1,33,-1
 516 -12 l 1,34,35
 513 19 513 19 513 109 c 2,36,-1
 513 159 l 2,37,38
 513 268 513 268 500 303 c 1,39,40
 492 306 492 306 475.5 306 c 128,-1,41
 459 306 459 306 447 297 c 1,42,-1
 447 273 l 1,43,-1
 443 48 l 2,44,45
 443 30 443 30 446 -27 c 1,46,47
 410 -32 410 -32 362 -32 c 2,48,-1
 301 -32 l 1,49,50
 300 -25 300 -25 300 -12 c 1,51,-1
 281 -12 l 1,52,53
 278 19 278 19 278 109 c 2,54,-1
 278 159 l 2,55,56
 278 272 278 272 265 303 c 1,57,58
 258 306 258 306 244 306 c 0,59,60
 214 306 214 306 202.5 286 c 128,-1,61
 191 266 191 266 191 209 c 1,62,63
 191 209 191 209 195 61 c 1,64,65
 195 18 195 18 191 -14 c 1,66,-1
 191 -25 l 1,67,68
 156 -34 156 -34 133 -34 c 2,69,-1
 87 -32 l 1,70,71
 62 -32 62 -32 47 -34 c 1,72,-1
 47 -12 l 1,73,74
 39 -14 39 -14 27 -14 c 1,0,-1
168 446 m 1,75,-1
 169 472 l 1,76,77
 169 503 169 503 154 503 c 0,78,79
 127 503 127 503 101 499.5 c 128,-1,80
 75 496 75 496 61 496 c 128,-1,81
 47 496 47 496 36 498 c 1,82,83
 34 463 34 463 34 346 c 1,84,-1
 37 -3 l 1,85,86
 49 -2 49 -2 69 -2 c 2,87,-1
 117 -3 l 2,88,89
 138 -3 138 -3 161 3 c 1,90,-1
 161 7 l 1,91,92
 165 40 165 40 165 81 c 1,93,-1
 161 233 l 1,94,95
 161 293 161 293 176 314.5 c 128,-1,96
 191 336 191 336 224 336 c 0,97,98
 250 336 250 336 266 321 c 1,99,100
 276 313 276 313 279 294 c 0,101,102
 286 251 286 251 286 230 c 1,103,104
 288 213 288 213 288 147 c 2,105,-1
 288 73 l 2,106,107
 288 12 288 12 290 -2 c 1,108,-1
 348 -3 l 2,109,110
 384 -3 384 -3 415 2 c 1,111,112
 413 36 413 36 413 58 c 2,113,-1
 417 278 l 1,114,-1
 417 322 l 1,115,116
 436 336 436 336 455.5 336 c 128,-1,117
 475 336 475 336 485.5 331 c 128,-1,118
 496 326 496 326 502 320.5 c 128,-1,119
 508 315 508 315 511.5 301 c 128,-1,120
 515 287 515 287 516 281 c 0,121,122
 521 251 521 251 521 230 c 1,123,124
 523 213 523 213 523 147 c 2,125,-1
 523 73 l 2,126,127
 523 12 523 12 525 -2 c 1,128,-1
 583 -3 l 2,129,130
 619 -3 619 -3 650 2 c 1,131,132
 648 40 648 40 648 65 c 2,133,-1
 652 298 l 1,134,135
 652 443 652 443 629 464 c 0,136,137
 595 495 595 495 536 495 c 0,138,139
 491 495 491 495 448 472 c 0,140,141
 436 465 436 465 404 447 c 1,142,143
 394 471 394 471 363.5 483 c 128,-1,144
 333 495 333 495 311.5 495 c 128,-1,145
 290 495 290 495 279.5 494 c 128,-1,146
 269 493 269 493 258 489.5 c 128,-1,147
 247 486 247 486 240.5 484 c 128,-1,148
 234 482 234 482 221.5 475.5 c 128,-1,149
 209 469 209 469 205 467 c 0,150,151
 183 456 183 456 168 446 c 1,75,-1
EndSplineSet
EndChar

StartChar: n
Encoding: 110 110 81
Width: 450
GlyphClass: 2
Flags: W
LayerCount: 2
Fore
SplineSet
28 -14 m 1,0,-1
 25 366 l 2,1,2
 25 419 25 419 27 509 c 1,3,4
 51 506 51 506 63 506 c 128,-1,5
 75 506 75 506 97.5 509 c 128,-1,6
 120 512 120 512 148 512 c 128,-1,7
 176 512 176 512 177 500 c 0,8,9
 177 494 177 494 186.5 489.5 c 128,-1,10
 196 485 196 485 197 480 c 1,11,-1
 197 475 l 1,12,13
 246 505 246 505 303 505 c 0,14,15
 380 505 380 505 410 460 c 1,16,-1
 422 451 l 2,17,18
 448 431 448 431 448 283 c 1,19,-1
 444 55 l 2,20,21
 444 15 444 15 446 -27 c 1,22,23
 410 -32 410 -32 362 -32 c 2,24,-1
 302 -32 l 1,25,26
 301 -25 301 -25 301 -12 c 1,27,-1
 282 -12 l 1,28,29
 279 19 279 19 279 109 c 2,30,-1
 279 159 l 2,31,32
 279 272 279 272 266 303 c 1,33,34
 258 306 258 306 245 306 c 0,35,36
 215 306 215 306 203.5 286 c 128,-1,37
 192 266 192 266 192 209 c 1,38,-1
 196 61 l 1,39,40
 196 18 196 18 192 -14 c 1,41,-1
 192 -25 l 1,42,43
 157 -34 157 -34 134 -34 c 2,44,-1
 88 -32 l 1,45,46
 63 -32 63 -32 48 -34 c 1,47,-1
 48 -12 l 1,48,49
 40 -14 40 -14 28 -14 c 1,0,-1
169 446 m 1,50,-1
 170 472 l 1,51,52
 170 503 170 503 155 503 c 0,53,54
 128 503 128 503 102 499.5 c 128,-1,55
 76 496 76 496 62 496 c 128,-1,56
 48 496 48 496 37 498 c 1,57,58
 35 463 35 463 35 346 c 1,59,-1
 38 -3 l 1,60,61
 50 -2 50 -2 70 -2 c 2,62,-1
 118 -3 l 2,63,64
 139 -3 139 -3 162 3 c 1,65,-1
 162 7 l 1,66,67
 166 40 166 40 166 81 c 1,68,-1
 162 233 l 1,69,70
 162 293 162 293 177 314.5 c 128,-1,71
 192 336 192 336 225 336 c 0,72,73
 251 336 251 336 268 321 c 0,74,75
 277 313 277 313 280 294 c 0,76,77
 287 251 287 251 287 230 c 1,78,79
 289 213 289 213 289 147 c 2,80,-1
 289 73 l 2,81,82
 289 12 289 12 291 -2 c 1,83,-1
 349 -3 l 2,84,85
 385 -3 385 -3 416 2 c 1,86,87
 414 40 414 40 414 65 c 2,88,-1
 418 298 l 1,89,90
 418 443 418 443 395 464 c 0,91,92
 361 495 361 495 302 495 c 0,93,94
 276 495 276 495 262 490.5 c 128,-1,95
 248 486 248 486 241.5 484 c 128,-1,96
 235 482 235 482 222.5 475.5 c 128,-1,97
 210 469 210 469 206 467 c 0,98,99
 184 456 184 456 169 446 c 1,50,-1
EndSplineSet
EndChar

StartChar: o
Encoding: 111 111 82
Width: 448
GlyphClass: 2
Flags: W
LayerCount: 2
Fore
SplineSet
16 281 m 1,0,-1
 14 324 l 1,1,2
 14 400 14 400 31 442 c 1,3,-1
 30 442 l 1,4,5
 33 462 33 462 36 462 c 1,6,-1
 36 461 l 2,7,8
 36 460 36 460 36 460 c 1,9,-1
 36 460 l 1,10,11
 51 492 51 492 95.5 508 c 128,-1,12
 140 524 140 524 196 524 c 1,13,14
 204 523 204 523 233 523 c 1,15,-1
 257 524 l 1,16,17
 343 524 343 524 391 477 c 1,18,-1
 390 477 l 1,19,-1
 409 458 l 1,20,21
 455 427 455 427 455 252 c 0,22,23
 455 181 455 181 446 105 c 128,-1,24
 437 29 437 29 421 11 c 1,25,26
 384 -41 384 -41 280 -41 c 0,27,28
 229 -41 229 -41 202 -38.5 c 128,-1,29
 175 -36 175 -36 140 -22 c 128,-1,30
 105 -8 105 -8 77 21 c 2,31,-1
 68 30 l 1,32,33
 15 81 15 81 15 211 c 2,34,-1
 15 247 l 1,35,-1
 16 281 l 1,0,-1
253 514 m 1,36,-1
 215 513 l 2,37,38
 202 513 202 513 173 513.5 c 128,-1,39
 144 514 144 514 101 499 c 128,-1,40
 58 484 58 484 45 456 c 1,41,42
 24 383 24 383 24 325 c 1,43,-1
 25 283 l 1,44,-1
 25 209 l 2,45,46
 25 16 25 16 161 -7 c 1,47,-1
 261 -10 l 1,48,49
 360 -10 360 -10 393 37 c 1,50,51
 417 61 417 61 424 255 c 0,52,53
 425 267 425 267 425 272 c 0,54,55
 421 396 421 396 411 427.5 c 128,-1,56
 401 459 401 459 384 470 c 1,57,58
 339 514 339 514 253 514 c 1,36,-1
230 363 m 0,59,60
 300 363 300 363 300 259 c 0,61,62
 300 180 300 180 282 157 c 0,63,64
 264 133 264 133 223 133 c 0,65,66
 155 133 155 133 155 188 c 1,67,68
 156 199 156 199 156 240 c 0,69,70
 156 329 156 329 170 338 c 1,71,72
 190 363 190 363 230 363 c 0,59,60
185 167 m 0,73,74
 185 151 185 151 195 147 c 128,-1,75
 205 143 205 143 223 143 c 0,76,77
 284 143 284 143 284 185 c 1,78,79
 290 235 290 235 290 258.5 c 128,-1,80
 290 282 290 282 289 294 c 128,-1,81
 288 306 288 306 278 319 c 128,-1,82
 268 332 268 332 255 332 c 128,-1,83
 242 332 242 332 227 330 c 1,84,85
 208 325 208 325 198 312 c 1,86,-1
 196 310 l 1,87,88
 185 303 185 303 185 167 c 0,73,74
EndSplineSet
EndChar

StartChar: p
Encoding: 112 112 83
Width: 464
GlyphClass: 2
Flags: W
LayerCount: 2
Fore
SplineSet
148 511 m 0,0,1
 181 511 181 511 181 491 c 2,2,-1
 181 489 l 1,3,4
 195 489 195 489 195 486 c 1,5,6
 221 508 221 508 261 508 c 0,7,8
 344 508 344 508 394 449 c 1,9,10
 438 413 438 413 453 351.5 c 128,-1,11
 468 290 468 290 473 195 c 1,12,13
 473 117 473 117 451 58.5 c 128,-1,14
 429 0 429 0 388 -16 c 128,-1,15
 347 -32 347 -32 292 -32 c 128,-1,16
 237 -32 237 -32 200 -16 c 1,17,18
 202 -112 202 -112 202 -120.5 c 128,-1,19
 202 -129 202 -129 197 -212 c 1,20,-1
 197 -223 l 2,21,22
 197 -228 197 -228 172.5 -233 c 128,-1,23
 148 -238 148 -238 112.5 -238 c 128,-1,24
 77 -238 77 -238 51 -233 c 1,25,-1
 51 -216 l 1,26,27
 43 -216 43 -216 31 -213 c 1,28,-1
 31 -138 l 1,29,-1
 24 378 l 1,30,31
 24 470 24 470 25 509 c 1,32,-1
 119 511 l 2,33,34
 134 511 134 511 148 511 c 0,0,1
34 389 m 2,35,-1
 41 -138 l 1,36,-1
 41 -204 l 1,37,38
 62 -208 62 -208 114.5 -208 c 128,-1,39
 167 -208 167 -208 167 -203 c 2,40,-1
 167 -192 l 1,41,42
 171 -121 171 -121 171 -97 c 2,43,-1
 171 -51 l 2,44,45
 171 -7 171 -7 170 24 c 1,46,47
 172 13 172 13 202 5.5 c 128,-1,48
 232 -2 232 -2 280 -2 c 128,-1,49
 328 -2 328 -2 362 12 c 1,50,51
 404 27 404 27 423.5 83 c 128,-1,52
 443 139 443 139 442.5 195 c 128,-1,53
 442 251 442 251 440 274.5 c 128,-1,54
 438 298 438 298 433.5 331 c 128,-1,55
 429 364 429 364 421.5 385 c 128,-1,56
 414 406 414 406 400 429.5 c 128,-1,57
 386 453 386 453 367 466 c 0,58,59
 323 498 323 498 256 498 c 0,60,61
 203 498 203 498 182 454 c 0,62,63
 179 450 179 450 178 450 c 0,64,65
 171 450 171 450 169 491 c 1,66,-1
 170 498 l 1,67,68
 159 500 159 500 119 500 c 2,69,-1
 35 499 l 1,70,71
 34 463 34 463 34 389 c 2,35,-1
227 114 m 0,72,73
 185 114 185 114 175.5 132.5 c 128,-1,74
 166 151 166 151 166 209 c 128,-1,75
 166 267 166 267 168 288.5 c 128,-1,76
 170 310 170 310 176 332 c 0,77,78
 189 374 189 374 234 374 c 128,-1,79
 279 374 279 374 304 335 c 128,-1,80
 329 296 329 296 329 250 c 128,-1,81
 329 204 329 204 322 185 c 1,82,83
 311 114 311 114 227 114 c 0,72,73
312 186 m 1,84,85
 319 200 319 200 319 241.5 c 128,-1,86
 319 283 319 283 304.5 313.5 c 128,-1,87
 290 344 290 344 258 344 c 0,88,89
 209 344 209 344 201 290 c 0,90,91
 196 257 196 257 196 199.5 c 128,-1,92
 196 142 196 142 201 126 c 1,93,94
 206 124 206 124 227 124 c 0,95,96
 303 124 303 124 312 186 c 1,84,85
EndSplineSet
EndChar

StartChar: q
Encoding: 113 113 84
Width: 463
GlyphClass: 2
Flags: W
LayerCount: 2
Fore
SplineSet
460 358 m 1,0,-1
 453 -158 l 1,1,-1
 453 -233 l 1,2,3
 427 -238 427 -238 391.5 -238 c 128,-1,4
 356 -238 356 -238 331.5 -233 c 128,-1,5
 307 -228 307 -228 307 -223 c 2,6,-1
 307 -212 l 1,7,8
 287 -207 287 -207 287 -203 c 2,9,-1
 287 -192 l 1,10,11
 282 -109 282 -109 282 -85.5 c 128,-1,12
 282 -62 282 -62 283 -23 c 1,13,14
 247 -32 247 -32 212 -32 c 0,15,16
 11 -32 11 -32 11 215 c 1,17,18
 14 377 14 377 65 445 c 0,19,20
 85 472 85 472 121 490 c 128,-1,21
 157 508 157 508 207 508 c 128,-1,22
 257 508 257 508 282 472 c 1,23,-1
 283 471 l 1,24,-1
 283 491 l 2,25,26
 283 511 283 511 316 511 c 0,27,28
 330 511 330 511 345 511 c 2,29,-1
 439 509 l 1,30,-1
 439 489 l 1,31,-1
 459 489 l 1,32,33
 460 450 460 450 460 358 c 1,0,-1
293 491 m 0,34,35
 293 450 293 450 286 450 c 0,36,37
 283 450 283 450 282 454 c 0,38,39
 259 498 259 498 209 498 c 128,-1,40
 159 498 159 498 124 481 c 128,-1,41
 89 464 89 464 70 439 c 128,-1,42
 51 414 51 414 39.5 373 c 128,-1,43
 28 332 28 332 25 298 c 128,-1,44
 22 264 22 264 21.5 201.5 c 128,-1,45
 21 139 21 139 40.5 83 c 128,-1,46
 60 27 60 27 102 12 c 1,47,48
 136 -2 136 -2 183 -2 c 128,-1,49
 230 -2 230 -2 260 5.5 c 128,-1,50
 290 13 290 13 294 24 c 1,51,52
 293 -7 293 -7 293 -51 c 2,53,-1
 293 -97 l 2,54,55
 293 -121 293 -121 297 -192 c 1,56,-1
 297 -203 l 2,57,58
 297 -208 297 -208 349.5 -208 c 128,-1,59
 402 -208 402 -208 423 -204 c 1,60,-1
 423 -138 l 1,61,-1
 430 389 l 2,62,63
 430 463 430 463 429 499 c 1,64,-1
 345 500 l 2,65,66
 332 500 332 500 312.5 500 c 128,-1,67
 293 500 293 500 293 491 c 0,34,35
142 185 m 1,68,69
 135 204 135 204 135 250 c 128,-1,70
 135 296 135 296 160 335 c 128,-1,71
 185 374 185 374 228.5 374 c 128,-1,72
 272 374 272 374 285 339.5 c 128,-1,73
 298 305 298 305 298 228 c 128,-1,74
 298 151 298 151 288.5 132.5 c 128,-1,75
 279 114 279 114 237 114 c 0,76,77
 153 114 153 114 142 185 c 1,68,69
190 132.5 m 128,-1,79
 206 124 206 124 239 124 c 128,-1,80
 272 124 272 124 280 140.5 c 128,-1,81
 288 157 288 157 288 230 c 128,-1,82
 288 303 288 303 281 320 c 0,83,84
 272 344 272 344 240.5 344 c 128,-1,85
 209 344 209 344 187 308 c 128,-1,86
 165 272 165 272 165 227 c 0,87,88
 165 180 165 180 172 166 c 1,89,78
 174 141 174 141 190 132.5 c 128,-1,79
EndSplineSet
EndChar

StartChar: r
Encoding: 114 114 85
Width: 368
GlyphClass: 2
Flags: W
LayerCount: 2
Fore
SplineSet
28 -14 m 1,0,-1
 25 366 l 2,1,2
 25 419 25 419 27 509 c 1,3,4
 51 506 51 506 63 506 c 128,-1,5
 75 506 75 506 97.5 508.5 c 128,-1,6
 120 511 120 511 151 511 c 128,-1,7
 182 511 182 511 182 499 c 2,8,-1
 182 490 l 1,9,10
 195 488 195 488 198 486 c 1,11,12
 255 504 255 504 311.5 504 c 128,-1,13
 368 504 368 504 368 497 c 2,14,-1
 368 482 l 1,15,16
 388 479 388 479 388 477 c 2,17,-1
 386 348 l 2,18,19
 386 332 386 332 389 287 c 1,20,-1
 366 295 l 1,21,-1
 367 294 l 1,22,-1
 355 298 l 1,23,-1
 356 297 l 1,24,25
 300 311 300 311 265.5 311 c 128,-1,26
 231 311 231 311 214.5 297.5 c 128,-1,27
 198 284 198 284 198 249 c 1,28,29
 202 126 202 126 202 -13 c 2,30,-1
 202 -25 l 1,31,32
 170 -34 170 -34 143 -34 c 2,33,-1
 89 -32 l 2,34,35
 63 -32 63 -32 48 -34 c 1,36,-1
 48 -12 l 1,37,38
 40 -14 40 -14 28 -14 c 1,0,-1
173 465 m 1,39,-1
 172 480 l 1,40,-1
 172 499 l 2,41,42
 172 501 172 501 151 501 c 128,-1,43
 130 501 130 501 103 498.5 c 128,-1,44
 76 496 76 496 62 496 c 128,-1,45
 48 496 48 496 37 498 c 1,46,47
 35 463 35 463 35 346 c 1,48,-1
 38 -3 l 1,49,50
 50 -2 50 -2 71 -2 c 2,51,-1
 125 -3 l 2,52,53
 149 -3 149 -3 172 3 c 1,54,-1
 172 7 l 1,55,-1
 168 275 l 2,56,57
 168 312 168 312 187.5 326.5 c 128,-1,58
 207 341 207 341 246.5 341 c 128,-1,59
 286 341 286 341 328 331 c 1,60,61
 331 329 331 329 338 328 c 0,62,63
 339 327 339 327 358 321 c 1,64,65
 357 332 357 332 357 353 c 2,66,-1
 357 390 l 1,67,-1
 358 497 l 2,68,69
 358 499 358 499 328.5 499 c 128,-1,70
 299 499 299 499 247.5 488.5 c 128,-1,71
 196 478 196 478 173 465 c 1,39,-1
EndSplineSet
EndChar

StartChar: s
Encoding: 115 115 86
Width: 450
GlyphClass: 2
Flags: W
LayerCount: 2
Fore
SplineSet
69 170 m 2,0,-1
 168 168 l 1,1,2
 168 160 168 160 173 148 c 1,3,-1
 188 148 l 1,4,5
 188 113 188 113 231 113 c 128,-1,6
 274 113 274 113 274 153 c 0,7,8
 274 169 274 169 255 176 c 128,-1,9
 236 183 236 183 200.5 190 c 128,-1,10
 165 197 165 197 144 206 c 1,11,12
 83 227 83 227 47 274.5 c 128,-1,13
 11 322 11 322 11 371 c 128,-1,14
 11 420 11 420 41.5 462 c 128,-1,15
 72 504 72 504 114 516.5 c 128,-1,16
 156 529 156 529 224.5 529 c 128,-1,17
 293 529 293 529 336 519 c 128,-1,18
 379 509 379 509 406 475 c 1,19,20
 466 426 466 426 466 326 c 1,21,-1
 458 316 l 1,22,23
 423 310 423 310 384.5 310 c 128,-1,24
 346 310 346 310 301 318 c 1,25,-1
 302 326 l 1,26,27
 302 335 302 335 281 338 c 1,28,-1
 282 346 l 1,29,30
 282 371 282 371 246 378 c 1,31,32
 208 367 208 367 208 341 c 0,33,34
 208 323 208 323 226 315 c 1,35,36
 314 300 314 300 354.5 281.5 c 128,-1,37
 395 263 395 263 415 244 c 0,38,39
 460 200 460 200 460 130 c 0,40,41
 460 38 460 38 400 -4 c 128,-1,42
 340 -46 340 -46 238 -46 c 128,-1,43
 136 -46 136 -46 68.5 11.5 c 128,-1,44
 1 69 1 69 1 152 c 2,45,-1
 1 166 l 1,46,47
 32 170 32 170 69 170 c 2,0,-1
159 158 m 1,48,-1
 68 159 l 2,49,50
 22 159 22 159 11 157 c 1,51,-1
 11 152 l 2,52,53
 11 75 11 75 69 29.5 c 128,-1,54
 127 -16 127 -16 222 -16 c 0,55,56
 429 -16 429 -16 429 150 c 0,57,58
 429 226 429 226 380 257.5 c 128,-1,59
 331 289 331 289 225 305 c 1,60,61
 178 321 178 321 178 360 c 0,62,63
 178 377 178 377 191.5 392.5 c 128,-1,64
 205 408 205 408 228.5 408 c 128,-1,65
 252 408 252 408 273 391 c 128,-1,66
 294 374 294 374 294 354 c 0,67,68
 294 348 294 348 293 346 c 1,69,70
 324 340 324 340 363 340 c 128,-1,71
 402 340 402 340 436 346 c 1,72,73
 436 470 436 470 349 507 c 1,74,75
 295 519 295 519 226 519 c 0,76,77
 21 519 21 519 21 373 c 0,78,79
 21 328 21 328 48 290.5 c 128,-1,80
 75 253 75 253 127 235 c 1,81,82
 152 224 152 224 196 215.5 c 128,-1,83
 240 207 240 207 262 196 c 128,-1,84
 284 185 284 185 284 160 c 0,85,86
 284 103 284 103 233 103 c 0,87,88
 205 103 205 103 183 118 c 128,-1,89
 161 133 161 133 159 158 c 1,48,-1
EndSplineSet
EndChar

StartChar: t
Encoding: 116 116 87
Width: 387
GlyphClass: 2
Flags: W
LayerCount: 2
Fore
SplineSet
383 491 m 1,0,-1
 392 492 l 1,1,2
 406 475 406 475 406 445 c 1,3,-1
 402 378 l 2,4,5
 402 366 402 366 405 347 c 1,6,-1
 248 347 l 1,7,8
 248 222 248 222 249 163 c 1,9,10
 286 145 286 145 356 145 c 0,11,12
 375 145 375 145 383 146 c 1,13,-1
 384 129 l 1,14,-1
 384 125 l 1,15,16
 396 125 396 125 403 126 c 1,17,-1
 410 34 l 1,18,19
 410 -3 410 -3 400 -30 c 1,20,21
 387 -31 387 -31 353 -31 c 0,22,23
 139 -31 139 -31 89 87 c 1,24,25
 73 177 73 177 73 319 c 2,26,-1
 73 343 l 1,27,-1
 21 344 l 1,28,-1
 21 364 l 1,29,-1
 1 364 l 1,30,-1
 4 506 l 1,31,32
 31 505 31 505 75 505 c 1,33,-1
 73 617 l 2,34,35
 73 663 73 663 77 696 c 1,36,37
 99 698 99 698 110 698 c 2,38,-1
 192 693 l 1,39,40
 217 693 217 693 225 695 c 1,41,-1
 225 673 l 1,42,43
 231 673 231 673 245 675 c 1,44,-1
 245 504 l 1,45,46
 271 505 271 505 372 512 c 1,47,48
 380 500 380 500 383 491 c 1,0,-1
216 494 m 1,49,-1
 215 550 l 1,50,-1
 215 684 l 1,51,52
 208 683 208 683 192 683 c 2,53,-1
 105 688 l 2,54,55
 93 688 93 688 86 687 c 1,56,57
 83 658 83 658 83 618 c 2,58,-1
 85 495 l 1,59,-1
 51 495 l 2,60,61
 27 495 27 495 14 496 c 1,62,-1
 11 374 l 1,63,-1
 49 374 l 2,64,65
 72 374 72 374 83 375 c 1,66,-1
 83 319 l 2,67,68
 83 178 83 178 99 88 c 1,69,70
 135 -1 135 -1 333 -1 c 0,71,72
 360 -1 360 -1 373 0 c 1,73,74
 380 22 380 22 380 51.5 c 128,-1,75
 380 81 380 81 373 135 c 1,76,77
 366 134 366 134 352 134 c 0,78,79
 247 134 247 134 219 175 c 1,80,81
 218 206 218 206 218 271 c 2,82,-1
 218 377 l 1,83,-1
 373 377 l 1,84,85
 372 380 372 380 372 393 c 2,86,-1
 376 464 l 1,87,88
 376 492 376 492 367 502 c 1,89,90
 242 495 242 495 216 494 c 1,49,-1
EndSplineSet
EndChar

StartChar: u
Encoding: 117 117 88
Width: 450
GlyphClass: 2
Flags: W
LayerCount: 2
Fore
SplineSet
443 -29 m 1,0,-1
 398 -26 l 2,1,2
 394 -26 394 -26 371 -29 c 128,-1,3
 348 -32 348 -32 320 -32 c 128,-1,4
 292 -32 292 -32 292 -12 c 1,5,6
 275 -11 275 -11 273 0 c 0,7,8
 273 1 273 1 272 4 c 1,9,10
 219 -25 219 -25 176 -25 c 0,11,12
 82 -25 82 -25 60 18 c 1,13,14
 39 35 39 35 30.5 76 c 128,-1,15
 22 117 22 117 22 197 c 1,16,-1
 26 425 l 2,17,18
 26 465 26 465 24 507 c 1,19,20
 59 512 59 512 106 512 c 2,21,-1
 168 512 l 1,22,23
 168 499 168 499 169 492 c 1,24,-1
 188 492 l 1,25,26
 191 461 191 461 191 371 c 2,27,-1
 191 321 l 2,28,29
 191 210 191 210 205 176 c 1,30,31
 219 174 219 174 225 174 c 0,32,33
 253 174 253 174 265.5 192 c 128,-1,34
 278 210 278 210 278 259 c 1,35,-1
 273 413 l 1,36,37
 273 464 273 464 278 495 c 1,38,-1
 278 505 l 1,39,40
 307 513 307 513 335 513 c 2,41,-1
 382 512 l 2,42,43
 407 512 407 512 422 514 c 1,44,-1
 422 492 l 1,45,-1
 442 494 l 1,46,-1
 445 114 l 2,47,48
 445 61 445 61 443 -29 c 1,0,-1
281 54 m 1,49,-1
 280 28 l 1,50,51
 280 -3 280 -3 294 -3 c 0,52,53
 322 -3 322 -3 348 0.5 c 128,-1,54
 374 4 374 4 377.5 4 c 128,-1,55
 381 4 381 4 413 2 c 1,56,57
 415 106 415 106 415 154 c 2,58,-1
 412 503 l 1,59,60
 400 502 400 502 380 502 c 2,61,-1
 331 503 l 2,62,63
 311 503 311 503 288 497 c 1,64,-1
 288 493 l 1,65,66
 283 462 283 462 283 417 c 1,67,-1
 288 262 l 1,68,69
 288 206 288 206 272.5 185 c 128,-1,70
 257 164 257 164 228 164 c 128,-1,71
 199 164 199 164 184.5 181 c 128,-1,72
 170 198 170 198 168 212 c 0,73,74
 163 245 163 245 163 270 c 1,75,76
 161 287 161 287 161 352 c 2,77,-1
 161 427 l 2,78,79
 161 488 161 488 159 502 c 1,80,-1
 101 503 l 2,81,82
 65 503 65 503 34 498 c 1,83,84
 35 479 35 479 35 435 c 2,85,-1
 31 201 l 1,86,87
 31 56 31 56 55 36 c 1,88,89
 89 5 89 5 147 5 c 0,90,91
 192 5 192 5 236 28 c 0,92,93
 250 35 250 35 281 54 c 1,49,-1
EndSplineSet
EndChar

StartChar: v
Encoding: 118 118 89
Width: 429
GlyphClass: 2
Flags: W
LayerCount: 2
Fore
SplineSet
287 506 m 1,0,-1
 399 510 l 1,1,2
 429 510 429 510 442 508 c 1,3,4
 440 504 440 504 438.5 499 c 128,-1,5
 437 494 437 494 435 490 c 1,6,7
 440 490 440 490 462 488 c 1,8,9
 425 390 425 390 385.5 207.5 c 128,-1,10
 346 25 346 25 331 -30 c 1,11,12
 301 -35 301 -35 251 -35 c 2,13,-1
 126 -33 l 1,14,15
 126 -22 126 -22 123 -13 c 1,16,-1
 106 -13 l 1,17,18
 58 286 58 286 -3 513 c 1,19,20
 28 508 28 508 49 508 c 128,-1,21
 70 508 70 508 103.5 508.5 c 128,-1,22
 137 509 137 509 151 507 c 1,23,-1
 160 499 l 1,24,25
 160 491 160 491 162 489 c 128,-1,26
 164 487 164 487 171 487 c 1,27,-1
 180 479 l 1,28,29
 187 445 187 445 201 352.5 c 128,-1,30
 215 260 215 260 223 219 c 1,31,32
 229 247 229 247 240 308 c 0,33,34
 268 457 268 457 287 506 c 1,0,-1
397 500 m 1,35,-1
 294 496 l 1,36,37
 277 454 277 454 253.5 323.5 c 128,-1,38
 230 193 230 193 216 155 c 1,39,40
 197 205 197 205 176.5 335 c 128,-1,41
 156 465 156 465 150 497 c 1,42,43
 124 499 124 499 111 499 c 2,44,45
 111 499 111 499 53 498 c 0,46,47
 21 498 21 498 11 500 c 1,48,49
 67 295 67 295 115 -3 c 1,50,-1
 229 -5 l 2,51,52
 275 -5 275 -5 303 -1 c 1,53,54
 317 52 317 52 356.5 232 c 128,-1,55
 396 412 396 412 428 499 c 1,56,-1
 397 500 l 1,35,-1
EndSplineSet
EndChar

StartChar: w
Encoding: 119 119 90
Width: 683
GlyphClass: 2
Flags: W
LayerCount: 2
Fore
SplineSet
126 -33 m 1,0,1
 126 -22 126 -22 123 -13 c 1,2,-1
 106 -13 l 1,3,4
 58 286 58 286 -3 513 c 1,5,6
 28 508 28 508 49 508 c 128,-1,7
 70 508 70 508 104 508.5 c 128,-1,8
 138 509 138 509 152 507 c 1,9,-1
 161 499 l 1,10,11
 161 491 161 491 163 489 c 128,-1,12
 165 487 165 487 172 487 c 1,13,-1
 181 479 l 1,14,15
 187 448 187 448 201.5 354 c 128,-1,16
 216 260 216 260 225 215 c 1,17,18
 233 250 233 250 287 511 c 1,19,20
 298 509 298 509 326 509 c 1,21,-1
 379 511 l 2,22,23
 392 511 392 511 415 508 c 1,24,-1
 418 490 l 1,25,26
 421 490 421 490 435 488 c 1,27,28
 443 452 443 452 456 357 c 128,-1,29
 469 262 469 262 479 215 c 1,30,31
 488 250 488 250 510 361 c 128,-1,32
 532 472 532 472 545 506 c 1,33,-1
 647 510 l 2,34,35
 670 510 670 510 696 508 c 1,36,37
 695 504 695 504 692.5 498 c 128,-1,38
 690 492 690 492 689 489 c 1,39,40
 695 489 695 489 704 488.5 c 128,-1,41
 713 488 713 488 716 488 c 1,42,43
 679 390 679 390 639.5 207.5 c 128,-1,44
 600 25 600 25 585 -30 c 1,45,46
 555 -35 555 -35 510 -35 c 2,47,-1
 392 -33 l 1,48,49
 392 -29 392 -29 390 -23 c 2,50,-1
 388 -13 l 1,51,-1
 372 -13 l 1,52,53
 366 16 366 16 354 102 c 1,54,55
 335 -14 335 -14 331 -30 c 1,56,57
 301 -35 301 -35 251 -35 c 2,58,-1
 126 -33 l 1,0,1
377 502 m 2,59,-1
 320 499 l 2,60,61
 304 499 304 499 295 500 c 1,62,-1
 293 489 l 2,63,64
 292 485 292 485 289 467.5 c 128,-1,65
 286 450 286 450 284 441 c 2,66,-1
 282 430 l 1,67,68
 264 348 264 348 254 296 c 0,69,70
 238 220 238 220 216 155 c 1,71,72
 196 211 196 211 176.5 338 c 128,-1,73
 157 465 157 465 151 497 c 1,74,75
 125 499 125 499 111 499 c 2,76,-1
 54 498 l 2,77,78
 21 498 21 498 11 500 c 1,79,80
 67 295 67 295 115 -3 c 1,81,-1
 229 -5 l 2,82,83
 275 -5 275 -5 303 -1 c 1,84,85
 313 38 313 38 324 117.5 c 128,-1,86
 335 197 335 197 342 229 c 1,87,88
 344 218 344 218 381 -3 c 1,89,90
 381 -3 381 -3 487 -5 c 0,91,92
 529 -5 529 -5 557 -1 c 1,93,94
 571 52 571 52 610.5 232 c 128,-1,95
 650 412 650 412 682 499 c 1,96,97
 670 500 670 500 649 500 c 2,98,-1
 552 496 l 1,99,100
 541 468 541 468 514 332.5 c 128,-1,101
 487 197 487 197 470 155 c 1,102,103
 453 203 453 203 430.5 345.5 c 128,-1,104
 408 488 408 488 406 499 c 1,105,106
 390 502 390 502 377 502 c 2,59,-1
EndSplineSet
EndChar

StartChar: x
Encoding: 120 120 91
Width: 413
GlyphClass: 2
Flags: W
LayerCount: 2
Fore
SplineSet
139 -31 m 1,0,-1
 101 -32 l 1,1,-1
 94 -32 l 2,2,3
 40 -32 40 -32 17 -22 c 1,4,5
 20 -16 20 -16 20 -8 c 1,6,7
 8 -7 8 -7 -3 -2 c 1,8,9
 5 35 5 35 35.5 122 c 128,-1,10
 66 209 66 209 76 247 c 1,11,12
 62 307 62 307 44.5 355.5 c 128,-1,13
 27 404 27 404 11.5 445.5 c 128,-1,14
 -4 487 -4 487 -11 506 c 1,15,16
 30 510 30 510 94.5 510 c 128,-1,17
 159 510 159 510 167 502 c 1,18,19
 170 485 170 485 182 484 c 0,20,21
 186 483 186 483 187 482 c 0,22,23
 201 415 201 415 212 382 c 1,24,25
 220 414 220 414 245 507 c 1,26,27
 288 511 288 511 423 511 c 1,28,29
 423 492 423 492 420 491 c 1,30,-1
 443 491 l 1,31,32
 443 471 443 471 439 470 c 1,33,-1
 412 395 l 2,34,35
 369 275 369 275 360 226 c 1,36,37
 370 176 370 176 397 91.5 c 128,-1,38
 424 7 424 7 434 -32 c 1,39,40
 413 -29 413 -29 403 -29 c 2,41,-1
 379 -29 l 1,42,-1
 354 -30 l 1,43,44
 278 -30 278 -30 268 -26 c 1,45,46
 266 -22 266 -22 264 -16.5 c 128,-1,47
 262 -11 262 -11 260 -8 c 1,48,49
 252 -8 252 -8 248 -6 c 1,50,51
 239 13 239 13 230 46.5 c 128,-1,52
 221 80 221 80 218 90 c 1,53,54
 200 9 200 9 180 -31 c 1,55,-1
 139 -31 l 1,0,-1
334 0 m 1,56,-1
 383 1 l 1,57,-1
 392 1 l 2,58,59
 399 1 399 1 401 0 c 1,60,61
 393 32 393 32 366 117 c 128,-1,62
 339 202 339 202 330 246 c 1,63,64
 342 312 342 312 372.5 392 c 128,-1,65
 403 472 403 472 412 500 c 1,66,-1
 413 501 l 1,67,-1
 368 501 l 2,68,69
 272 501 272 501 253 498 c 1,70,71
 247 481 247 481 230.5 414.5 c 128,-1,72
 214 348 214 348 205 327 c 1,73,74
 204 330 204 330 158 497 c 1,75,76
 155 500 155 500 123 500 c 2,77,-1
 72 500 l 2,78,79
 47 500 47 500 2 497 c 1,80,81
 5 488 5 488 20 450.5 c 128,-1,82
 35 413 35 413 41 397 c 128,-1,83
 47 381 47 381 58 350 c 0,84,85
 75 299 75 299 86 247 c 1,86,87
 76 205 76 205 46.5 119.5 c 128,-1,88
 17 34 17 34 9 4 c 1,89,90
 24 -2 24 -2 81 -2 c 2,91,-1
 95 -2 l 1,92,93
 95 -2 95 -2 140 -1 c 1,94,-1
 154 -1 l 1,95,96
 166 23 166 23 180.5 79 c 128,-1,97
 195 135 195 135 207 161 c 1,98,99
 218 138 218 138 231 82 c 128,-1,100
 244 26 244 26 255 3 c 1,101,-1
 256 3 l 1,102,103
 262 0 262 0 318 0 c 2,104,-1
 334 0 l 1,56,-1
EndSplineSet
EndChar

StartChar: y
Encoding: 121 121 92
Width: 449
GlyphClass: 2
Flags: W
LayerCount: 2
Fore
SplineSet
288 509 m 1,0,-1
 384 511 l 2,1,2
 394 511 394 511 454 508 c 1,3,4
 452 503 452 503 449 489 c 1,5,6
 454 489 454 489 462.5 488.5 c 128,-1,7
 471 488 471 488 474 488 c 1,8,9
 427 304 427 304 407 212 c 128,-1,10
 387 120 387 120 379.5 90.5 c 128,-1,11
 372 61 372 61 357 17.5 c 128,-1,12
 342 -26 342 -26 325.5 -54 c 128,-1,13
 309 -82 309 -82 282.5 -114 c 128,-1,14
 256 -146 256 -146 224 -164 c 0,15,16
 149 -208 149 -208 47 -208 c 0,17,18
 22 -208 22 -208 6 -206 c 1,19,20
 5 -204 5 -204 4 -198.5 c 128,-1,21
 3 -193 3 -193 2 -192 c 0,22,23
 -2 -186 -2 -186 -14 -186 c 1,24,25
 -27 -142 -27 -142 -27 -102 c 128,-1,26
 -27 -62 -27 -62 -21 -34 c 1,27,-1
 52 -36 l 2,28,29
 80 -36 80 -36 95 -27 c 128,-1,30
 110 -18 110 -18 110 7 c 0,31,32
 110 15 110 15 109 22 c 0,33,34
 75 208 75 208 -11 513 c 1,35,36
 20 508 20 508 40 508 c 2,37,-1
 78 509 l 1,38,39
 138 509 138 509 152 507 c 1,40,-1
 161 499 l 1,41,42
 161 487 161 487 172 487 c 1,43,-1
 181 479 l 1,44,45
 220 256 220 256 234 200 c 1,46,47
 236 213 236 213 246 294 c 0,48,49
 263 447 263 447 288 509 c 1,0,-1
394 500 m 2,50,-1
 308 499 l 1,51,-1
 295 499 l 1,52,53
 278 458 278 458 260.5 316.5 c 128,-1,54
 243 175 243 175 229 137 c 1,55,56
 205 203 205 203 178.5 347.5 c 128,-1,57
 152 492 152 492 151 497 c 1,58,59
 125 499 125 499 110 499 c 2,60,-1
 47 498 l 2,61,62
 13 498 13 498 3 500 c 1,63,64
 120 68 120 68 120 6 c 0,65,66
 120 -46 120 -46 51 -46 c 1,67,-1
 -12 -44 l 1,68,69
 -17 -71 -17 -71 -17 -108 c 128,-1,70
 -17 -145 -17 -145 -6 -177 c 1,71,72
 5 -178 5 -178 44 -178 c 128,-1,73
 83 -178 83 -178 128.5 -165.5 c 128,-1,74
 174 -153 174 -153 205.5 -134 c 128,-1,75
 237 -115 237 -115 263 -82.5 c 128,-1,76
 289 -50 289 -50 304 -21 c 128,-1,77
 319 8 319 8 333 52 c 128,-1,78
 347 96 347 96 354 127 c 128,-1,79
 361 158 361 158 371 205 c 0,80,81
 402 351 402 351 441 499 c 1,82,83
 424 500 424 500 394 500 c 2,50,-1
EndSplineSet
EndChar

StartChar: z
Encoding: 122 122 93
Width: 456
GlyphClass: 2
Flags: W
LayerCount: 2
Fore
SplineSet
464 477 m 1,0,-1
 462 385 l 2,1,2
 462 361 462 361 465 340 c 1,3,4
 429 303 429 303 359.5 235.5 c 128,-1,5
 290 168 290 168 274 152 c 1,6,7
 283 151 283 151 300 151 c 2,8,-1
 338 151 l 2,9,10
 396 151 396 151 439 157 c 1,11,-1
 439 134 l 1,12,13
 447 134 447 134 459 137 c 1,14,-1
 461 -23 l 1,15,16
 213 -29 213 -29 33 -29 c 1,17,-1
 34 -9 l 1,18,-1
 13 -9 l 1,19,20
 15 17 15 17 15 35 c 2,21,-1
 11 116 l 1,22,23
 11 139 11 139 45 175 c 256,24,25
 79 211 79 211 105.5 234 c 128,-1,26
 132 257 132 257 137 262 c 2,27,-1
 209 331 l 1,28,29
 84 323 84 323 39 316 c 1,30,31
 37 330 37 330 37 338 c 1,32,-1
 19 336 l 1,33,34
 16 384 16 384 16 387 c 2,35,-1
 19 462 l 1,36,-1
 18 507 l 1,37,-1
 195 508 l 1,38,-1
 309 508 l 1,39,40
 319 506 319 506 329 506 c 2,41,-1
 405 508 l 2,42,43
 435 508 435 508 438 506 c 1,44,-1
 444 497 l 1,45,-1
 444 488 l 1,46,47
 450 488 450 488 458 486 c 1,48,-1
 464 477 l 1,0,-1
432 406 m 2,49,-1
 434 497 l 1,50,51
 432 498 432 498 414 498 c 2,52,-1
 331 496 l 2,53,54
 320 496 320 496 306 498 c 1,55,-1
 28 497 l 1,56,-1
 29 470 l 1,57,-1
 26 393 l 2,58,59
 26 385 26 385 28 347 c 1,60,61
 96 356 96 356 251 363 c 1,62,63
 220 326 220 326 138 249.5 c 128,-1,64
 56 173 56 173 22 129 c 1,65,66
 21 122 21 122 21 111 c 2,67,-1
 25 34 l 1,68,-1
 24 1 l 1,69,70
 185 1 185 1 431 7 c 1,71,72
 431 31 431 31 430 78 c 128,-1,73
 429 125 429 125 429 146 c 1,74,75
 386 140 386 140 341 140 c 2,76,-1
 260 141 l 2,77,78
 227 141 227 141 212 140 c 1,79,80
 248 181 248 181 325.5 255.5 c 128,-1,81
 403 330 403 330 434 363 c 1,82,83
 432 373 432 373 432 406 c 2,49,-1
EndSplineSet
EndChar

StartChar: braceleft
Encoding: 123 123 94
Width: 318
GlyphClass: 2
Flags: W
LayerCount: 2
Fore
SplineSet
266 208 m 1,0,-1
 265 173 l 2,1,2
 265 155 265 155 266 145 c 128,-1,3
 267 135 267 135 276 124 c 128,-1,4
 285 113 285 113 303 112 c 1,5,-1
 303 96 l 1,6,7
 312 92 312 92 323 92 c 1,8,-1
 323 17 l 2,9,10
 323 -9 323 -9 322 -20 c 1,11,-1
 313 -29 l 1,12,13
 291 -31 291 -31 282 -31 c 0,14,15
 207 -31 207 -31 160 13 c 128,-1,16
 113 57 113 57 113 103 c 1,17,-1
 117 157 l 1,18,19
 117 234 117 234 84 254 c 0,20,21
 69 264 69 264 46 264 c 2,22,-1
 41 264 l 2,23,24
 21 264 21 264 21 284 c 1,25,26
 12 284 12 284 9 287.5 c 128,-1,27
 6 291 6 291 4 293 c 128,-1,28
 2 295 2 295 1.5 299 c 128,-1,29
 1 303 1 303 0 306 c 128,-1,30
 -1 309 -1 309 -1 317 c 128,-1,31
 -1 325 -1 325 -1 344.5 c 128,-1,32
 -1 364 -1 364 6 404 c 1,33,34
 11 403 11 403 22 403 c 0,35,36
 118 403 118 403 118 525 c 1,37,-1
 113 586 l 1,38,39
 113 690 113 690 253 690 c 0,40,41
 259 690 259 690 298 687 c 1,42,43
 299 681 299 681 300 676.5 c 128,-1,44
 301 672 301 672 302 670.5 c 128,-1,45
 303 669 303 669 303.5 668 c 128,-1,46
 304 667 304 667 308 667 c 2,47,-1
 318 667 l 1,48,49
 322 639 322 639 322 613.5 c 128,-1,50
 322 588 322 588 320 558 c 1,51,52
 272 542 272 542 268 523 c 1,53,54
 265 502 265 502 265 481 c 2,55,-1
 267 424 l 1,56,57
 267 348 267 348 224 321 c 1,58,59
 266 287 266 287 266 208 c 1,0,-1
127 157 m 1,60,-1
 123 104 l 1,61,62
 123 62 123 62 160.5 30.5 c 128,-1,63
 198 -1 198 -1 262 -1 c 0,64,65
 270 -1 270 -1 292 1 c 1,66,67
 294 27 294 27 294 44 c 2,68,-1
 293 103 l 1,69,70
 235 107 235 107 235 192 c 1,71,-1
 236 229 l 1,72,73
 236 312 236 312 183 342 c 1,74,75
 215 354 215 354 226 379.5 c 128,-1,76
 237 405 237 405 237 446 c 2,77,-1
 236 506 l 2,78,79
 236 551 236 551 247.5 562 c 128,-1,80
 259 573 259 573 265.5 575.5 c 128,-1,81
 272 578 272 578 290 585 c 1,82,83
 292 615 292 615 292 634.5 c 128,-1,84
 292 654 292 654 289 678 c 1,85,86
 263 680 263 680 253 680 c 0,87,88
 192 680 192 680 157.5 659.5 c 128,-1,89
 123 639 123 639 123 586 c 1,90,-1
 128 525 l 1,91,92
 128 392 128 392 31 392 c 0,93,94
 20 392 20 392 15 393 c 1,95,96
 9 355 9 355 9 324.5 c 128,-1,97
 9 294 9 294 21 294 c 2,98,-1
 27 294 l 2,99,100
 81 294 81 294 104 255 c 128,-1,101
 127 216 127 216 127 157 c 1,60,-1
EndSplineSet
EndChar

StartChar: bar
Encoding: 124 124 95
Width: 201
GlyphClass: 2
Flags: W
LayerCount: 2
Fore
SplineSet
185 719 m 1,0,-1
 187 -58 l 1,1,-1
 168 -58 l 1,2,-1
 55 -55 l 1,3,-1
 55 -36 l 1,4,5
 44 -35 44 -35 35 -35 c 1,6,-1
 35 736 l 1,7,-1
 104 734 l 2,8,9
 126 734 126 734 165 739 c 1,10,-1
 165 717 l 1,11,12
 169 717 169 717 185 719 c 1,0,-1
45 -25 m 1,13,-1
 148 -28 l 1,14,-1
 157 -28 l 1,15,-1
 157 458 l 1,16,-1
 155 703 l 1,17,-1
 155 729 l 1,18,19
 125 724 125 724 105 724 c 2,20,-1
 45 726 l 1,21,-1
 45 -25 l 1,13,-1
EndSplineSet
EndChar

StartChar: braceright
Encoding: 125 125 96
Width: 318
GlyphClass: 2
Flags: W
LayerCount: 2
Fore
SplineSet
221 137 m 1,0,-1
 225 84 l 1,1,2
 225 38 225 38 184.5 3.5 c 128,-1,3
 144 -31 144 -31 76 -31 c 0,4,5
 67 -31 67 -31 45 -29 c 1,6,-1
 36 -20 l 2,7,8
 35 -18 35 -18 34.5 -15 c 128,-1,9
 34 -12 34 -12 34 -11 c 0,10,11
 32 -9 32 -9 25 -9 c 1,12,-1
 16 0 l 1,13,14
 15 11 15 11 15 37 c 2,15,-1
 15 112 l 1,16,17
 73 116 73 116 73 194 c 1,18,-1
 71 228 l 1,19,20
 71 302 71 302 111 339 c 1,21,22
 110 342 110 342 107 345 c 0,23,24
 85 359 85 359 78 382.5 c 128,-1,25
 71 406 71 406 71 444 c 2,26,-1
 72 500 l 1,27,-1
 69 546 l 1,28,29
 65 548 65 548 56 550 c 0,30,31
 37 555 37 555 37 572 c 1,32,-1
 19 578 l 1,33,34
 15 603 15 603 15 632 c 128,-1,35
 15 661 15 661 20 687 c 1,36,37
 59 690 59 690 65 690 c 0,38,39
 153 690 153 690 184 651 c 1,40,41
 224 623 224 623 224 565 c 1,42,-1
 220 505 l 1,43,44
 220 428 220 428 254 411 c 0,45,46
 271 403 271 403 289 403 c 128,-1,47
 307 403 307 403 312 404 c 1,48,-1
 315 383 l 1,49,50
 325 383 325 383 332 384 c 1,51,52
 339 330 339 330 339 313 c 0,53,54
 339 264 339 264 317 264 c 2,55,-1
 311 264 l 2,56,57
 262 264 262 264 241.5 227 c 128,-1,58
 221 190 221 190 221 137 c 1,0,-1
25 103 m 1,59,-1
 24 44 l 2,60,61
 24 27 24 27 26 1 c 1,62,63
 48 -1 48 -1 55 -1 c 0,64,65
 122 -1 122 -1 158.5 31 c 128,-1,66
 195 63 195 63 195 108 c 1,67,68
 191 128 191 128 191 157 c 0,69,70
 191 216 191 216 213.5 255 c 128,-1,71
 236 294 236 294 290 294 c 2,72,-1
 297 294 l 2,73,74
 309 294 309 294 309 324.5 c 128,-1,75
 309 355 309 355 303 393 c 1,76,77
 296 392 296 392 287 392 c 0,78,79
 190 392 190 392 190 525 c 1,80,-1
 194 586 l 1,81,82
 194 639 194 639 160 659.5 c 128,-1,83
 126 680 126 680 65 680 c 0,84,85
 53 680 53 680 29 678 c 1,86,87
 25 657 25 657 25 631.5 c 128,-1,88
 25 606 25 606 28 585 c 1,89,90
 52 576 52 576 59.5 571.5 c 128,-1,91
 67 567 67 567 74.5 551.5 c 128,-1,92
 82 536 82 536 82 506 c 2,93,-1
 81 446 l 2,94,95
 81 405 81 405 92 379.5 c 128,-1,96
 103 354 103 354 135 342 c 1,97,98
 81 311 81 311 81 229 c 1,99,-1
 83 192 l 1,100,101
 83 107 83 107 25 103 c 1,59,-1
EndSplineSet
EndChar

StartChar: asciitilde
Encoding: 126 126 97
Width: 570
GlyphClass: 2
Flags: W
LayerCount: 2
Fore
SplineSet
554 341 m 1,0,-1
 555 330 l 1,1,-1
 565 330 l 1,2,-1
 574 321 l 1,3,4
 577 306 577 306 577 291 c 0,5,6
 577 232 577 232 544.5 177 c 128,-1,7
 512 122 512 122 468 106 c 1,8,9
 444 96 444 96 408 96 c 128,-1,10
 372 96 372 96 334 122 c 128,-1,11
 296 148 296 148 277 188 c 1,12,13
 270 192 270 192 254.5 192 c 128,-1,14
 239 192 239 192 214 181 c 1,15,-1
 215 182 l 1,16,17
 194 169 194 169 194 144 c 0,18,19
 194 136 194 136 199 116 c 1,20,-1
 187 103 l 1,21,22
 171 107 171 107 120.5 107 c 128,-1,23
 70 107 70 107 24 105 c 1,24,25
 26 114 26 114 30 126 c 1,26,27
 21 125 21 125 4 125 c 1,28,29
 14 166 14 166 39 226 c 128,-1,30
 64 286 64 286 87 313 c 1,31,32
 135 361 135 361 203 361 c 0,33,34
 242 361 242 361 274.5 340 c 128,-1,35
 307 319 307 319 344 270 c 1,36,37
 352 264 352 264 363 264 c 0,38,39
 384 264 384 264 401.5 292 c 128,-1,40
 419 320 419 320 425 345 c 1,41,42
 490 350 490 350 545 350 c 1,43,-1
 554 341 l 1,0,-1
169 134 m 1,44,45
 164 154 164 154 164 169.5 c 128,-1,46
 164 185 164 185 183 203.5 c 128,-1,47
 202 222 202 222 233 222 c 128,-1,48
 264 222 264 222 286 193 c 1,49,50
 316 126 316 126 394 126 c 0,51,52
 459 126 459 126 502.5 182 c 128,-1,53
 546 238 546 238 546 310 c 0,54,55
 546 331 546 331 544 337 c 1,56,-1
 541 340 l 1,57,58
 450 337 450 337 433 336 c 1,59,60
 428 312 428 312 407.5 283 c 128,-1,61
 387 254 387 254 366.5 254 c 128,-1,62
 346 254 346 254 329 269 c 128,-1,63
 312 284 312 284 298.5 302.5 c 128,-1,64
 285 321 285 321 259.5 336 c 128,-1,65
 234 351 234 351 203 351 c 0,66,67
 76 351 76 351 17 136 c 1,68,69
 40 137 40 137 96.5 137 c 128,-1,70
 153 137 153 137 169 133 c 1,71,-1
 169 134 l 1,44,45
EndSplineSet
EndChar

StartChar: exclamdown
Encoding: 161 161 99
Width: 216
GlyphClass: 2
Flags: W
LayerCount: 2
Fore
SplineSet
51 641 m 1,0,-1
 71 640 l 1,1,-1
 91 640 l 1,2,-1
 166 641 l 2,3,4
 177 641 177 641 179 621 c 1,5,-1
 186 621 l 2,6,7
 199 621 199 621 199 590 c 1,8,-1
 193 486 l 1,9,10
 172 477 172 477 142 477 c 1,11,12
 142 477 142 477 51 481 c 1,13,-1
 51 500 l 1,14,15
 44 501 44 501 31 501 c 1,16,-1
 34 641 l 1,17,-1
 51 641 l 1,0,-1
201 336 m 2,18,-1
 203 101 l 2,19,20
 203 -13 203 -13 199 -100 c 1,21,-1
 187 -100 l 1,22,23
 143 -107 143 -107 107.5 -107 c 128,-1,24
 72 -107 72 -107 53 -100 c 1,25,-1
 53 -85 l 1,26,27
 41 -83 41 -83 33 -80 c 1,28,-1
 37 219 l 1,29,30
 37 350 37 350 31 466 c 1,31,32
 102 472 102 472 182 472 c 1,33,34
 182 469 182 469 181.5 462 c 128,-1,35
 181 455 181 455 181 451 c 1,36,37
 189 452 189 452 202 452 c 1,38,39
 201 417 201 417 201 336 c 2,18,-1
173 121 m 2,40,-1
 171 380 l 2,41,42
 171 435 171 435 172 462 c 1,43,-1
 171 462 l 1,44,45
 61 459 61 459 42 457 c 1,46,47
 47 330 47 330 47 193 c 128,-1,48
 47 56 47 56 43 -72 c 1,49,50
 58 -77 58 -77 85 -77 c 128,-1,51
 112 -77 112 -77 166 -70 c 1,52,-1
 169 -70 l 1,53,54
 173 15 173 15 173 121 c 2,40,-1
163 514 m 1,55,-1
 169 616 l 2,56,57
 169 631 169 631 166 631 c 2,58,-1
 91 630 l 1,59,-1
 89 630 l 1,60,-1
 51 631 l 1,61,-1
 44 631 l 1,62,63
 44 622 44 622 41 511 c 1,64,-1
 121 507 l 1,65,66
 149 507 149 507 163 513 c 1,67,-1
 163 514 l 1,55,-1
EndSplineSet
EndChar

StartChar: cent
Encoding: 162 162 100
Width: 350
GlyphClass: 2
Flags: W
LayerCount: 2
Fore
SplineSet
227 634 m 1,0,-1
 225 591 l 1,1,2
 275 579 275 579 316 523.5 c 128,-1,3
 357 468 357 468 357 410 c 0,4,5
 357 384 357 384 347 355 c 1,6,7
 320 351 320 351 290 351 c 128,-1,8
 260 351 260 351 231 358 c 1,9,10
 229 362 229 362 228 374 c 1,11,12
 226 375 226 375 225 375 c 1,13,-1
 225 355 l 1,14,-1
 226 303 l 1,15,-1
 279 303 l 2,16,17
 310 303 310 303 329 295 c 1,18,-1
 329 281 l 1,19,20
 331 279 331 279 349 275 c 1,21,-1
 353 197 l 1,22,23
 353 149 353 149 314.5 112 c 128,-1,24
 276 75 276 75 226 65 c 1,25,-1
 227 31 l 1,26,-1
 227 20 l 2,27,28
 227 -5 227 -5 199.5 -5 c 128,-1,29
 172 -5 172 -5 172 15 c 1,30,31
 162 16 162 16 157 24 c 0,32,33
 151 32 151 32 151 63 c 1,34,35
 106 69 106 69 67.5 101 c 128,-1,36
 29 133 29 133 24 178.5 c 128,-1,37
 19 224 19 224 19 288 c 2,38,-1
 21 441 l 1,39,40
 20 444 20 444 20 456 c 0,41,42
 20 511 20 511 51 555 c 128,-1,43
 82 599 82 599 133 599 c 0,44,45
 145 599 145 599 152 598 c 1,46,-1
 152 649 l 1,47,48
 159 661 159 661 178 661 c 128,-1,49
 197 661 197 661 207 654 c 1,50,-1
 206 641 l 1,51,52
 217 641 217 641 227 634 c 1,0,-1
283 293 m 2,53,-1
 244 292 l 2,54,55
 231 292 231 292 228 293 c 1,56,57
 227 286 227 286 226 269.5 c 128,-1,58
 225 253 225 253 224 243 c 0,59,60
 221 216 221 216 198 206 c 1,61,-1
 197 206 l 1,62,-1
 196 345 l 1,63,-1
 196 403 l 2,64,65
 196 447 196 447 197 474 c 1,66,67
 218 461 218 461 218 416 c 0,68,69
 218 395 218 395 220 387 c 1,70,71
 250 381 250 381 274 381 c 128,-1,72
 298 381 298 381 320 384 c 1,73,-1
 320 385 l 1,74,75
 327 403 327 403 327 430 c 0,76,77
 327 488 327 488 290.5 535 c 128,-1,78
 254 582 254 582 198 584 c 1,79,-1
 197 584 l 1,80,81
 196 591 196 591 196 604 c 2,82,-1
 197 649 l 1,83,-1
 197 650 l 1,84,85
 193 654 193 654 183 654 c 0,86,87
 162 654 162 654 162 636 c 2,88,-1
 162 610 l 2,89,90
 162 591 162 591 160 586 c 1,91,92
 146 589 146 589 135 589 c 0,93,94
 87 589 87 589 58.5 549.5 c 128,-1,95
 30 510 30 510 30 458 c 0,96,97
 30 447 30 447 31 442 c 1,98,-1
 29 292 l 2,99,100
 29 228 29 228 35 176 c 1,101,102
 41 137 41 137 73 114.5 c 128,-1,103
 105 92 105 92 144 92 c 0,104,105
 154 92 154 92 161 93 c 1,106,107
 161 90 161 90 160.5 77.5 c 128,-1,108
 160 65 160 65 160.5 58 c 128,-1,109
 161 51 161 51 162 42 c 0,110,111
 164 24 164 24 175 24 c 128,-1,112
 186 24 186 24 193 29 c 1,113,-1
 196 30 l 1,114,115
 197 33 197 33 197 46 c 2,116,-1
 196 79 l 2,117,118
 196 90 196 90 197 93 c 1,119,-1
 199 94 l 1,120,121
 249 100 249 100 286.5 135.5 c 128,-1,122
 324 171 324 171 324 219 c 1,123,-1
 319 288 l 1,124,-1
 319 289 l 1,125,126
 304 293 304 293 283 293 c 2,53,-1
161 206 m 1,127,128
 130 222 130 222 130 294 c 2,129,-1
 130 336 l 2,130,131
 130 384 130 384 131.5 393.5 c 128,-1,132
 133 403 133 403 133 415 c 128,-1,133
 133 427 133 427 134 435.5 c 128,-1,134
 135 444 135 444 137 453 c 0,135,136
 141 472 141 472 160 472 c 1,137,138
 162 384 162 384 162 350 c 128,-1,139
 162 316 162 316 161.5 271.5 c 128,-1,140
 161 227 161 227 161 206 c 1,127,128
EndSplineSet
EndChar

